<svg width="20" height="20" viewBox="0 0 20 20" fill="none" xmlns="http://www.w3.org/2000/svg">
<path d="M15.8337 3.33398H4.16699C3.50395 3.33398 2.86807 3.59738 2.39923 4.06622C1.93038 4.53506 1.66699 5.17094 1.66699 5.83398V14.1673C1.66699 14.8304 1.93038 15.4662 2.39923 15.9351C2.86807 16.4039 3.50395 16.6673 4.16699 16.6673H15.8337C16.4967 16.6673 17.1326 16.4039 17.6014 15.9351C18.0703 15.4662 18.3337 14.8304 18.3337 14.1673V5.83398C18.3337 5.17094 18.0703 4.53506 17.6014 4.06622C17.1326 3.59738 16.4967 3.33398 15.8337 3.33398ZM15.8337 5.00065L10.417 8.72565C10.2903 8.79879 10.1466 8.8373 10.0003 8.8373C9.85404 8.8373 9.71034 8.79879 9.58366 8.72565L4.16699 5.00065H15.8337Z" fill="#5A3900"/>
</svg>
