<svg width="21" height="21" viewBox="0 0 21 21" fill="none" xmlns="http://www.w3.org/2000/svg">
<path fill-rule="evenodd" clip-rule="evenodd" d="M3.5553 1.09375H6.83742C6.97091 1.09375 7.10122 1.13446 7.21097 1.21044C7.32072 1.28642 7.40469 1.39406 7.45167 1.519L8.72567 4.90525C8.76766 5.01723 8.77825 5.13856 8.7563 5.25612L8.11755 8.67912C8.90242 10.5236 10.1983 11.7635 12.3464 12.8756L15.7283 12.2194C15.8485 12.1962 15.9727 12.2071 16.087 12.2509L19.4838 13.5459C19.608 13.5932 19.7149 13.6771 19.7903 13.7864C19.8658 13.8958 19.9063 14.0255 19.9064 14.1584V17.2944C19.9064 18.7171 18.6534 19.8712 17.1869 19.5519C14.5155 18.9709 9.56567 17.493 6.09892 14.0262C2.77742 10.7056 1.66442 6.11887 1.2908 3.64C1.07642 2.22425 2.2113 1.09375 3.5553 1.09375Z" fill="#5A3900"/>
</svg>
