<svg width="352" height="239" viewBox="0 0 352 239" fill="none" xmlns="http://www.w3.org/2000/svg">
<g clip-path="url(#clip0_981_3447)">
<path fill-rule="evenodd" clip-rule="evenodd" d="M0 0.0332031L0.0609543 221.887L25.1196 238.863L352 157.845V0L0 0.0332031Z" fill="#FFBC4A"/>
<path fill-rule="evenodd" clip-rule="evenodd" d="M61.8079 145.306C57.6602 145.382 53.509 145.457 49.3505 145.529L48.9512 124.564C49.1419 116.157 37.181 115.661 37.3033 125.762C37.3033 125.762 37.9688 176.192 37.994 190.07C37.994 196.474 37.7889 207.956 43.5985 206.827C49.6347 205.654 49.9441 201.161 50.1743 192.207L49.775 169.883L44.5842 170.821L44.4619 163.875C50.0268 162.972 56.0271 162.505 61.8079 161.828C62.0561 178.451 64.1677 201.384 54.8436 210.636C48.3469 217.993 31.9469 219.144 27.159 218.075C22.3674 217 18.5255 213.266 17.6838 206.647C15.8851 192.517 17.8025 180.34 17.5147 164.059C17.3888 157.001 17.5543 150.026 17.4248 142.612C17.306 135.399 16.7521 127.28 17.9356 122.323C19.8889 114.082 28.5115 108.366 37.681 108.06C47.7498 107.725 56.671 109.182 60.1388 116.075C63.7684 123.284 61.5525 133.654 61.8079 145.306Z" fill="white"/>
<path fill-rule="evenodd" clip-rule="evenodd" d="M109.57 174.603C109.092 184.215 110.642 194.614 105.948 199.877C101.056 205.37 81.6591 210.748 72.7307 205.683C63.9893 200.722 66.5794 186.056 66.3384 172.469C65.975 151.699 66.6046 128.532 66.3959 108.999C66.6297 108.758 66.5506 108.208 66.9571 108.125L80.8677 108.165C81.1268 130.648 80.2274 154.249 80.6447 177.725C80.749 183.873 79.6411 195.201 83.6017 197.956C87.6198 200.755 94.192 197.841 95.7029 193.974C97.4656 189.467 96.3036 178.506 96.1921 172.811C95.8468 152.429 96.4188 127.147 96.5159 108.183L109.556 108.244C108.966 128.457 110.646 152.764 109.57 174.603Z" fill="white"/>
<path fill-rule="evenodd" clip-rule="evenodd" d="M240.18 169.989L239.953 107.696L249.792 107.516L249.788 156.198L261.055 153.974L261.238 164.687L240.18 169.989Z" fill="white"/>
<path fill-rule="evenodd" clip-rule="evenodd" d="M278.85 160.899C275.872 162.036 270.746 163.284 267.555 161.399C262.433 158.331 263.425 146.449 262.947 136.294L262.443 107.868L270.588 107.681L271.3 143.356C271.375 147.777 271.501 153.165 274.699 152.619C279.62 151.802 279.106 146.205 279.038 141.546L278.494 107.588L286.311 107.451L286.944 142.794C286.646 151.867 285.567 158.331 278.85 160.899Z" fill="white"/>
<path fill-rule="evenodd" clip-rule="evenodd" d="M315.232 151.008L315.045 107.532L334.596 107.129C334.614 108.953 334.69 112.989 334.69 112.989L323.038 113.698L323.088 119.029L334.675 118.133L334.765 125.007L323.196 125.939L323.448 140.138L335.003 138.483L335.154 147.177L315.232 151.008Z" fill="white"/>
<path fill-rule="evenodd" clip-rule="evenodd" d="M130.148 175.41L136.595 130.088L143.732 172.852L130.148 175.41ZM146.93 108.17L131.58 108.436C131.58 108.436 120.213 169.043 114.936 199.713L126.767 197.49L129.037 184.134L145.023 180.648L147.548 192.199L162.83 188.159L146.93 108.17Z" fill="white"/>
<path fill-rule="evenodd" clip-rule="evenodd" d="M186.688 159.918C186.49 168.487 187.339 176.778 179.144 176.278L178.979 118.459C178.968 117.959 179.029 116.603 180.889 116.384C182.792 116.157 185.411 117.013 186.17 119.521C186.824 121.636 186.994 145.961 186.688 159.918ZM198.854 142.903C198.677 133.974 199.901 121.621 198.08 115.959C194.706 105.463 176.817 107.642 166.939 108.107C166.385 133.974 166.554 161.116 166.881 186.887C171.342 186.041 183.742 184.423 191.076 180.523C198.58 176.541 198.99 168.739 199.098 157.389C199.138 152.777 198.929 147.964 198.854 142.903Z" fill="white"/>
<path fill-rule="evenodd" clip-rule="evenodd" d="M214.74 157.108L218.308 129.805L222.819 155.81L214.74 157.108ZM225.305 107.365L213.883 107.862L201.793 179.07L212.563 176.519L213.952 165.727L223.844 163.907L225.463 173.44L237.007 170.915L225.305 107.365Z" fill="white"/>
<path fill-rule="evenodd" clip-rule="evenodd" d="M304.453 129.934C302.54 131.47 300.443 131.643 298.18 131.546L297.831 116.97C299.96 117.117 303.227 116.542 304.486 118.006C306.216 120.031 306.63 128.19 304.453 129.934ZM310.436 111.085C306.475 105.937 298.342 107.397 289.586 107.394L289.802 157.23L298.701 155.392L298.457 138.543C303.414 138.438 309.299 137.201 311.483 133.129C314.166 128.168 313.519 115.081 310.436 111.085Z" fill="white"/>
</g>
<defs>
<clipPath id="clip0_981_3447">
<rect width="352" height="239" fill="white"/>
</clipPath>
</defs>
</svg>
