<svg width="215" height="172" viewBox="0 0 215 172" fill="none" xmlns="http://www.w3.org/2000/svg">
<mask id="mask0_191_330" style="mask-type:luminance" maskUnits="userSpaceOnUse" x="114" y="47" width="61" height="125">
<path d="M114.674 47.5508H174.985V171.935H114.674V47.5508Z" fill="white"/>
</mask>
<g mask="url(#mask0_191_330)">
<path d="M169.441 48.3484C161.006 44.92 152.845 55.9944 153.363 68.3753L153.103 100.266H152.053C137.834 96.8373 121.239 126.08 116.486 135.05C115.697 136.631 115.162 138.475 115.162 140.059V169.299C115.162 170.883 116.229 171.935 117.813 171.935C119.38 171.935 120.446 170.883 120.446 169.299L120.432 139.785C120.432 134.775 140.725 102.624 150.729 105.275H151.261C151.779 105.275 152.845 105.533 152.845 105.793C152.845 105.793 153.363 107.637 149.145 114.748C147.576 117.381 139.661 130.572 139.661 135.824C139.661 139.253 144.928 139.253 144.928 135.824C144.928 132.931 149.937 123.443 153.62 117.381C160.214 106.31 157.32 111.062 158.63 68.1151C157.838 53.6182 168.114 49.6724 169.166 55.2023C169.698 57.5756 169.698 60.4692 169.698 64.1548C168.906 143.21 175.225 99.7308 149.145 160.329C148.885 160.603 148.885 161.135 148.885 161.396V168.767C148.885 170.351 149.937 171.4 151.521 171.4C153.103 171.4 154.155 170.351 154.155 168.767V161.913C171.282 125.288 174.968 122.926 174.968 113.956V64.4295C175.225 57.8357 175.225 50.7246 169.441 48.3484Z" fill="#F7BA40"/>
</g>
<path d="M63.0167 100.248H61.9674L61.6927 68.3753C62.2246 55.7343 54.0642 44.6628 45.6291 48.0883C39.8303 50.4645 39.8303 57.5756 40.1051 64.1548C40.8942 113.164 38.5209 116.072 42.4637 124.235L60.9152 162.188C61.4326 165.598 59.334 171.66 63.5516 171.66C65.1182 171.66 66.185 170.608 66.185 169.024C66.185 161.653 66.4422 161.396 65.9103 160.603C48.0053 122.119 45.3719 121.342 45.3719 114.231C45.3719 58.6278 45.0972 59.4199 45.8892 55.4595C46.9561 49.3977 56.9578 54.1501 56.4258 68.3753L56.9578 104.743C55.6338 112.112 70.1278 128.713 70.1278 135.824C70.1278 137.408 71.1771 138.475 72.7612 138.475C82.5058 138.475 61.6927 110.27 62.2246 105.793C62.4848 105.532 63.2768 105.532 63.8088 105.275H64.3261C74.3454 102.884 94.6236 135.307 94.6236 139.784V169.024C94.6236 170.608 95.6758 171.66 97.257 171.66C98.8412 171.66 99.8934 170.608 99.8934 169.024C99.6332 140.045 100.943 138.992 98.584 134.775C93.8315 125.819 77.236 96.8372 63.0167 100.248Z" fill="#F7BA40"/>
<mask id="mask1_191_330" style="mask-type:luminance" maskUnits="userSpaceOnUse" x="72" y="0" width="72" height="117">
<path d="M72.0234 0H143.105V116.388H72.0234V0Z" fill="white"/>
</mask>
<g mask="url(#mask1_191_330)">
<path d="M107.535 6.71065C114.904 14.3566 142.568 44.9201 136.766 68.6326C134.132 79.1721 125.18 87.0753 110.169 92.345V82.0803C115.967 76.2785 122.286 73.6451 119.378 70.4768C116.745 67.3085 113.319 72.8531 110.169 75.2263V63.1056C115.967 57.3039 122.286 54.6675 119.378 51.4993C116.745 48.3485 113.319 53.8755 110.169 56.2517V35.9676C110.169 34.3835 109.116 33.3313 107.535 33.3313C105.951 33.3313 104.899 34.3835 104.899 35.9676V56.2517L99.3719 51.2421C98.308 50.1899 96.7239 50.45 95.6746 51.4993C94.6224 52.5661 94.8825 54.1356 95.9464 55.2024L104.899 63.1056V75.2263C101.473 72.8531 98.308 67.5833 95.6746 70.4768C92.7811 73.9023 99.3719 76.2785 104.899 82.0803V92.345C60.3821 77.0706 76.4457 39.1184 107.535 6.71065ZM142.033 69.9595C149.158 39.9105 110.961 2.76783 109.377 1.18368C108.324 0.131481 106.743 0.131481 105.691 1.18368C104.11 2.76783 65.9091 39.9105 73.0202 69.9595C76.1856 82.8723 86.7222 92.0878 104.899 98.1467C105.691 109.478 103.058 116.332 107.535 116.332C112.01 116.332 109.377 109.478 110.169 98.1467C128.088 92.3597 138.882 82.8723 142.05 69.9595H142.033Z" fill="#F7BA40"/>
</g>
</svg>
