<svg width="34" height="34" viewBox="0 0 34 34" fill="none" xmlns="http://www.w3.org/2000/svg">
<path d="M0 16.0202C0 6.81476 7.21113 0 16.5156 0C25.8201 0 33.0312 6.81476 33.0312 16.0202C33.0312 25.2255 25.8201 32.0403 16.5156 32.0403C14.8434 32.0403 13.2414 31.8194 11.7344 31.4065C11.4421 31.3254 11.1309 31.3472 10.8528 31.4685L7.57448 32.9177C7.37648 33.005 7.16006 33.0424 6.94424 33.0265C6.72842 33.0106 6.5198 32.942 6.33672 32.8266C6.15365 32.7112 6.00172 32.5526 5.89429 32.3647C5.78686 32.1769 5.72721 31.9655 5.7206 31.7492L5.62976 28.8115C5.62337 28.6327 5.58073 28.4571 5.50443 28.2953C5.42814 28.1334 5.31977 27.9888 5.18591 27.8701C1.97362 24.9964 0 20.8345 0 16.0202ZM11.4495 13.0081L6.59799 20.7044C6.13349 21.4435 7.03978 22.2754 7.73551 21.749L12.9482 17.7935C13.1197 17.6633 13.3289 17.5925 13.5442 17.5917C13.7595 17.591 13.9692 17.6604 14.1415 17.7894L18 20.6838C18.2737 20.8891 18.5871 21.0354 18.9202 21.1136C19.2533 21.1918 19.5991 21.2001 19.9356 21.138C20.2721 21.076 20.5921 20.9449 20.8754 20.753C21.1588 20.5611 21.3993 20.3126 21.5818 20.0231L26.4333 12.3268C26.8998 11.5878 25.9915 10.7558 25.2957 11.2822L20.083 15.2377C19.9116 15.3679 19.7024 15.4388 19.4871 15.4395C19.2718 15.4403 19.0621 15.3709 18.8897 15.2419L15.0313 12.3454C14.7575 12.1401 14.4442 11.9938 14.111 11.9156C13.7779 11.8374 13.4322 11.8291 13.0957 11.8911C12.7591 11.9532 12.4391 12.0843 12.1558 12.2762C11.8725 12.4681 11.632 12.7187 11.4495 13.0081Z" fill="#FFB34F"/>
</svg>
