<svg width="32" height="37" viewBox="0 0 32 37" fill="none" xmlns="http://www.w3.org/2000/svg">
<path d="M10.5938 15.8908C10.5938 17.2957 11.1518 18.643 12.1452 19.6364C13.1386 20.6298 14.4859 21.1879 15.8908 21.1879C17.2957 21.1879 18.643 20.6298 19.6364 19.6364C20.6298 18.643 21.1879 17.2957 21.1879 15.8908C21.1879 14.4859 20.6298 13.1386 19.6364 12.1452C18.643 11.1518 17.2957 10.5938 15.8908 10.5938C14.4859 10.5938 13.1386 11.1518 12.1452 12.1452C11.1518 13.1386 10.5938 14.4859 10.5938 15.8908Z" stroke="white" stroke-width="3.53137" stroke-linecap="round" stroke-linejoin="round"/>
<path d="M25.8796 25.8791L18.3878 33.3709C17.7256 34.0324 16.828 34.4039 15.892 34.4039C14.956 34.4039 14.0584 34.0324 13.3962 33.3709L5.90263 25.8791C3.92722 23.9036 2.58197 21.3866 2.037 18.6466C1.49202 15.9065 1.77179 13.0664 2.84094 10.4854C3.91008 7.9043 5.72058 5.69824 8.04349 4.14615C10.3664 2.59405 13.0974 1.76563 15.8911 1.76562C18.6848 1.76562 21.4158 2.59405 23.7387 4.14615C26.0616 5.69824 27.8721 7.9043 28.9413 10.4854C30.0104 13.0664 30.2902 15.9065 29.7452 18.6466C29.2003 21.3866 27.855 23.9036 25.8796 25.8791Z" stroke="white" stroke-width="3.53137" stroke-linecap="round" stroke-linejoin="round"/>
</svg>
