<svg width="1292" height="763" viewBox="0 0 1292 763" fill="none" xmlns="http://www.w3.org/2000/svg">
<path d="M24.0244 418.499C24.8352 416.087 26.1148 414.586 30.0137 411.473C38.782 404.469 48.7738 399.877 68.1684 393.932C79.3063 390.518 90.7395 385.062 102.825 377.39C108.194 373.98 113.217 369.468 132.811 350.452C145.758 337.889 157.592 326.842 159.113 325.904C163.348 323.293 167.26 322.317 188.488 318.576C199.282 316.673 215.5 312.537 215.5 312.537C221.429 310.794 235.858 311.23 242.278 313.587C251.278 316.894 278.865 319.503 316.955 320.649C350.598 321.661 354.393 322.264 354.289 326.592C354.246 328.353 352.612 329.582 339.064 338.045C330.715 343.259 322.011 348.519 319.72 349.731C313.363 353.095 305.353 358.405 298.177 364.005C291.836 368.956 283.063 373.72 279.877 373.945C278.997 374.01 276.975 374.409 275.383 374.832C268.852 376.573 258.678 377.61 246.919 377.729C223.043 377.972 209.043 380.584 177.407 390.697C150.482 399.305 149.69 399.786 136.07 415.802C121.129 433.369 115.837 436.632 100.077 437.99C88.3961 438.994 81.9478 438.334 70.4537 434.959C65.2205 433.422 59.7397 431.902 58.2776 431.583C56.8139 431.261 52.8201 430.292 49.4052 429.43C45.9904 428.564 42.8658 427.896 42.4606 427.94C41.4878 428.048 23.9415 422.594 23.4065 422.017C23.1772 421.77 23.4546 420.187 24.0244 418.499Z" fill="#FFBC4A"/>
<path fill-rule="evenodd" clip-rule="evenodd" d="M960.056 56.2628C960.509 57.2818 961.994 57.4516 962.674 57.3526C993.469 53.0786 983.223 38.1055 980.392 36.4355C973.557 32.3738 955.004 44.6438 960.056 56.2628Z" fill="#FFD58C"/>
<path fill-rule="evenodd" clip-rule="evenodd" d="M954.741 60.4844C954.699 55.2481 954.713 45.9926 941.82 51.7101C933.527 55.4038 939.527 68.9192 946.207 70.4618C958.591 73.3205 954.869 61.0363 954.713 59.7626" fill="#FFD58C"/>
<path fill-rule="evenodd" clip-rule="evenodd" d="M975.401 82.0475C1023.16 106.672 998.936 211.357 911.886 205.894C899.545 205.115 882.194 184.722 897.55 161.512C909.338 143.695 883.879 138.543 900.833 100.403C901.824 98.1529 927.963 59.9559 975.401 82.0475Z" fill="#FFD58C"/>
<path fill-rule="evenodd" clip-rule="evenodd" d="M967.526 62.5835C960.195 67.098 962.601 72.575 965.389 72.674C975.083 73.0278 974.22 71.9097 982.315 77.4008C986.334 80.118 990.014 76.0988 986.575 66.4045C982.258 54.2619 968.276 62.1306 967.526 62.5835Z" fill="#FFD58C"/>
<path d="M607.682 697.326C607.407 697.936 604.414 700.334 601.027 702.659C597.642 704.982 592.525 709.051 589.657 711.702C586.787 714.352 583.592 716.871 582.555 717.298C580.068 718.324 563.659 720.16 554.773 720.405C547.622 720.603 526.064 718.87 513.546 717.091C506.019 716.019 485.535 713.992 471.927 712.971C467.156 712.612 460.026 711.899 456.085 711.384C452.143 710.869 447.941 710.37 446.747 710.272C444.646 710.101 434.533 707.608 432.35 706.724C431.758 706.484 429.694 705.744 427.766 705.079C423.512 703.612 418.627 699.952 418.434 698.087C418.241 696.224 421.211 692.741 423.527 692.114C424.584 691.827 427.481 691.188 429.967 690.694C436.279 689.441 448.979 684.749 450.312 683.18C450.572 682.874 449.016 681.207 446.855 679.474C444.694 677.739 442.218 675.303 441.352 674.058C432.853 661.844 431.142 658.084 431.589 652.625C431.869 649.215 434.546 642.027 436.782 638.685C438.233 636.518 438.558 636.346 441.904 635.984C445.806 635.561 456.519 637.519 459.181 639.141C460.012 639.647 464.402 641.16 468.936 642.501C478.08 645.207 484.978 645.99 499.421 645.963C510.631 645.94 518.93 646.311 523.173 647.024C527.854 647.808 536.285 650.833 539.549 652.9C541.033 653.839 543.833 655.626 545.769 656.869C550.329 659.798 555.375 661.644 561.134 662.488C576.934 664.804 582.556 666.59 590.361 671.767C597.739 676.66 602.742 682.78 606.424 691.419C608.377 696.001 608.345 695.851 607.682 697.326Z" fill="#FFBC4A"/>
<path d="M685.065 147.775C676.324 141.617 667.095 134.159 665.018 131.573C663.609 129.82 661.924 126.819 661.276 124.905C659.596 119.945 661.012 117.304 668.629 111.18C680.807 101.394 684.974 98.6153 697.545 91.8983C734.817 71.9837 731.746 73.4353 759.474 62.6108C768.031 59.2693 777.059 55.7158 779.538 54.7157C785.177 52.4376 805.247 43.3315 809.12 41.2933C810.71 40.4558 812.953 39.8334 814.107 39.9073C815.388 39.9912 822.202 42.9141 831.563 47.394C848.409 55.4552 850.783 57.1829 850.753 61.3648C850.73 64.4271 847.524 68.786 844.25 70.2111C841.424 71.4411 814.116 88.2774 805.856 93.8817C803.391 95.5552 794.71 100.37 786.566 104.579C763.533 116.484 758.914 119.051 734.149 133.701C714.27 145.459 700.665 151.858 695.555 151.853C692.451 151.851 688.877 150.46 685.065 147.775Z" fill="#FFBC4A"/>
<path fill-rule="evenodd" clip-rule="evenodd" d="M204.069 548.886C230.759 550.466 255.02 567.598 259.734 587.447C262.306 598.226 262.393 612.398 264.663 622.645C267.595 635.839 276.895 640.884 284.9 653.992C286.28 656.234 310.756 694.235 271.591 719.861C240.259 740.356 155.13 712.689 130.827 632.605C126.112 617.054 120.881 543.956 204.069 548.886Z" fill="#FFD58C"/>
<path fill-rule="evenodd" clip-rule="evenodd" d="M218.907 507.637C194.157 515.815 170.213 515.038 168.402 545.048C167.655 557.394 176.81 541.182 190.119 536.353C196.472 534.053 225.49 535.62 228.838 517.166C230.621 507.378 228.551 505.38 218.907 507.637Z" fill="#FFD58C"/>
<path fill-rule="evenodd" clip-rule="evenodd" d="M121.607 527.604C120.17 541.013 120.113 546.274 124.209 548.76C125.79 549.723 129.915 549.12 132.947 549.033C138.855 548.861 143.396 553.704 146.529 551.39C148.211 550.14 157.481 539.979 160.916 531.384C162.742 526.813 162.526 521.74 159.019 519.641C137.762 506.951 122.915 515.315 121.607 527.604Z" fill="#FFD58C"/>
<path fill-rule="evenodd" clip-rule="evenodd" d="M273.146 110.648C263.452 120.794 260.067 125.096 261.867 129.746C262.56 131.543 266.345 133.663 268.901 135.516C273.882 139.121 274.554 145.997 278.606 146.077C280.786 146.113 294.878 143.615 303.165 138.707C307.57 136.096 310.611 131.775 309.051 127.819C299.573 103.866 282.021 101.344 273.146 110.648Z" fill="#FFD58C"/>
<path fill-rule="evenodd" clip-rule="evenodd" d="M236.1 77.7261C231.559 76.7609 217.921 76.6083 214.105 81.9366C212.398 84.3026 212.94 87.399 216.609 92.6369C227.356 107.926 230.678 118.029 236.002 121.729C239.733 124.335 245.86 123.238 254.063 119.322C256.292 118.263 260.145 103.151 253.955 91.5768C250.865 85.7837 246.336 79.9219 236.1 77.7261Z" fill="#FFD58C"/>
<path fill-rule="evenodd" clip-rule="evenodd" d="M297.104 159.288C288.055 158.346 286.541 164.483 288.812 166.362C296.703 172.906 296.7 171.413 299.942 181.228C301.557 186.094 307.229 185.099 310.595 174.763C314.805 161.812 298.024 159.393 297.104 159.288Z" fill="#FFD58C"/>
<path fill-rule="evenodd" clip-rule="evenodd" d="M228.374 127.712C168.38 99.3473 157.678 148.966 120.655 174.768C110.439 181.89 82.4465 207.506 99.6145 232.697C112.395 251.475 125.876 261.054 157.935 263.04C207.121 266.088 242.728 251.103 263.615 221.454C284.758 191.473 270.139 147.468 228.374 127.712Z" fill="#FFD58C"/>
<path fill-rule="evenodd" clip-rule="evenodd" d="M447.5 152.604C447.7 151.424 447.95 149.694 447.99 148.154C448.43 127.224 440.16 121.954 437.54 119.094C437.54 119.094 435.289 116.304 434.589 114.774C433.879 113.254 433.68 111.553 433.29 109.923C432.89 108.263 433.44 105.844 434.04 104.144C436.2 98.0136 441.829 91.4235 450.319 85.8035C465.199 75.9435 489.56 67.9135 507.46 65.9435C517 64.8935 525.03 65.7335 530.05 67.8235C532.86 68.9935 535.509 70.8236 536.569 71.6336C538.009 72.7436 538.85 74.7635 539.45 75.8035C541.06 78.6035 543.399 88.9236 546.589 99.1236C547.879 103.244 550.96 109.193 551.8 110.793C554.46 111.243 557.6 110.723 560.92 110.293C567.05 109.493 573.54 108.334 579.64 108.094C589.97 107.704 599.26 109.914 606.25 116.644C607.07 117.434 607.51 118.543 607.45 119.683C607.38 120.823 606.83 121.884 605.92 122.584C601.86 125.744 595.079 130.954 591.619 133.604C590.539 134.444 589.069 134.584 587.849 133.964C586.839 133.454 585.66 133.283 584.47 133.163C581.71 132.893 578.74 133.134 575.73 133.484C564.1 134.834 552 137.054 543.43 134.464C537.35 132.634 531.46 127.063 527.38 118.663C524.07 111.863 520.79 100.443 518.96 93.5435C518.47 91.6935 516.769 90.4135 514.849 90.4635C514.839 90.4635 514.82 90.4635 514.81 90.4635C510.73 90.5735 505.97 91.2535 500.93 92.3235C489.06 94.8535 475.76 99.5835 466.22 105.324C465.14 105.974 464.079 106.594 463.099 107.214C462.699 107.464 462.429 107.874 462.339 108.334C462.249 108.794 462.36 109.274 462.63 109.654C467.57 116.784 473.39 129.343 472.98 148.683C472.75 159.363 470.02 165.654 466.7 169.614L463.4 172.784L459.66 175.084C456.67 176.524 453.169 177.354 449.119 177.594C439.829 178.164 424.829 173.554 406.829 185.004C405.269 185.994 403.199 185.594 402.119 184.094C399.349 180.254 394.36 173.294 391.56 169.394C391.01 168.624 390.8 167.664 390.97 166.734C391.15 165.814 391.69 164.994 392.48 164.474C408.86 153.744 423.34 152.304 435.03 152.404C438.9 152.434 442.4 152.673 445.49 152.693C446.09 152.693 446.84 152.654 447.5 152.604Z" fill="#FFD58C"/>
<path fill-rule="evenodd" clip-rule="evenodd" d="M1242.34 451.624C1242.97 451.218 1243.72 449.457 1243.62 447.551C1243.44 444.164 1242.59 443.171 1240.84 441.894C1241.5 442.114 1242.16 441.293 1242.24 440.789C1242.38 439.804 1241.73 429.979 1239.43 427.813C1238.67 427.097 1238.57 426.876 1236.57 426.581C1236.57 426.581 1238.03 424.214 1238.02 422.264C1237.96 413.927 1232.31 415.373 1222.54 415.965C1203.49 417.114 1190.61 420.598 1156.87 421.719L1156.77 421.581C1127.22 423.634 1100.23 425.237 1074.48 424.848C996.757 423.703 992.012 423.749 984.856 422.719C983.817 422.568 982.473 422.568 982.05 423.44C981.277 425.045 981.514 427.784 981.958 429.723C982.123 430.444 982.84 431.04 983.628 431.346C983.266 431.307 982.486 431.389 981.554 432.325C980.209 433.669 979.605 437.699 979.584 440.439C979.566 442.633 980.119 444.582 981.031 446.576C981.518 447.64 982.238 448.703 983.393 449.16C982.68 449.537 981.72 449.816 981.535 450.54C980.636 454.056 982.207 463.068 982.958 465.679C983.644 468.087 984.444 468.99 985.228 469.385C985.938 469.743 986.827 470.319 986.827 470.319C986.827 470.319 984.902 471.039 984.766 471.88C984.346 474.48 986.02 482.852 988.457 487.936C989.292 489.685 990.865 489.913 990.865 489.913C990.689 490.27 989.826 490.683 989.799 491.51C989.764 492.739 992.289 497.602 992.289 497.602C992.915 498.458 993.709 499.157 994.246 499.03C994.246 499.03 992.181 500.031 992.039 501.152C991.778 503.125 992.027 507.499 994.878 510.061C995.495 510.611 1001.85 510.014 1003.19 510.068C1015.47 510.573 1019.79 512.987 1032.28 511.737C1040.58 510.908 1072.64 510.742 1083.81 509.453C1167.45 499.802 1167.56 501.335 1174.85 500.759C1195.22 499.142 1212.35 496.868 1229.15 494.824C1240.58 493.432 1255.31 494.86 1250.83 488.691C1250.05 487.632 1249.25 487.821 1249.25 487.821C1249.57 487.541 1250.08 487.354 1250.03 486.414C1249.98 485.439 1249.47 481.69 1248.3 481.047C1247.66 480.695 1247.52 480.588 1246.6 480.222C1248.04 479.348 1248.13 477.532 1247.49 474.858C1247 472.814 1245.5 469.857 1243.4 469.047C1243.65 468.824 1245.15 469.762 1246.04 467.956C1247 466.017 1246.73 456.759 1244.21 452.761C1243.72 451.988 1243.24 452.17 1242.34 451.624Z" fill="#FFBC4A"/>
<path fill-rule="evenodd" clip-rule="evenodd" d="M1057.37 318.027C1067.64 284.482 1087.67 289.777 1118.07 243.816C1149.57 196.19 1145.33 191.063 1182.05 169.985C1220.51 147.914 1240.88 138.091 1236.89 169.737C1233.33 198.016 1214.53 219.883 1208.55 247.3C1200.9 282.32 1178.85 299.98 1167.5 318.012C1159.16 331.261 1129.98 345.517 1105.84 355.64C1101.82 357.327 1087.19 363.367 1075.8 366.252C1068.29 368.151 1063.32 368.771 1061.24 366.785C1052.32 358.291 1055.37 345.451 1054.96 338.571C1054.68 333.824 1054.81 326.36 1057.37 318.027Z" fill="#FFD58C"/>
<path fill-rule="evenodd" clip-rule="evenodd" d="M1179.84 542.237C1179.81 537.5 1179.82 529.126 1168.15 534.299C1160.65 537.641 1166.08 549.868 1172.12 551.264C1183.33 553.85 1179.96 542.737 1179.82 541.584" fill="#FFBC4A"/>
<path fill-rule="evenodd" clip-rule="evenodd" d="M1155.15 551.686C1133.11 558.972 1111.78 558.28 1110.16 585.014C1109.5 596.013 1117.65 581.57 1129.51 577.268C1135.17 575.22 1161.02 576.615 1164 560.175C1165.59 551.456 1163.75 549.676 1155.15 551.686Z" fill="#FFBC4A"/>
<path fill-rule="evenodd" clip-rule="evenodd" d="M1161.5 575.04C1118.28 597.318 1140.2 692.027 1218.96 687.084C1230.12 686.38 1245.82 667.93 1231.93 646.932C1221.26 630.813 1244.3 626.152 1228.96 591.646C1228.06 589.611 1204.41 555.054 1161.5 575.04Z" fill="#FFBC4A"/>
<path fill-rule="evenodd" clip-rule="evenodd" d="M722.972 679.506C775.592 648.206 778.614 652.193 805.375 625.042C820.78 609.395 823.405 613.17 891.764 601.743C923.334 596.465 935.75 602.935 975.391 585.957C988.448 580.366 1014.4 586.347 1002.17 613.165C996.466 625.649 990.689 643.849 959.069 669.467C939.991 684.927 887.394 703.281 862.977 703.315C823.72 703.37 824.023 697.222 784.945 699.751C764.239 701.091 709.692 710.999 709.219 691.558C709.088 686.119 722.396 679.8 723.786 679.146" fill="#FFD196"/>
<path fill-rule="evenodd" clip-rule="evenodd" d="M51.3884 665.456C50.315 665.512 46.86 665.722 44.7461 666.014C39.3986 666.757 33.7601 667.353 28.0391 666.555C25.5356 666.2 23.4458 665.653 21.5976 664.924L16.5566 662.067L12.485 657.947C11.2483 656.295 10.0079 654.213 8.79309 651.448C5.04464 642.913 6.44857 631.903 13.9948 620.513C19.1261 612.757 33.1863 598.591 40.1335 594.237C41.2641 593.522 42.4169 592.657 43.3824 591.889C43.8105 591.533 43.9227 590.904 43.6521 590.413C43.135 589.516 42.5783 588.58 42.1645 587.847C38.5525 581.544 27.3672 565.805 21.4478 551.745C15.0167 536.491 12.7065 520.097 20.6735 508.413C25.2183 501.743 33.7721 492.711 38.7811 489.957L43.7646 487.884L48.8358 486.909C53.2221 486.519 57.6726 487.257 61.9506 488.891C68.0137 491.207 73.7333 495.548 77.7987 498.923C78.3828 499.412 78.765 500.122 78.8341 500.874C78.8955 501.65 78.6513 502.404 78.1624 502.988C74.7784 506.96 67.6611 515.297 64.1453 519.434C63.0277 520.753 61.0458 520.919 59.7197 519.825C58.3381 518.661 56.752 517.404 55.018 516.282C54.5215 515.965 53.7896 515.611 53.0971 515.295C52.137 514.841 51.0094 514.984 50.2077 515.649C47.9449 517.808 45.2945 521.405 43.5293 523.999C42.2516 525.851 42.93 528.221 43.4521 530.631C44.1787 534.058 45.4783 537.566 46.934 540.995C52.3814 553.937 62.8417 568.295 66.1751 574.091C71.068 582.633 74.5988 590.473 71.8491 599.001C70.1841 604.18 65.9358 610.699 54.8484 617.659C50.0765 620.647 40.5732 630.478 37.0517 635.799C36.9046 636.012 36.7579 636.264 36.6111 636.516C36.2554 637.091 36.2693 637.812 36.619 638.381C36.9687 638.951 37.6062 639.275 38.2721 639.23C42.666 638.816 46.8978 637.738 50.7544 637.737C56.8683 637.724 62.4378 639.151 67.4932 642.808C71.8073 645.938 76.0272 650.927 79.1257 659.539C85.4987 677.184 80.1436 691.825 71.0826 702.985C61.9516 714.201 48.757 721.351 43.6829 723.824C43.1362 724.064 42.5017 724.093 41.9355 723.87C41.3772 723.663 40.9343 723.22 40.6866 722.658C38.8311 718.292 34.5841 708.24 32.3281 702.858C31.4806 700.89 32.3153 698.594 34.2117 697.606C37.2316 696.005 41.7781 693.231 45.9316 689.418C51.1274 684.639 56.3377 677.885 53.103 668.93C52.6295 667.617 51.77 666.088 51.3884 665.456Z" fill="#FFD58C"/>
<path fill-rule="evenodd" clip-rule="evenodd" d="M1081.4 218.636C1080.6 219.666 1079.24 220.049 1078.03 219.583C1073.24 217.755 1061.32 213.219 1055.49 210.992C1054.66 210.676 1054.01 210.011 1053.71 209.18C1053.41 208.349 1053.5 207.419 1053.95 206.654C1054.76 205.258 1055.52 203.912 1055.52 203.912C1059.21 198.461 1068.34 185.216 1073.11 171.224C1075.53 164.144 1077.66 156.816 1074.12 151.248C1071.93 147.825 1067.57 145.831 1061.09 144.418C1055.13 143.122 1050.56 138.303 1049.54 132.287C1048.54 126.271 1051.3 120.239 1056.5 117.064C1062.77 113.259 1100.89 90.3087 1145.36 94.5298C1156.38 95.5767 1165.39 99.5985 1172.77 103.936C1173.05 104.102 1173.35 104.285 1173.65 104.468C1174.23 104.8 1174.93 104.833 1175.53 104.567C1176.12 104.301 1176.56 103.753 1176.69 103.105C1180.35 84.027 1180.1 71.0315 1182.31 61.7916C1183.92 55.0113 1186.56 49.5604 1190.75 44.8906C1195.63 39.473 1203.01 34.8531 1215.53 31.3965C1216.46 31.1306 1217.45 31.2471 1218.28 31.7456C1219.12 32.2276 1219.71 33.0418 1219.95 33.9724C1221.28 39.4897 1223.84 50.1255 1225.2 55.7758C1225.68 57.8032 1224.48 59.8638 1222.47 60.4288C1217.94 61.5921 1214.88 62.7388 1212.97 64.8493C1210.99 67.0596 1210.96 70.134 1210.46 73.9728C1209.14 84.2264 1208.63 98.0363 1204.23 117.181C1201.23 130.259 1195.72 135.76 1191.35 138.17L1187.37 139.832L1183.29 140.546L1178.88 140.38L1173.71 139.017C1170.11 137.638 1165.7 134.746 1160.49 131.439C1155.85 128.498 1150.08 124.991 1142.54 124.277C1126.77 122.781 1112.03 125.656 1100.09 129.578C1099.21 129.877 1098.52 130.575 1098.22 131.456C1097.92 132.353 1098.05 133.317 1098.58 134.098C1098.83 134.481 1099.08 134.846 1099.31 135.228C1105.08 144.285 1106.63 155.17 1104.93 166.587C1101.79 187.958 1087.3 210.56 1081.4 218.636Z" fill="#FFD196"/>
</svg>
