<svg width="1328" height="752" viewBox="0 0 1328 752" fill="none" xmlns="http://www.w3.org/2000/svg">
<path d="M876.977 698.381C871.788 697.729 864.912 696.483 861.7 695.615C858.487 694.746 850.722 693.509 844.447 692.865C833.734 691.767 832.51 691.43 824.453 687.346C811.699 680.881 804.39 679.597 774.077 678.507C746.203 677.503 738.732 676.77 728.128 673.984C718.941 671.573 715.167 669.935 712.945 667.395L711.166 665.36L716.56 660.372C733.601 644.604 764.056 630.675 798.427 622.931L811.822 619.912L838.332 620.118C852.915 620.229 869.542 620.77 875.283 621.315C884.053 622.148 886.966 622.066 893.517 620.802C903.096 618.958 912.546 615.434 924.618 609.205C933.219 604.766 943.291 600.762 953.757 597.619C956.196 596.886 963.879 595.436 970.832 594.395C977.785 593.355 985.899 592.069 988.866 591.538C991.833 591.006 998.101 590.78 1002.8 591.035C1013.57 591.623 1029.01 590.366 1042.34 587.816C1056.13 585.179 1074.2 584.949 1080.27 587.338C1084.78 589.115 1089.97 594.329 1089.97 597.092C1089.97 603.966 1068.63 620.121 1048.19 628.722C1044.74 630.174 1036.65 632.454 1030.22 633.785C1016.58 636.61 1010.43 638.833 1000.55 644.515C992.664 649.05 967.477 665.078 947.077 678.541C932.814 687.953 920.053 694.855 911.382 697.843C904.798 700.113 892.28 700.309 876.977 698.381Z" fill="#FFBC4A" fill-opacity="0.69"/>
<path d="M38.0052 529.724C37.523 527.221 37.898 525.283 39.7598 520.65C43.9452 510.228 50.3837 501.307 64.3444 486.579C72.3614 478.121 79.63 467.738 86.375 455.1C89.3709 449.485 91.5218 443.079 99.2172 416.856C104.303 399.531 109.166 384.074 110.029 382.507C112.43 378.147 115.356 375.371 131.999 361.663C140.461 354.692 152.546 343.104 152.546 343.104C156.85 338.666 169.63 331.946 176.382 330.842C185.847 329.297 211.156 317.996 244.889 300.251C274.684 284.576 278.286 283.236 280.327 287.06C281.157 288.616 280.339 290.493 272.711 304.539C268.008 313.194 263.02 322.063 261.622 324.247C257.744 330.309 253.384 338.881 249.894 347.295C246.811 354.733 241.518 363.204 238.855 364.968C238.12 365.457 236.556 366.8 235.378 367.953C230.548 372.685 222.199 378.596 212.019 384.487C191.347 396.448 180.442 405.615 157.876 430.001C138.67 450.757 138.217 451.567 134.246 472.233C129.889 494.904 126.888 500.353 113.833 509.292C104.156 515.916 98.2154 518.514 86.5442 521.228C81.2299 522.463 75.7082 523.834 74.2778 524.276C72.845 524.716 68.8897 525.836 65.4912 526.764C62.091 527.69 59.0411 528.645 58.7101 528.883C57.9159 529.456 39.9504 533.335 39.2004 533.096C38.8789 532.993 38.3406 531.476 38.0052 529.724Z" fill="#FFBC4A"/>
<path d="M626.194 665.209C625.919 665.819 622.925 668.221 619.537 670.548C616.151 672.874 611.033 676.949 608.163 679.603C605.293 682.256 602.096 684.778 601.059 685.206C598.571 686.233 582.16 688.076 573.273 688.325C566.121 688.525 544.561 686.797 532.042 685.02C524.515 683.95 504.029 681.928 490.42 680.91C485.649 680.552 478.518 679.841 474.577 679.327C470.634 678.813 466.432 678.314 465.238 678.216C463.136 678.046 453.023 675.555 450.84 674.67C450.248 674.43 448.184 673.69 446.256 673.025C442.002 671.559 437.118 667.896 436.925 666.03C436.733 664.165 439.704 660.679 442.021 660.05C443.078 659.763 445.975 659.123 448.461 658.628C454.774 657.371 467.478 652.671 468.811 651.1C469.071 650.794 467.516 649.126 465.355 647.392C463.194 645.657 460.718 643.219 459.853 641.973C451.357 629.752 449.646 625.989 450.095 620.525C450.376 617.112 453.056 609.917 455.293 606.572C456.745 604.402 457.07 604.23 460.416 603.866C464.318 603.442 475.032 605.398 477.694 607.021C478.524 607.527 482.915 609.039 487.449 610.38C496.593 613.086 503.492 613.867 517.936 613.836C529.148 613.809 537.447 614.178 541.691 614.89C546.372 615.673 554.803 618.698 558.067 620.766C559.551 621.705 562.35 623.493 564.286 624.737C568.846 627.666 573.892 629.512 579.651 630.356C595.452 632.669 601.075 634.454 608.879 639.633C616.257 644.528 621.258 650.652 624.938 659.297C626.89 663.882 626.858 663.733 626.194 665.209Z" fill="#FFBC4A"/>
<path d="M1079.43 297.364C1076.43 296.724 1073.26 293.656 1073.27 291.411C1073.29 288.656 1076.83 273.834 1078.28 270.504C1079.12 268.57 1081.35 264.523 1083.24 261.512C1087.11 255.356 1089.26 250.336 1091.6 242.019C1093.94 233.72 1097.1 226.284 1102.13 217.229C1109.29 204.32 1113.75 198.587 1129.1 182.547C1142.46 168.58 1144.08 167.149 1149.7 164.236C1157.45 160.226 1159.05 159.72 1159.05 161.284C1159.05 161.938 1159.37 162.471 1159.77 162.471C1160.17 162.471 1160.41 162.046 1160.31 161.524C1160.21 161.004 1161.56 159.895 1163.3 159.062C1186.73 147.88 1201.33 137.017 1211.42 123.265C1224.84 104.978 1230.3 97.3979 1232.25 94.3444C1235.26 89.6209 1244.27 79.6985 1248.56 76.3951C1250.54 74.8632 1254.17 72.5127 1256.61 71.1698C1263.42 67.4336 1264.32 66.8749 1269.35 63.22C1272.28 61.0949 1276.88 58.785 1281.61 57.0703C1285.77 55.5608 1291.07 53.6064 1293.39 52.7287C1295.71 51.849 1299.7 50.9064 1302.25 50.6321L1306.88 50.1323L1310.18 53.838C1314.5 58.6854 1316.63 63.6832 1317.69 71.442C1318.95 80.6229 1318.32 86.7786 1315.77 90.3136C1314.64 91.8739 1306.72 100.651 1298.16 109.817C1289.6 118.984 1281.34 128.516 1279.8 130.999C1276.72 135.972 1268.41 145.901 1255.68 159.819C1251.1 164.819 1245.49 171.637 1243.19 174.971C1235.5 186.147 1226.18 199.936 1223.48 204.139C1219.32 210.624 1207.83 224.933 1199.83 233.592C1192.89 241.108 1185.95 246.602 1174.91 253.314C1170.07 256.256 1170.01 256.297 1160.55 262.794C1156.36 265.677 1148.71 270.65 1143.55 273.844C1138.4 277.04 1132.56 280.719 1130.58 282.025C1128.59 283.33 1124.05 285.398 1120.48 286.623C1116.91 287.848 1111.24 290.235 1107.87 291.931C1104.5 293.626 1099.96 295.491 1097.77 296.074C1092.61 297.459 1083.04 298.132 1079.43 297.364Z" fill="#FFBC4A" fill-opacity="0.48"/>
<path fill-rule="evenodd" clip-rule="evenodd" d="M1214.36 443.589C1214.94 444.892 1216.84 445.11 1217.71 444.983C1257.04 439.516 1243.95 420.363 1240.34 418.226C1231.61 413.031 1207.91 428.726 1214.36 443.589Z" fill="#FFBC4A"/>
<path fill-rule="evenodd" clip-rule="evenodd" d="M1207.57 448.99C1207.52 442.291 1207.54 430.452 1191.07 437.766C1180.48 442.491 1188.14 459.779 1196.67 461.752C1212.49 465.409 1207.73 449.696 1207.54 448.066" fill="#FFBC4A"/>
<path fill-rule="evenodd" clip-rule="evenodd" d="M1233.96 476.573C1294.97 508.072 1264.02 641.98 1152.84 634.992C1137.08 633.997 1114.92 607.91 1134.53 578.221C1149.59 555.43 1117.07 548.84 1138.72 500.053C1139.99 497.174 1173.37 448.314 1233.96 476.573Z" fill="#FFBC4A"/>
<path fill-rule="evenodd" clip-rule="evenodd" d="M1223.9 451.674C1214.54 457.449 1217.61 464.455 1221.17 464.581C1233.56 465.034 1232.45 463.604 1242.79 470.628C1247.93 474.104 1252.63 468.962 1248.23 456.562C1242.72 441.029 1224.86 451.095 1223.9 451.674Z" fill="#FFBC4A"/>
<path fill-rule="evenodd" clip-rule="evenodd" d="M161.121 575.884C186.028 566.129 215.23 571.531 227.809 587.599C234.652 596.32 240.654 609.167 247.001 617.531C255.18 628.297 265.736 628.984 278.488 637.543C280.679 639.003 318.8 663.287 293.932 703.008C274.035 734.78 185.134 745.325 129.579 682.71C118.796 670.548 83.4869 606.286 161.121 575.884Z" fill="#FFD58C"/>
<path fill-rule="evenodd" clip-rule="evenodd" d="M157.323 532.123C138.26 549.934 116.185 559.268 127.084 587.307C131.565 598.844 133.105 580.268 143.176 570.297C147.986 565.543 174.999 554.8 170.328 536.621C167.856 526.976 165.14 526.028 157.323 532.123Z" fill="#FFD58C"/>
<path fill-rule="evenodd" clip-rule="evenodd" d="M77.3035 591.056C81.603 603.849 83.7496 608.655 88.51 609.198C90.3487 609.411 93.8437 607.132 96.5626 605.782C101.857 603.148 108.007 605.647 109.886 602.23C110.891 600.388 115.065 587.263 114.593 578.009C114.341 573.089 112.024 568.567 107.961 568.13C83.3458 565.506 73.3551 579.336 77.3035 591.056Z" fill="#FFD58C"/>
<path fill-rule="evenodd" clip-rule="evenodd" d="M369.365 611.303C350.655 571.702 353.694 569.819 336.189 548.92C326.1 536.887 328.962 535.273 325.45 485.804C323.827 462.958 329.268 454.551 319.868 425.164C316.772 415.484 322.779 397.402 341.029 407.928C349.523 412.835 362.079 418.181 378.166 442.438C387.874 457.074 397.378 495.783 395.753 513.179C393.141 541.148 388.789 540.516 387.949 568.525C387.505 583.366 390.869 622.893 377.009 621.916C373.131 621.641 369.535 611.733 369.164 610.699" fill="#FFBC4A"/>
<path fill-rule="evenodd" clip-rule="evenodd" d="M628.546 107.396C628.612 107.569 628.777 107.695 628.959 107.742C629.157 107.789 629.356 107.758 629.504 107.632C630.066 107.191 630.611 106.735 631.074 106.294C634.262 103.273 637.516 99.3387 640.803 95.0269C643.347 91.675 645.907 88.0872 648.401 84.4678C659.337 68.684 669.991 52.5855 676.945 47.4239L680.761 45.0949L684.263 43.8201L687.996 43.2852L692.308 43.7101C698.998 45.268 708.248 50.3193 717.267 57.1962C729.54 66.5594 741.549 79.0858 746.307 87.1429C747.612 89.3775 748.503 91.4074 749.032 93.1699L749.792 98.9138L748.983 103.116L746.406 107.616C743.069 111.519 735.09 116.256 726.831 120.819C725.559 121.512 724.122 122.377 722.718 123.274C724.089 123.494 725.559 123.667 727.145 123.809C737.221 124.753 750.453 124.454 766.724 124.627C767.351 124.627 767.963 124.879 768.409 125.32C768.855 125.745 769.102 126.327 769.086 126.941C769.02 131.662 768.855 142.457 768.788 147.288C768.772 148.626 767.616 149.68 766.228 149.664C745.134 149.428 728.781 149.79 717.432 147.823C705.341 145.73 697.478 140.978 692.869 133.692L690.474 127.712L690.524 121.338L692.968 115.248C694.191 113.281 695.892 111.267 698.089 109.3C702.5 105.381 709.487 101.416 716.16 97.7651C717.218 97.1828 717.944 96.1914 718.159 95.0584C718.374 93.9254 718.06 92.7608 717.283 91.8638C716.144 90.5262 714.955 89.22 713.782 88.0555C707.125 81.4462 698.898 74.3177 692.043 70.5094C691.184 70.0688 690.111 70.2733 689.516 70.9972C687.071 73.9871 684.379 77.7482 681.521 81.8869C671.825 95.9397 660.328 113.801 649.839 123.856C638.474 134.73 626.58 137.122 617.446 132.543C613.613 130.623 609.732 127.287 606.511 121.622C603.537 116.366 600.812 108.34 598.929 96.7421C595.84 77.575 599.094 62.0902 601.109 53.0417C601.473 51.3894 603.174 50.3195 604.908 50.6657C609.93 51.6571 619.676 53.5769 624.565 54.5368C625.342 54.6942 626.035 55.1349 626.465 55.7643C626.911 56.4095 627.059 57.1806 626.894 57.9202C625.193 65.3007 622.451 77.6696 624.929 92.934C625.92 99.0713 627.093 103.839 628.546 107.396Z" fill="#FFBC4A"/>
<path fill-rule="evenodd" clip-rule="evenodd" d="M964.228 520.335C963.247 519.897 960.075 518.51 958.059 517.808C952.96 516.036 947.668 514 942.937 510.683C940.869 509.226 939.256 507.787 937.942 506.295L934.753 501.451L933 495.923C932.65 493.888 932.492 491.466 932.668 488.447C933.211 479.128 939.467 469.949 951.365 463.227C959.461 458.647 978.422 452.416 986.588 451.697C987.92 451.574 989.339 451.328 990.549 451.082C991.092 450.96 991.477 450.451 991.46 449.889C991.407 448.854 991.337 447.765 991.302 446.923C990.951 439.657 988.148 420.528 989.269 405.294C990.478 388.762 995.876 373.089 1008.28 366.298C1015.36 362.419 1027.09 358.259 1032.8 358.084L1038.18 358.505L1043.14 359.944C1047.22 361.594 1050.85 364.279 1053.91 367.684C1058.26 372.51 1061.38 378.986 1063.46 383.848C1063.76 384.55 1063.78 385.357 1063.5 386.059C1063.2 386.778 1062.64 387.34 1061.94 387.638C1057.12 389.639 1046.99 393.834 1041.98 395.922C1040.39 396.589 1038.55 395.834 1037.86 394.255C1037.16 392.588 1036.32 390.745 1035.29 388.955C1034.99 388.446 1034.5 387.796 1034.03 387.2C1033.38 386.357 1032.31 385.971 1031.29 386.199C1028.29 387.094 1024.3 389.095 1021.55 390.605C1019.57 391.675 1019.09 394.097 1018.46 396.484C1017.55 399.871 1017.11 403.592 1016.85 407.312C1015.82 421.335 1018.6 438.903 1018.94 445.589C1019.41 455.435 1018.99 464.035 1012.66 470.388C1008.83 474.249 1002.08 478.127 989.041 479.286C983.434 479.777 970.501 484.217 964.946 487.359C964.718 487.482 964.473 487.64 964.228 487.798C963.65 488.149 963.334 488.798 963.387 489.465C963.439 490.132 963.86 490.711 964.473 490.974C968.574 492.606 972.832 493.571 976.267 495.326C981.717 498.099 986.027 501.908 988.866 507.471C991.285 512.227 992.774 518.598 991.617 527.689C989.269 546.327 977.844 556.945 964.701 562.772C951.471 568.616 936.47 568.985 930.827 568.879C930.232 568.844 929.654 568.581 929.25 568.125C928.847 567.686 928.655 567.089 928.69 566.475C929.023 561.736 929.811 550.838 930.249 545.011C930.39 542.87 932.177 541.203 934.315 541.185C937.732 541.132 943.042 540.729 948.474 539.22C955.273 537.324 962.984 533.674 964.175 524.214C964.35 522.828 964.28 521.073 964.228 520.335Z" fill="#FFD58C"/>
<path fill-rule="evenodd" clip-rule="evenodd" d="M8.16081 341.546C3.043 330.099 3.72295 316.855 10.1107 303.527C13.4762 296.506 17.0097 293.913 25.4724 292.257C48.6185 287.727 55.0915 287.694 60.2901 292.078C63.9132 295.134 65.5188 297.561 66.1879 300.993C66.8311 304.292 63.1145 318.447 60.2977 323.443C55.6159 331.74 41.9497 343.107 33.0654 346.091C19.2837 350.723 11.6392 349.326 8.16081 341.546ZM28.4719 264.857C28.6643 262.475 29.3394 261.596 32.6605 259.39C35.8925 257.24 37.1123 256.908 39.3304 257.568C41.7061 258.272 42.5426 259.203 46.0119 265.005C48.1919 268.652 50.1318 272.357 50.3218 273.239C51.1879 277.244 45.7418 278.9 42.1604 275.724C41.0938 274.78 38.2432 273.221 35.8253 272.264C29.7646 269.862 28.1948 268.28 28.4719 264.857ZM65.2855 283.17C66.2484 279.147 73.1162 265.142 75.5122 262.32C80.1559 256.851 89.3971 256.071 99.3129 260.309C104.551 262.547 106.117 264.533 105.307 267.913C104.768 270.159 103.482 271.256 92.9855 278.416C80.1896 287.142 75.8127 289.074 70.1112 288.508C65.9536 288.092 64.4947 286.479 65.2855 283.17Z" fill="#FFBC4A"/>
<path d="M909.7 157.053C907.453 155.757 901.613 150.406 896.722 145.162C891.827 139.917 886.779 134.708 885.495 133.581C884.214 132.454 869.58 119.316 852.976 104.381C820.913 75.5495 818.039 73.0736 798.387 57.3933C786.27 47.725 786.026 46.7666 792.878 35.6031C806.464 13.4669 813.664 5.41375 823.857 0.967874C828.452 -1.03765 828.909 -0.851247 847.641 10.7382C850.338 12.4065 855.531 15.499 859.187 17.6155C862.846 19.7319 873.095 26.3875 881.967 32.4085C895.927 41.8771 901.705 46.4205 919.298 61.7681C924.379 66.2007 926.143 67.6471 930.469 70.9394C947.156 83.6337 974.054 111.152 976.971 118.513C978.948 123.505 976.169 126.491 960.945 135.715C926.577 156.538 916.256 160.833 909.7 157.053Z" fill="#FFBC4A"/>
<path fill-rule="evenodd" clip-rule="evenodd" d="M1093.54 7.48313C1093.51 3.77819 1093.52 -2.77049 1084.42 1.2749C1078.56 3.88839 1082.8 13.4511 1087.52 14.5426C1096.26 16.5653 1093.63 7.87364 1093.52 6.97244" fill="#FFBC4A"/>
<path fill-rule="evenodd" clip-rule="evenodd" d="M1074.27 14.8728C1057.05 20.5704 1040.39 20.0297 1039.13 40.9376C1038.61 49.5391 1044.98 38.2441 1054.24 34.8796C1058.66 33.2774 1078.84 34.3688 1081.17 21.5117C1082.41 14.6926 1080.97 13.3007 1074.27 14.8728Z" fill="#FFBC4A"/>
<path fill-rule="evenodd" clip-rule="evenodd" d="M1079.22 33.1373C1045.47 50.5606 1062.59 124.629 1124.09 120.764C1132.81 120.213 1145.07 105.784 1134.22 89.3623C1125.89 76.7555 1143.88 73.1107 1131.9 46.1247C1131.2 44.5326 1112.73 17.5065 1079.22 33.1373Z" fill="#FFBC4A"/>
<path fill-rule="evenodd" clip-rule="evenodd" d="M421.725 46.5629C428.627 50.7023 431.461 52.0516 433.831 50.4547C434.747 49.8392 435.451 47.4523 436.162 45.7871C437.545 42.5424 441.302 41.2946 440.832 39.0166C440.576 37.7919 437.39 30.2213 433.594 26.2058C431.575 24.0712 428.774 22.9166 426.762 24.2914C414.578 32.6318 415.397 42.7746 421.725 46.5629Z" fill="#FFD58C"/>
<path fill-rule="evenodd" clip-rule="evenodd" d="M408.017 71.4769C408.054 74.1408 409.702 81.7935 413.165 83.2546C414.704 83.9103 416.366 83.2145 418.828 80.4975C426.008 72.5447 431.233 69.4053 432.625 65.9568C433.607 63.5384 432.215 60.2478 428.984 56.1531C428.109 55.0393 419.173 54.7974 413.49 59.7285C410.645 62.1923 407.943 65.4696 408.017 71.4769Z" fill="#FFD58C"/>
<path fill-rule="evenodd" clip-rule="evenodd" d="M445.867 26.9814C446.49 32.1656 450.112 32.2352 450.874 30.7258C453.529 25.4798 452.695 25.6704 457.77 22.6121C460.284 21.0914 459.007 18.0431 452.803 17.4687C445.03 16.7542 445.809 26.4533 445.867 26.9814Z" fill="#FFD58C"/>
<path fill-rule="evenodd" clip-rule="evenodd" d="M436.924 69.4454C428.691 106.615 457.781 106.317 476.902 123.767C482.18 128.581 500.051 141.001 511.949 128.2C520.82 118.668 524.462 109.909 521.5 91.7156C516.957 63.8021 504.061 45.774 484.838 37.842C465.398 29.809 442.661 43.5672 436.924 69.4454Z" fill="#FFD58C"/>
<path fill-rule="evenodd" clip-rule="evenodd" d="M288.515 141.606C346.811 115.175 346.376 113.864 351.889 113.173C366.163 111.364 393.651 122.187 394.05 130.798C395.309 158.39 386.916 155.75 365.579 173.093C352.979 183.335 352.637 184.343 305.741 203.175C279.455 213.73 258.281 214.394 243.751 213.438C238.772 213.109 231.69 208.051 229.475 205.949C223.935 200.68 220.389 190.265 218.685 186.306C215.652 179.266 215.829 175.398 221.387 171.149C236.749 159.414 275.525 147.482 288.515 141.606Z" fill="#FFBC4A"/>
<path fill-rule="evenodd" clip-rule="evenodd" d="M1320.44 364.941C1308.99 370.031 1295.77 369.308 1282.48 362.868C1275.49 359.475 1272.91 355.928 1271.29 347.447C1266.85 324.252 1266.84 317.769 1271.23 312.576C1274.3 308.957 1276.73 307.357 1280.16 306.698C1283.45 306.064 1297.57 309.831 1302.55 312.668C1310.82 317.383 1322.12 331.106 1325.07 340.013C1329.65 353.831 1328.22 361.482 1320.44 364.941ZM1243.93 344.357C1241.56 344.156 1240.68 343.477 1238.49 340.144C1236.36 336.901 1236.03 335.678 1236.69 333.458C1237.41 331.081 1238.34 330.247 1244.15 326.79C1247.8 324.619 1251.5 322.687 1252.38 322.5C1256.39 321.645 1258.02 327.105 1254.84 330.682C1253.89 331.747 1252.32 334.597 1251.36 337.015C1248.94 343.078 1247.35 344.645 1243.93 344.357ZM1262.35 307.545C1258.34 306.568 1244.38 299.645 1241.57 297.237C1236.13 292.569 1235.38 283.311 1239.65 273.394C1241.9 268.155 1243.89 266.593 1247.26 267.414C1249.5 267.961 1250.6 269.253 1257.71 279.788C1266.37 292.631 1268.29 297.021 1267.7 302.729C1267.27 306.892 1265.66 308.348 1262.35 307.545Z" fill="#FFBC4A"/>
<path fill-rule="evenodd" clip-rule="evenodd" d="M76.0541 127.182C76.514 127.242 76.9739 127.112 77.3239 126.812C77.6738 126.511 77.8838 126.081 77.8938 125.62C78.2538 111.231 77.8239 89.522 78.9937 72.8998C79.8336 60.9739 81.8132 51.2109 84.4528 46.2543L86.2723 43.5808L89.2019 40.8772L95.5707 37.9032C100.52 36.5114 109.138 36.1309 118.857 37.9132C137.413 41.3378 159.47 52.6128 166.828 72.9099C171.658 86.2476 170.908 104.202 156.52 127.212C155.94 128.143 155.39 129.235 154.941 130.206C154.381 131.418 154.65 132.85 155.62 133.761C156.64 134.732 157.87 135.864 158.91 136.715C165.849 142.433 174.647 149.612 181.996 162.219C192.614 180.473 186.895 195.343 176.577 207.019C170.898 213.437 163.439 218.494 158.77 222.249C157.24 223.631 154.911 223.571 153.461 222.119C149.751 218.414 142.932 211.615 139.503 208.19C138.963 207.649 138.673 206.909 138.693 206.148C138.713 205.387 139.043 204.656 139.613 204.145C143.152 201.251 148.572 197.526 153.581 192.95C158.36 188.594 163.759 183.087 159.32 175.467C152.261 163.33 143.062 158.094 137.533 152.987C131.824 147.71 128.515 142.242 127.735 135.694C127.065 130.036 128.285 122.846 134.274 113.264C142.443 100.196 144.842 90.283 142.373 82.5327C139.733 74.2416 131.854 69.5254 124.126 66.5714C119.167 64.6789 112.568 63.8378 108.018 63.4774C106.959 63.3973 106.019 64.1382 105.859 65.1896C105.139 70.2363 104.949 77.0153 104.679 84.295C103.909 105.513 104.549 130.376 103.249 140.25L102.32 143.804L100.62 146.868L98.1403 149.562L94.4911 151.905C91.4416 153.347 84.9525 154.819 73.8345 153.397C63.4863 152.075 47.2593 148.37 23.2534 140.38C22.4336 140.109 21.7535 139.519 21.3636 138.748C20.9837 137.977 20.9238 137.075 21.1937 136.254C22.7035 131.798 25.4729 123.567 27.1627 118.591C27.9325 116.308 30.3921 115.066 32.6817 115.817C52.8582 122.486 66.8257 125.871 76.0541 127.182Z" fill="#FFBC4A"/>
</svg>
