<svg width="352" height="239" viewBox="0 0 352 239" fill="none" xmlns="http://www.w3.org/2000/svg">
<g clip-path="url(#clip0_809_663)">
<path fill-rule="evenodd" clip-rule="evenodd" d="M0 0.0323851L0.0609543 221.886L25.1196 238.862L351.09 157.934V157.844H351.353L351.353 0L0 0.0323851Z" fill="#FFBC4A"/>
<path fill-rule="evenodd" clip-rule="evenodd" d="M61.8079 145.306C57.6602 145.382 53.509 145.457 49.3505 145.529L48.9512 124.564C49.1419 116.157 37.181 115.661 37.3033 125.762C37.3033 125.762 37.9688 176.192 37.994 190.07C37.994 196.474 37.7889 207.956 43.5985 206.827C49.6347 205.654 49.9441 201.161 50.1743 192.207L49.775 169.883L44.5842 170.821L44.4619 163.875C50.0268 162.972 56.0271 162.505 61.8079 161.828C62.0561 178.451 64.1677 201.384 54.8436 210.636C48.3469 217.993 31.9469 219.144 27.159 218.075C22.3674 217 18.5255 213.266 17.6838 206.647C15.8851 192.517 17.8025 180.34 17.5147 164.059C17.3888 157.001 17.5543 150.026 17.4248 142.612C17.306 135.399 16.7521 127.28 17.9356 122.323C19.8889 114.082 28.5115 108.366 37.681 108.06C47.7498 107.725 56.671 109.182 60.1388 116.075C63.7684 123.284 61.5525 133.654 61.8079 145.306Z" fill="white"/>
<path fill-rule="evenodd" clip-rule="evenodd" d="M109.569 174.603C109.091 184.215 110.641 194.614 105.947 199.877C101.055 205.37 81.6581 210.748 72.7297 205.683C63.9883 200.722 66.5784 186.056 66.3374 172.469C65.974 151.699 66.6036 128.532 66.3949 108.999C66.6287 108.758 66.5496 108.208 66.9561 108.125L80.8667 108.165C81.1258 130.648 80.2264 154.249 80.6437 177.725C80.748 183.873 79.6401 195.201 83.6007 197.956C87.6188 200.755 94.191 197.841 95.7019 193.974C97.4646 189.467 96.3026 178.506 96.1911 172.811C95.8458 152.429 96.4178 127.147 96.5149 108.183L109.555 108.244C108.965 128.457 110.645 152.764 109.569 174.603Z" fill="white"/>
<path fill-rule="evenodd" clip-rule="evenodd" d="M240.18 169.988L239.953 107.695L249.792 107.515L249.788 156.197L261.055 153.973L261.238 164.686L240.18 169.988Z" fill="white"/>
<path fill-rule="evenodd" clip-rule="evenodd" d="M278.851 160.899C275.873 162.036 270.747 163.284 267.556 161.399C262.434 158.331 263.426 146.449 262.948 136.294L262.444 107.868L270.589 107.681L271.301 143.356C271.376 147.777 271.502 153.165 274.7 152.619C279.621 151.802 279.107 146.205 279.039 141.546L278.495 107.588L286.312 107.451L286.945 142.794C286.647 151.867 285.568 158.331 278.851 160.899Z" fill="white"/>
<path fill-rule="evenodd" clip-rule="evenodd" d="M315.231 151.007L315.044 107.531L334.595 107.128C334.613 108.952 334.689 112.988 334.689 112.988L323.037 113.697L323.087 119.028L334.674 118.132L334.764 125.006L323.195 125.938L323.447 140.137L335.002 138.482L335.153 147.176L315.231 151.007Z" fill="white"/>
<path fill-rule="evenodd" clip-rule="evenodd" d="M130.147 175.41L136.594 130.088L143.731 172.852L130.147 175.41ZM146.929 108.17L131.579 108.436C131.579 108.436 120.212 169.043 114.935 199.713L126.766 197.49L129.036 184.134L145.022 180.648L147.547 192.199L162.829 188.159L146.929 108.17Z" fill="white"/>
<path fill-rule="evenodd" clip-rule="evenodd" d="M186.687 159.917C186.489 168.486 187.338 176.777 179.143 176.277L178.978 118.458C178.967 117.958 179.028 116.602 180.888 116.383C182.791 116.156 185.41 117.012 186.169 119.52C186.823 121.635 186.993 145.96 186.687 159.917ZM198.853 142.902C198.676 133.973 199.9 121.62 198.079 115.958C194.705 105.462 176.816 107.641 166.938 108.106C166.384 133.973 166.553 161.115 166.88 186.886C171.341 186.04 183.741 184.422 191.075 180.522C198.579 176.54 198.989 168.738 199.097 157.388C199.137 152.776 198.928 147.963 198.853 142.902Z" fill="white"/>
<path fill-rule="evenodd" clip-rule="evenodd" d="M214.74 157.109L218.308 129.806L222.819 155.811L214.74 157.109ZM225.305 107.366L213.883 107.863L201.793 179.071L212.563 176.52L213.952 165.728L223.844 163.908L225.463 173.441L237.007 170.916L225.305 107.366Z" fill="white"/>
<path fill-rule="evenodd" clip-rule="evenodd" d="M304.453 129.935C302.54 131.471 300.443 131.644 298.18 131.547L297.831 116.971C299.96 117.118 303.227 116.543 304.486 118.007C306.216 120.032 306.63 128.191 304.453 129.935ZM310.436 111.086C306.475 105.938 298.342 107.398 289.586 107.395L289.802 157.231L298.701 155.393L298.457 138.544C303.414 138.439 309.299 137.202 311.483 133.13C314.166 128.169 313.519 115.082 310.436 111.086Z" fill="white"/>
</g>
<defs>
<clipPath id="clip0_809_663">
<rect width="351.353" height="238.862" fill="white"/>
</clipPath>
</defs>
</svg>
