<svg width="185" height="126" viewBox="0 0 185 126" fill="none" xmlns="http://www.w3.org/2000/svg">
<path fill-rule="evenodd" clip-rule="evenodd" d="M0 0.0169916L0.031981 116.417L13.1795 125.324L184.207 82.8634V82.8163H184.345L184.345 0L0 0.0169916Z" fill="#FFBC4A"/>
<path fill-rule="evenodd" clip-rule="evenodd" d="M32.4288 76.2381C30.2526 76.2777 28.0746 76.3173 25.8928 76.3551L25.6833 65.3554C25.7833 60.9446 19.5077 60.6841 19.5719 65.9839C19.5719 65.9839 19.9211 92.4432 19.9343 99.7247C19.9343 103.084 19.8267 109.109 22.8748 108.516C26.0419 107.901 26.2042 105.544 26.325 100.846L26.1155 89.1327L23.392 89.6253L23.3278 85.9808C26.2476 85.507 29.3958 85.2617 32.4288 84.9068C32.559 93.6285 33.6669 105.661 28.7748 110.515C25.3662 114.375 16.7616 114.979 14.2495 114.418C11.7355 113.854 9.71975 111.895 9.2781 108.422C8.33441 101.008 9.34039 94.6193 9.18939 86.077C9.12334 82.374 9.21015 78.7143 9.14221 74.8244C9.07992 71.0402 8.78927 66.7804 9.41022 64.1796C10.4351 59.8556 14.9591 56.8565 19.7701 56.6961C25.0529 56.5205 29.7336 57.2849 31.553 60.9012C33.4574 64.6835 32.2948 70.1248 32.4288 76.2381Z" fill="white"/>
<path fill-rule="evenodd" clip-rule="evenodd" d="M57.4881 91.6094C57.2371 96.6525 58.0505 102.109 55.5875 104.87C53.0206 107.752 42.8438 110.574 38.1593 107.916C33.573 105.314 34.9319 97.6188 34.8055 90.4902C34.6148 79.5924 34.9451 67.4376 34.8357 57.1891C34.9583 57.0626 34.9168 56.7739 35.1301 56.7305L42.4286 56.7512C42.5645 68.5474 42.0927 80.9306 42.3116 93.2476C42.3663 96.4732 41.785 102.417 43.863 103.862C45.9712 105.331 49.4195 103.802 50.2122 101.773C51.137 99.4081 50.5274 93.6572 50.4689 90.6695C50.2877 79.9755 50.5878 66.711 50.6387 56.7607L57.4805 56.7928C57.171 67.398 58.0524 80.1511 57.4881 91.6094Z" fill="white"/>
<path fill-rule="evenodd" clip-rule="evenodd" d="M126.015 89.1884L125.896 56.5045L131.058 56.4102L131.057 81.9522L136.968 80.7858L137.064 86.4064L126.015 89.1884Z" fill="white"/>
<path fill-rule="evenodd" clip-rule="evenodd" d="M146.306 84.4198C144.743 85.0162 142.053 85.6711 140.379 84.6821C137.692 83.0722 138.213 76.8381 137.961 71.51L137.697 56.5959L141.97 56.4977L142.344 75.215C142.384 77.5346 142.45 80.3619 144.128 80.075C146.71 79.6466 146.44 76.7098 146.404 74.2656L146.119 56.4487L150.22 56.377L150.552 74.9205C150.396 79.6805 149.829 83.0722 146.306 84.4198Z" fill="white"/>
<path fill-rule="evenodd" clip-rule="evenodd" d="M165.393 79.2294L165.295 56.4184L175.553 56.207C175.562 57.1639 175.602 59.2816 175.602 59.2816L169.489 59.6534L169.515 62.4505L175.594 61.9806L175.642 65.5873L169.572 66.0762L169.704 73.5257L175.766 72.6575L175.845 77.2193L165.393 79.2294Z" fill="white"/>
<path fill-rule="evenodd" clip-rule="evenodd" d="M68.2845 92.033L71.6667 68.2538L75.4113 90.691L68.2845 92.033ZM77.0892 56.7539L69.0357 56.8936C69.0357 56.8936 63.0715 88.6923 60.3027 104.784L66.5104 103.618L67.7013 96.6099L76.0888 94.781L77.4138 100.841L85.4314 98.7219L77.0892 56.7539Z" fill="white"/>
<path fill-rule="evenodd" clip-rule="evenodd" d="M97.9494 83.904C97.8456 88.3998 98.291 92.7502 93.9915 92.4878L93.9047 62.1519C93.899 61.8895 93.9311 61.178 94.9069 61.0628C95.9053 60.9439 97.2794 61.3931 97.6776 62.7086C98.0211 63.8184 98.1098 76.5809 97.9494 83.904ZM104.333 74.9767C104.24 70.2922 104.882 63.8109 103.927 60.8401C102.156 55.3327 92.7704 56.4765 87.5876 56.7199C87.297 70.2922 87.3857 84.5325 87.5574 98.0537C89.8978 97.6102 96.4036 96.7609 100.252 94.715C104.189 92.6256 104.404 88.5319 104.461 82.5772C104.482 80.1575 104.372 77.6322 104.333 74.9767Z" fill="white"/>
<path fill-rule="evenodd" clip-rule="evenodd" d="M112.668 82.4308L114.54 68.1056L116.907 81.7495L112.668 82.4308ZM118.211 56.332L112.219 56.5925L105.875 93.9533L111.526 92.6152L112.254 86.953L117.445 85.998L118.294 90.9996L124.351 89.6746L118.211 56.332Z" fill="white"/>
<path fill-rule="evenodd" clip-rule="evenodd" d="M159.738 68.1734C158.734 68.9794 157.634 69.07 156.446 69.019L156.263 61.3713C157.381 61.4487 159.094 61.1467 159.755 61.9149C160.663 62.9775 160.88 67.2581 159.738 68.1734ZM162.877 58.2835C160.799 55.5827 156.531 56.349 151.938 56.3471L152.051 82.4949L156.72 81.5305L156.592 72.69C159.193 72.6352 162.28 71.986 163.426 69.8494C164.834 67.2467 164.494 60.3804 162.877 58.2835Z" fill="white"/>
</svg>
