<svg width="188" height="66" viewBox="0 0 188 66" fill="none" xmlns="http://www.w3.org/2000/svg">
<path fill-rule="evenodd" clip-rule="evenodd" d="M26.4738 22.5088C24.0285 22.5533 21.5811 22.5978 19.1294 22.6403L18.8939 10.28C19.0063 5.32355 11.9545 5.03087 12.0266 10.9862C12.0266 10.9862 12.419 40.7183 12.4338 48.9006C12.4338 52.6757 12.313 59.4454 15.7381 58.7795C19.2969 58.0881 19.4793 55.4391 19.615 50.1604L19.3796 36.9984L16.3192 37.5519L16.2471 33.4566C19.5281 32.9242 23.0656 32.6485 26.4738 32.2498C26.6202 42.0502 27.8651 55.5706 22.3679 61.0254C18.5376 65.3626 8.8687 66.0413 6.04585 65.4114C3.22089 64.7772 0.955825 62.5758 0.459547 58.6734C-0.600876 50.3427 0.529535 43.1637 0.359867 33.5647C0.285638 29.4036 0.383195 25.2913 0.306845 20.9203C0.236857 16.668 -0.0897528 11.8812 0.608005 8.95868C1.75962 4.09982 6.84329 0.729796 12.2493 0.549524C18.1856 0.352285 23.4453 1.21123 25.4898 5.27477C27.6297 9.52495 26.3233 15.6393 26.4738 22.5088Z" fill="white"/>
<path fill-rule="evenodd" clip-rule="evenodd" d="M54.6316 39.7821C54.3496 45.449 55.2637 51.5804 52.496 54.6832C49.6116 57.9217 38.176 61.0924 32.9121 58.1062C27.7584 55.1816 29.2854 46.5349 29.1433 38.5244C28.9291 26.2787 29.3003 12.6204 29.1772 1.10423C29.3151 0.962136 29.2684 0.637647 29.5081 0.588867L37.7094 0.612198C37.8621 13.8675 37.3319 27.7824 37.5779 41.623C37.6394 45.2475 36.9862 51.9261 39.3213 53.5506C41.6902 55.2007 45.565 53.4828 46.4558 51.2029C47.495 48.5454 46.81 42.0832 46.7442 38.7259C46.5406 26.7092 46.8778 11.8039 46.9351 0.622802L54.6232 0.658855C54.2753 12.5759 55.2658 26.9064 54.6316 39.7821Z" fill="white"/>
<path fill-rule="evenodd" clip-rule="evenodd" d="M131.638 37.0612L131.504 0.334558L137.304 0.228516L137.302 28.9299L143.945 27.6192L144.053 33.9351L131.638 37.0612Z" fill="white"/>
<path fill-rule="evenodd" clip-rule="evenodd" d="M154.437 31.7029C152.681 32.3731 149.659 33.1091 147.777 31.9977C144.757 30.1887 145.343 23.1835 145.061 17.1964L144.764 0.437424L149.565 0.32714L149.985 21.3596C150.03 23.9661 150.104 27.1431 151.989 26.8208C154.891 26.3393 154.587 23.0393 154.547 20.2928L154.227 0.271998L158.835 0.191406L159.209 21.0287C159.033 26.3775 158.396 30.1887 154.437 31.7029Z" fill="white"/>
<path fill-rule="evenodd" clip-rule="evenodd" d="M175.884 25.8701L175.773 0.237535L187.3 0C187.311 1.07527 187.355 3.45486 187.355 3.45486L180.486 3.87267L180.516 7.01576L187.347 6.48767L187.4 10.5406L180.579 11.0899L180.728 19.4609L187.54 18.4853L187.629 23.6114L175.884 25.8701Z" fill="white"/>
<path fill-rule="evenodd" clip-rule="evenodd" d="M66.764 40.2581L70.5645 13.5375L74.7723 38.7502L66.764 40.2581ZM76.6577 0.615234L67.6081 0.772177C67.6081 0.772177 60.9062 36.5042 57.7949 54.5865L64.7704 53.2758L66.1086 45.4011L75.5337 43.346L77.0225 50.1561L86.0319 47.7744L76.6577 0.615234Z" fill="white"/>
<path fill-rule="evenodd" clip-rule="evenodd" d="M100.098 31.1234C99.9816 36.1752 100.482 41.0638 95.6508 40.769L95.5532 6.68061C95.5469 6.38581 95.5829 5.58625 96.6794 5.45688C97.8013 5.32326 99.3453 5.82803 99.7928 7.30626C100.179 8.55331 100.278 22.8945 100.098 31.1234ZM107.271 21.0918C107.167 15.8278 107.888 8.54483 106.815 5.20662C104.826 -0.982011 94.2786 0.303221 88.4548 0.57681C88.1282 15.8278 88.2278 31.8296 88.4208 47.0233C91.0507 46.5249 98.3612 45.5706 102.686 43.2716C107.11 40.9238 107.352 36.3237 107.415 29.6324C107.438 26.9135 107.315 24.0758 107.271 21.0918Z" fill="white"/>
<path fill-rule="evenodd" clip-rule="evenodd" d="M116.637 29.4677L118.741 13.3705L121.4 28.7021L116.637 29.4677ZM122.866 0.140625L116.132 0.433302L109.004 42.4154L115.354 40.9118L116.172 34.5492L122.005 33.4761L122.959 39.0963L129.765 37.6075L122.866 0.140625Z" fill="white"/>
<path fill-rule="evenodd" clip-rule="evenodd" d="M169.531 13.4474C168.403 14.353 167.166 14.4548 165.832 14.3975L165.627 5.80384C166.882 5.8908 168.808 5.55146 169.55 6.41465C170.57 7.60868 170.814 12.4188 169.531 13.4474ZM173.058 2.33414C170.723 -0.70079 165.928 0.160273 160.766 0.158152L160.893 29.5404L166.14 28.4566L165.996 18.5226C168.918 18.4611 172.388 17.7315 173.675 15.3307C175.257 12.406 174.876 4.6904 173.058 2.33414Z" fill="white"/>
</svg>
