<svg width="1544" height="768" viewBox="0 0 1544 768" fill="none" xmlns="http://www.w3.org/2000/svg">
<path d="M1140.64 634.895C1166.04 682.377 1201.32 707.065 1241.37 716.442L1229.51 767.073C1174.29 754.142 1126.94 719.518 1094.79 659.428L1140.64 634.895ZM1543.42 665.442C1522.9 683.426 1499.19 700.497 1471.9 715.962C1447.57 729.748 1422.57 741.524 1397.43 750.731L1379.55 701.902C1401.73 693.777 1424.14 683.254 1446.26 670.72C1470.5 656.99 1491.3 641.972 1509.14 626.338L1543.42 665.442ZM143.736 413.138C104.206 459.071 66.5527 493.488 29.2314 518.856L0 475.851C32.6878 453.632 67.0126 422.57 104.322 379.218L143.736 413.138ZM1093.74 345.903C1098.73 369.781 1101.24 394.443 1100.97 419.73C1100.68 447.041 1101.66 472.153 1103.78 495.19L1052 499.952C1049.7 474.962 1048.66 448.064 1048.97 419.174C1049.2 397.705 1047.08 376.797 1042.84 356.544L1093.74 345.903ZM314.484 175.329C300.874 191.024 288.088 208.35 276.286 227.397C262.266 250.026 248.598 271.261 235.24 291.181L192.052 262.22C205.029 242.867 218.359 222.161 232.083 200.011C245.311 178.661 259.734 159.096 275.199 141.262L314.484 175.329ZM934.337 107.259C973.464 137.001 1007.85 172.039 1035.08 211.458L992.302 241.018C968.487 206.551 938.064 175.409 902.869 148.656L934.337 107.259ZM534.372 53.5889C492.136 60.6033 451.272 74.1819 413.418 95.0273L388.334 49.4766C431.722 25.5838 478.251 10.1966 525.854 2.29102L534.372 53.5889ZM670.192 0C717.887 6.01938 764.843 18.4628 809.179 36.4092L789.668 84.6094C749.381 68.3019 706.788 57.0312 663.682 51.5908L670.192 0Z" fill="#FFDA95" fill-opacity="0.65"/>
<path d="M1241.37 716.442C1201.32 707.065 1166.04 682.377 1140.64 634.895L1094.79 659.428C1126.94 719.518 1174.29 754.142 1229.51 767.073L1241.37 716.442Z" fill="#FFDA95" fill-opacity="0.65"/>
</svg>
