<svg width="139" height="206" viewBox="0 0 139 206" fill="none" xmlns="http://www.w3.org/2000/svg">
<path fill-rule="evenodd" clip-rule="evenodd" d="M36.3319 158.271C35.3796 157.843 32.3008 156.491 30.3394 155.806C25.376 154.077 20.2311 152.091 15.6754 148.855C13.6847 147.434 12.1414 146.03 10.8928 144.575L7.89909 139.85L6.33916 134.458C6.05473 132.472 5.97144 130.109 6.23321 127.165C7.04358 118.074 13.4688 109.121 25.3715 102.564C33.4705 98.0955 52.3053 92.018 60.3588 91.3161C61.6725 91.1962 63.0759 90.9566 64.2725 90.7169C64.8105 90.5971 65.2048 90.1005 65.2042 89.5527C65.1832 88.5426 65.1463 87.4813 65.1368 86.6596C65.0072 79.572 62.8161 60.9117 64.3705 46.0519C66.0495 29.9252 71.8223 14.6374 84.227 8.01208C91.3055 4.22864 102.96 0.171198 108.584 1.71906e-06L113.864 0.410856L118.699 1.81457C122.666 3.42382 126.155 6.04318 129.07 9.36439C133.202 14.0723 136.078 20.3896 137.985 25.1317C138.258 25.8165 138.251 26.6038 137.954 27.2886C137.64 27.9905 137.072 28.5384 136.374 28.8294C131.574 30.781 121.487 34.8726 116.496 36.9098C114.908 37.5604 113.12 36.8243 112.495 35.2835C111.854 33.6572 111.082 31.8596 110.118 30.1134C109.84 29.6169 109.377 28.9835 108.929 28.4014C108.316 27.5797 107.276 27.2031 106.269 27.4257C103.295 28.2988 99.3062 30.2504 96.5553 31.7227C94.5759 32.767 94.0387 35.1295 93.3475 37.4578C92.3509 40.7619 91.8099 44.3913 91.4411 48.0207C90.0088 61.6992 92.229 78.8359 92.3585 85.3585C92.5322 94.9626 91.8637 103.351 85.4531 109.549C81.5639 113.315 74.813 117.098 61.9546 118.228C56.4244 118.707 43.5722 123.039 38.0152 126.103C37.7874 126.223 37.5416 126.377 37.2956 126.531C36.7164 126.874 36.387 127.507 36.4189 128.158C36.4509 128.808 36.8472 129.373 37.4427 129.63C41.4277 131.222 45.588 132.163 48.9144 133.875C54.1928 136.58 58.3201 140.295 60.9477 145.722C63.1855 150.362 64.4616 156.576 63.0547 165.444C60.1929 183.625 48.6404 193.983 35.5404 199.666C22.3536 205.367 7.58801 205.727 2.04094 205.624C1.45593 205.59 0.895087 205.333 0.51216 204.888C0.128714 204.46 -0.0433298 203.878 0.00933724 203.278C0.477185 198.656 1.57588 188.025 2.17937 182.341C2.38069 180.253 4.1879 178.626 6.29129 178.609C9.65399 178.558 14.8888 178.164 20.2768 176.692C27.0208 174.843 34.7129 171.282 36.1652 162.054C36.3787 160.702 36.3617 158.99 36.3319 158.271Z" fill="#FFD58C"/>
</svg>
