<svg width="171" height="103" viewBox="0 0 171 103" fill="none" xmlns="http://www.w3.org/2000/svg">
<path fill-rule="evenodd" clip-rule="evenodd" d="M30.6875 61.6835C30.7531 61.85 30.9172 61.9711 31.0977 62.0165C31.2947 62.062 31.4917 62.0318 31.6394 61.9106C32.1973 61.4867 32.7388 61.0476 33.1983 60.6237C36.3655 57.7167 39.5985 53.9314 42.8642 49.7829C45.3913 46.5579 47.9347 43.1058 50.4126 39.6235C61.2762 24.4373 71.8609 8.9482 78.7696 3.98203L82.5605 1.74123L86.0392 0.514734L89.748 0L94.0312 0.40883C100.677 1.90777 109.867 6.76787 118.827 13.3844C131.02 22.3931 142.95 34.4452 147.676 42.1973C148.973 44.3473 149.859 46.3004 150.384 47.9962L151.139 53.5226L150.335 57.5652L147.775 61.8955C144.46 65.6504 136.534 70.2078 128.329 74.5986C127.065 75.2648 125.637 76.0974 124.242 76.9605C125.604 77.1724 127.065 77.3391 128.64 77.4754C138.65 78.3838 151.795 78.0962 167.96 78.2627C168.583 78.2627 169.19 78.5049 169.633 78.9288C170.076 79.3376 170.322 79.8979 170.306 80.4884C170.24 85.0306 170.076 95.4171 170.011 100.065C169.994 101.352 168.846 102.367 167.467 102.352C146.511 102.124 130.265 102.473 118.991 100.58C106.979 98.5665 99.1674 93.9938 94.5889 86.9836L92.2095 81.2303L92.2588 75.0982L94.6875 69.2387C95.9018 67.3461 97.5923 65.4081 99.7748 63.5155C104.156 59.7454 111.098 55.93 117.728 52.4173C118.778 51.8571 119.5 50.9033 119.713 49.8132C119.926 48.723 119.615 47.6026 118.843 46.7395C117.711 45.4526 116.53 44.1958 115.365 43.0754C108.751 36.7163 100.579 29.8577 93.7684 26.1936C92.9151 25.7697 91.8488 25.9664 91.258 26.6629C88.8293 29.5396 86.1543 33.1583 83.3153 37.1404C73.6825 50.6611 62.261 67.8457 51.8405 77.5207C40.5503 87.9829 28.7347 90.2844 19.6598 85.8784C15.8527 84.0312 11.9964 80.8215 8.79645 75.3708C5.8426 70.3138 3.13477 62.5919 1.264 51.4331C-1.80472 32.9917 1.42821 18.0931 3.43026 9.3872C3.79129 7.79742 5.48123 6.76802 7.2043 7.10112C12.193 8.05499 21.8753 9.9021 26.7327 10.8257C27.504 10.9771 28.1931 11.4011 28.6198 12.0067C29.0628 12.6275 29.2106 13.3694 29.0464 14.081C27.3562 21.182 24.6322 33.0827 27.0937 47.7692C28.0783 53.6741 29.2434 58.2617 30.6875 61.6835Z" fill="#FFBC4A"/>
</svg>
