<svg width="216" height="116" viewBox="0 0 216 116" fill="none" xmlns="http://www.w3.org/2000/svg">
<path fill-rule="evenodd" clip-rule="evenodd" d="M56.2069 83.9262C56.4056 82.7894 56.6539 81.1227 56.6936 79.639C57.1307 59.4745 48.9163 54.3972 46.314 51.6418C46.314 51.6418 44.0789 48.9539 43.3836 47.4799C42.6784 46.0155 42.4799 44.3776 42.0925 42.8072C41.6952 41.2079 42.2415 38.8765 42.8375 37.2387C44.983 31.3329 50.5749 24.9838 59.0078 19.5694C73.7877 10.07 97.984 2.33369 115.764 0.435744C125.24 -0.575852 133.216 0.23343 138.202 2.24699C140.993 3.3742 143.625 5.13732 144.678 5.9177C146.108 6.9871 146.943 8.93314 147.538 9.93511C149.138 12.6327 151.462 22.5753 154.63 32.4023C155.912 36.3716 158.971 42.1039 159.806 43.6454C162.448 44.0789 165.566 43.5779 168.864 43.1636C174.953 42.3929 181.399 41.2754 187.458 41.0442C197.719 40.6684 206.946 42.7976 213.889 49.2815C214.704 50.0426 215.141 51.1119 215.081 52.2102C215.012 53.3085 214.465 54.3298 213.561 55.0042C209.529 58.0486 202.794 63.0681 199.358 65.6211C198.285 66.4304 196.825 66.5653 195.613 65.968C194.61 65.4766 193.438 65.3128 192.256 65.1972C189.514 64.9371 186.564 65.1683 183.575 65.5055C172.023 66.8062 160.004 68.945 151.492 66.4497C145.453 64.6866 139.602 59.3203 135.55 51.2275C132.262 44.6762 129.004 33.6739 127.186 27.0263C126.7 25.2439 125.011 24.0108 123.104 24.059C123.094 24.059 123.074 24.059 123.064 24.059C119.012 24.1649 114.284 24.82 109.278 25.8509C97.4874 28.2884 84.2769 32.8454 74.801 38.3754C73.7283 39.0017 72.6753 39.599 71.7019 40.1963C71.3046 40.4372 71.0364 40.8322 70.947 41.2754C70.8576 41.7185 70.9669 42.1811 71.2351 42.5472C76.1419 49.4164 81.9228 61.5169 81.5156 80.1496C81.2871 90.4389 78.5754 96.4989 75.2778 100.314L71.9999 103.368L68.2851 105.584C65.3152 106.971 61.8387 107.771 57.8159 108.002C48.5884 108.551 33.6892 104.11 15.8103 115.141C14.2608 116.095 12.2047 115.71 11.132 114.264C8.38064 110.565 3.42439 103.86 0.643217 100.102C0.0969155 99.3603 -0.11176 98.4354 0.0570972 97.5394C0.235887 96.6531 0.772265 95.8631 1.55695 95.3621C17.8268 85.0245 32.2095 83.6373 43.8208 83.7336C47.6648 83.7625 51.1412 83.9936 54.2105 84.0129C54.8064 84.0129 55.5514 83.9744 56.2069 83.9262Z" fill="#FFD58C"/>
</svg>
