<svg width="148" height="219" viewBox="0 0 148 219" fill="none" xmlns="http://www.w3.org/2000/svg">
<path fill-rule="evenodd" clip-rule="evenodd" d="M78.8812 14.5665C77.8153 28.2407 77.9114 33.6048 82.1435 36.1403C83.777 37.1223 87.9477 36.5068 91.0243 36.4189C97.0172 36.243 101.771 41.182 104.884 38.8223C106.555 37.5472 115.669 27.1854 118.905 18.4211C120.624 13.7604 120.256 8.58671 116.634 6.44691C94.6782 -6.49448 79.8487 2.03546 78.8812 14.5665Z" fill="#FFD58C"/>
<path fill-rule="evenodd" clip-rule="evenodd" d="M30.9019 11.2392C26.8722 13.1937 16.4658 21.1904 16.8715 27.5875C17.0423 30.4355 19.3651 32.5106 25.3748 34.3839C42.9461 39.828 51.6992 45.6754 58.0102 45.3727C62.4413 45.1711 66.3965 40.6754 70.1792 32.7621C71.2112 30.6159 64.7893 16.6208 52.9587 11.341C47.0432 8.69382 39.998 6.84907 30.9019 11.2392Z" fill="#FFD58C"/>
<path fill-rule="evenodd" clip-rule="evenodd" d="M126.646 38.2363C119.228 42.9065 121.869 48.5724 124.744 48.6748C134.741 49.0409 133.819 47.8842 142.321 53.5647C146.542 56.3756 150.213 52.2177 146.383 42.1891C141.576 29.6276 127.406 37.7678 126.646 38.2363Z" fill="#FFD58C"/>
<path fill-rule="evenodd" clip-rule="evenodd" d="M55.1635 55.4228C-7.77285 69.2559 14.7881 114.232 2.70987 156.436C-0.621392 168.083 -5.9794 204.742 22.5815 214.057C43.8588 221.01 59.9814 220.394 85.4741 202.762C124.587 175.711 142.277 142.764 139.765 107.22C137.241 71.2657 98.9841 45.7997 55.1635 55.4228Z" fill="#FFD58C"/>
</svg>
