<svg width="82" height="132" viewBox="0 0 82 132" fill="none" xmlns="http://www.w3.org/2000/svg">
<path fill-rule="evenodd" clip-rule="evenodd" d="M49.8248 15.8535C50.197 16.637 51.3439 16.7678 51.8641 16.6917C75.4535 13.4091 67.2221 1.89517 65.0058 0.610818C59.6528 -2.51298 45.6671 6.91913 49.8248 15.8535Z" fill="#FFBC4A"/>
<path fill-rule="evenodd" clip-rule="evenodd" d="M45.8742 19.1269C45.7192 15.0993 45.5139 7.98035 35.7263 12.3765C29.4308 15.2166 34.364 25.6128 39.5403 26.8001C49.1361 29.0003 45.9851 19.5514 45.8355 18.5717" fill="#FFBC4A"/>
<path fill-rule="evenodd" clip-rule="evenodd" d="M62.2748 35.8368C99.6053 54.7832 83.4054 135.3 16.2905 131.088C6.77577 130.488 -7.05211 114.8 4.22204 96.9497C12.8777 83.2463 -6.83452 79.2811 5.32156 49.9467C6.03135 48.216 25.254 18.8391 62.2748 35.8368Z" fill="#FFBC4A"/>
<path fill-rule="evenodd" clip-rule="evenodd" d="M55.7117 20.7544C50.1788 24.2242 52.157 28.4349 54.3036 28.5114C61.7678 28.7845 61.0777 27.9249 67.4319 32.1471C70.5865 34.2364 73.3227 31.147 70.4515 23.6941C66.8483 14.3588 56.278 20.4064 55.7117 20.7544Z" fill="#FFBC4A"/>
</svg>
