<svg width="99" height="117" viewBox="0 0 99 117" fill="none" xmlns="http://www.w3.org/2000/svg">
<path fill-rule="evenodd" clip-rule="evenodd" d="M54.0869 7.19983C54.0571 3.63515 54.0669 -2.6656 45.0182 1.22664C39.1976 3.74118 43.4092 12.9419 48.0974 13.992C56.7886 15.9381 54.1763 7.57555 54.067 6.70847" fill="#FFBC4A"/>
<path fill-rule="evenodd" clip-rule="evenodd" d="M34.933 14.3096C17.8288 19.7915 1.28098 19.2713 0.0294526 39.3876C-0.48705 47.6634 5.84022 36.7961 15.0379 33.559C19.4282 32.0175 39.4824 33.0675 41.7967 20.6971C43.0284 14.1362 41.5979 12.797 34.933 14.3096Z" fill="#FFBC4A"/>
<path fill-rule="evenodd" clip-rule="evenodd" d="M39.8522 31.8815C6.32917 48.6451 23.3342 119.91 84.4305 116.191C93.0918 115.661 105.269 101.778 94.4922 85.9779C86.2183 73.8484 104.087 70.3416 92.1878 44.3772C91.4925 42.8454 73.1468 16.8424 39.8522 31.8815Z" fill="#FFBC4A"/>
</svg>
