<svg width="172" height="212" viewBox="0 0 172 212" fill="none" xmlns="http://www.w3.org/2000/svg">
<path fill-rule="evenodd" clip-rule="evenodd" d="M82.7898 40.5497C109.3 42.0728 133.398 58.5782 138.081 77.7007C140.636 88.0858 140.721 101.739 142.977 111.612C145.889 124.323 155.126 129.183 163.078 141.812C164.448 143.972 188.76 180.583 149.858 205.272C118.737 225.017 34.1806 198.362 10.0402 121.208C5.35768 106.225 0.161224 35.8002 82.7898 40.5497Z" fill="#FFD58C"/>
<path fill-rule="evenodd" clip-rule="evenodd" d="M97.5287 0.809924C72.9457 8.68878 49.1623 7.94109 47.3635 36.8533C46.6212 48.7477 55.7151 33.1286 68.9345 28.4761C75.2444 26.2606 104.067 27.7697 107.394 9.99039C109.164 0.560687 107.108 -1.36403 97.5287 0.809924Z" fill="#FFD58C"/>
<path fill-rule="evenodd" clip-rule="evenodd" d="M0.882585 20.0473C-0.544999 32.9664 -0.602019 38.0343 3.4666 40.4298C5.03694 41.3575 9.13422 40.776 12.1464 40.693C18.0138 40.5268 22.5249 45.193 25.637 42.9637C27.3073 41.759 36.5152 31.9694 39.9272 23.689C41.7402 19.2857 41.526 14.3977 38.0427 12.3761C16.9287 0.149307 2.18169 8.20822 0.882585 20.0473Z" fill="#FFD58C"/>
</svg>
