<svg width="73" height="120" viewBox="0 0 73 120" fill="none" xmlns="http://www.w3.org/2000/svg">
<path fill-rule="evenodd" clip-rule="evenodd" d="M53.5181 118.983C41.2745 116.833 30.8131 109.096 23.4863 96.7752C19.6272 90.2846 19.4871 86.066 22.88 78.437C32.1606 57.5713 35.7661 52.4065 42.2719 50.6544C46.8071 49.434 49.6954 49.4762 52.8807 50.809C55.9428 52.0903 65.4455 62.7363 67.9546 67.6903C72.1203 75.9213 73.7576 92.9642 71.2147 101.65C67.2735 115.125 61.84 120.445 53.5181 118.983ZM2.13109 61.1645C0.288509 59.7169 -0.0520064 58.7027 0.00595165 54.8636C0.0590799 51.1252 0.472048 49.9752 2.25667 48.5698C4.16687 47.0636 5.39842 46.9043 12.095 47.2979C16.3042 47.5461 20.4265 48.0169 21.2549 48.3449C25.0197 49.8323 23.3196 55.0627 18.7095 56.1847C17.3378 56.5196 14.4616 57.9391 12.322 59.3422C6.95362 62.8557 4.77784 63.2445 2.13109 61.1645ZM37.7826 41.8425C35.0295 38.8911 27.4177 25.8208 26.4517 22.3822C24.5801 15.7183 29.1274 7.94637 38.1617 2.36456C42.9335 -0.58446 45.4378 -0.750757 47.7513 1.72979C49.2872 3.3788 49.4635 4.99734 49.4346 17.2338C49.3983 32.1498 48.524 36.68 44.8606 40.9056C42.1873 43.9858 40.0477 44.2692 37.7826 41.8425Z" fill="#FFBC4A"/>
</svg>
