<svg width="188" height="153" viewBox="0 0 188 153" fill="none" xmlns="http://www.w3.org/2000/svg">
<path d="M120.551 151.106C118.319 149.86 112.517 144.711 107.658 139.665C102.796 134.619 97.7804 129.608 96.5045 128.523C95.2318 127.439 80.6942 114.798 64.1987 100.429C32.3465 72.6888 29.4914 70.3067 9.96762 55.2199C-2.07033 45.9177 -2.31182 44.9956 4.49523 34.2547C17.9918 12.9566 25.1447 5.20832 35.2704 0.930762C39.8356 -0.998836 40.2893 -0.819489 58.8994 10.3312C61.5784 11.9363 66.7374 14.9118 70.3694 16.9481C74.0046 18.9844 84.186 25.388 92.9999 31.1811C106.868 40.2912 112.608 44.6626 130.086 59.4292C135.134 63.6939 136.887 65.0856 141.184 68.2532C157.761 80.4669 184.484 106.943 187.381 114.026C189.346 118.828 186.585 121.701 171.46 130.577C137.317 150.611 127.064 154.744 120.551 151.106Z" fill="#FFBC4A"/>
</svg>
