<svg width="154" height="297" viewBox="0 0 154 297" fill="none" xmlns="http://www.w3.org/2000/svg">
<path d="M1.19405 293.715C0.0217637 291.561 -0.200368 289.675 0.153675 284.888C0.947413 274.121 4.24379 264.076 12.7387 246.528C17.6169 236.45 21.2472 224.824 23.7398 211.284C24.8464 205.268 24.9478 198.771 24.3463 172.502C23.9502 155.145 23.8956 139.567 24.2291 137.88C25.1571 133.187 27.0276 129.794 38.2781 112.402C43.9982 103.558 51.6907 89.4314 51.6907 89.4314C54.3399 84.1157 64.0895 74.2499 69.955 71.2801C78.1778 67.1186 98.0717 49.421 123.805 23.3734C146.534 0.365286 149.443 -1.90826 152.43 1.00575C153.645 2.19163 153.443 4.1489 150.552 19.2368C148.769 28.5343 146.786 38.1109 146.143 40.5181C144.358 47.1996 142.864 56.3217 142.122 65.0464C141.467 72.7585 139.089 82.0588 137.164 84.4481C136.633 85.1094 135.592 86.7938 134.849 88.1924C131.804 93.93 125.878 101.77 118.268 110.121C102.816 127.08 95.4988 138.646 81.9363 167.543C70.394 192.138 70.2152 193.012 72.6081 213.108C75.232 235.153 74.072 241.018 64.7179 252.999C57.7829 261.876 53.0977 265.98 43.1946 271.852C38.6852 274.525 34.0255 277.384 32.8434 278.203C31.6589 279.022 28.3613 281.196 25.5179 283.032C22.6722 284.866 20.156 286.626 19.9222 286.94C19.3615 287.696 4.03066 296.461 3.27338 296.459C2.94883 296.458 2.0128 295.224 1.19405 293.715Z" fill="#FFBC4A"/>
</svg>
