<svg width="122" height="170" viewBox="0 0 122 170" fill="none" xmlns="http://www.w3.org/2000/svg">
<path fill-rule="evenodd" clip-rule="evenodd" d="M15.5124 165.058C11.8198 163.622 6.1501 161.248 3.85682 159.885C2.43273 159.038 0.890322 157.689 0.36899 155.718C-0.580019 152.159 0.441132 147.238 1.84902 144.249C8.07382 131.079 28.8695 112.241 44.5168 76.1457C48.5795 66.7729 69.8388 26.9404 76.2167 12.243C77.1826 10.0206 79.5405 7.22929 82.2269 5.91962C88.8093 2.7182 105.435 -2.50063 112.109 1.37547C121.439 6.80597 122.718 8.45951 121.171 17.5875C120.586 21.0271 120.563 23.1371 120.109 24.8304C115.349 42.7888 87.2679 110.085 76.8732 123.975C54.7831 153.482 60.028 156.439 52.7646 165.468C47.0011 172.631 23.9651 168.345 15.5124 165.058Z" fill="#FFD196"/>
</svg>
