<svg width="182" height="211" viewBox="0 0 182 211" fill="none" xmlns="http://www.w3.org/2000/svg">
<path fill-rule="evenodd" clip-rule="evenodd" d="M2.57688 162.322C12.7838 130.004 32.6753 135.105 62.868 90.8251C94.1561 44.941 89.9486 40.0015 126.424 19.6946C164.618 -1.56931 184.857 -11.0333 180.896 19.4553C177.356 46.7001 158.684 67.767 152.742 94.1815C145.147 127.921 123.239 144.935 111.973 162.307C103.681 175.071 74.6999 188.806 50.7242 198.559C46.727 200.184 32.1966 206.003 20.8871 208.783C13.4296 210.612 8.48922 211.21 6.42173 209.296C-2.43585 201.113 0.589328 188.743 0.183083 182.115C-0.0925826 177.541 0.0378542 170.35 2.57688 162.322Z" fill="#FFD196"/>
</svg>
