<svg width="203" height="132" viewBox="0 0 203 132" fill="none" xmlns="http://www.w3.org/2000/svg">
<mask id="mask0_191_332" style="mask-type:luminance" maskUnits="userSpaceOnUse" x="35" y="53" width="133" height="79">
<path d="M35 53.6689H167.594V131.831H35V53.6689Z" fill="white"/>
</mask>
<g mask="url(#mask0_191_332)">
<path d="M166.83 71.0709L158.74 60.4677C158.522 60.1827 158.262 59.9407 157.959 59.7462C157.656 59.5517 157.33 59.4137 156.98 59.3323C156.629 59.2509 156.276 59.2328 155.919 59.2735C155.562 59.3165 155.222 59.4182 154.899 59.5788L140.096 66.9793H132.781V63.6002C132.779 63.3967 132.761 63.1954 132.72 62.9964C132.679 62.7973 132.621 62.6051 132.544 62.4173C132.465 62.2296 132.37 62.0509 132.256 61.8836C132.143 61.7139 132.014 61.5579 131.872 61.4154C131.727 61.2706 131.571 61.144 131.402 61.0309C131.234 60.9178 131.055 60.8228 130.868 60.7459C130.68 60.6667 130.486 60.6079 130.286 60.5695C130.087 60.5288 129.886 60.5107 129.685 60.5107H113.332L106.287 54.8924C105.726 54.4446 105.086 54.2207 104.367 54.2207H85.5058C85.0828 54.2207 84.678 54.3044 84.289 54.4695C83.8999 54.6346 83.5584 54.8698 83.2666 55.1752L59.1246 80.4979L53.8818 75.2551C53.7348 75.1149 53.5764 74.9905 53.4068 74.8819C53.2372 74.7734 53.0585 74.6829 52.8708 74.606C52.683 74.5314 52.4908 74.4748 52.294 74.4386C52.095 74.4002 51.896 74.3798 51.6947 74.3798C51.4911 74.3798 51.2921 74.4002 51.093 74.4386C50.8962 74.4748 50.704 74.5314 50.5163 74.606C50.3285 74.6829 50.1499 74.7734 49.9802 74.8819C49.8106 74.9905 49.6523 75.1149 49.5053 75.2551L36.4187 88.3417C36.1292 88.6312 35.9053 88.9659 35.7469 89.3437C35.5909 89.7236 35.5117 90.1172 35.5117 90.5266V128.716C35.5117 128.92 35.5298 129.121 35.5683 129.323C35.6067 129.522 35.6633 129.716 35.7402 129.906C35.8171 130.094 35.9121 130.275 36.0251 130.444C36.1382 130.614 36.2649 130.772 36.4096 130.917C36.5521 131.062 36.7082 131.191 36.8778 131.304C37.0475 131.419 37.2261 131.514 37.4139 131.593C37.6016 131.67 37.7961 131.731 37.9974 131.77C38.1964 131.811 38.3977 131.831 38.6036 131.831H76.7912C77.2028 131.831 77.5964 131.752 77.9741 131.596C78.3541 131.44 78.6866 131.216 78.9761 130.924L92.0649 117.837C92.2074 117.693 92.3363 117.537 92.4494 117.369C92.5625 117.2 92.6575 117.023 92.7344 116.835C92.8136 116.648 92.8724 116.453 92.9108 116.254C92.9515 116.055 92.9719 115.856 92.9719 115.653C92.9719 115.449 92.9515 115.248 92.9108 115.049C92.8724 114.85 92.8136 114.657 92.7344 114.47C92.6575 114.282 92.5625 114.103 92.4494 113.936C92.3363 113.766 92.2074 113.61 92.0649 113.468L86.3404 107.736L90.9793 103.536H125.184C125.842 103.541 126.441 103.355 126.984 102.978L166.163 75.4813C166.335 75.3614 166.491 75.2257 166.633 75.0742C166.776 74.9226 166.902 74.7598 167.013 74.5811C167.122 74.4047 167.212 74.2192 167.284 74.0247C167.357 73.8279 167.409 73.6289 167.441 73.4231C167.474 73.2173 167.483 73.0092 167.474 72.8011C167.465 72.593 167.434 72.3895 167.384 72.1859C167.332 71.9846 167.262 71.7901 167.171 71.6024C167.081 71.4146 166.972 71.2382 166.848 71.0709H166.83ZM75.5088 125.625H41.6931V91.8112L51.6788 81.8142L85.5058 115.628L75.5088 125.625ZM124.218 97.3503H89.7896C88.998 97.348 88.3081 97.6127 87.7201 98.1419L81.9593 103.333L63.5011 84.8744L86.8312 60.4202H103.286L110.349 66.043C110.912 66.4885 111.552 66.7124 112.269 66.7147H126.611V71.9054L121.348 75.6261H99.8544C99.6509 75.6261 99.4496 75.6464 99.2505 75.6849C99.0515 75.7256 98.8593 75.7844 98.6715 75.8613C98.4838 75.9382 98.3051 76.0354 98.1378 76.1463C97.9681 76.2593 97.8121 76.3883 97.6673 76.5308C97.5248 76.6755 97.3959 76.8316 97.2851 76.9989C97.172 77.1686 97.077 77.3473 96.9978 77.535C96.9209 77.7204 96.8621 77.915 96.8214 78.114C96.783 78.313 96.7626 78.5143 96.7626 78.7179C96.7626 78.9192 96.783 79.1205 96.8214 79.3195C96.8621 79.5186 96.9209 79.7131 96.9978 79.8985C97.077 80.0863 97.172 80.2649 97.2851 80.4346C97.3959 80.6019 97.5248 80.758 97.6673 80.9028C97.8121 81.0452 97.9681 81.1742 98.1378 81.2873C98.3051 81.3981 98.4838 81.4953 98.6715 81.5722C98.8593 81.6491 99.0515 81.7079 99.2505 81.7487C99.4496 81.7871 99.6509 81.8075 99.8544 81.8075H122.314C122.974 81.8097 123.576 81.622 124.114 81.242L131.49 76.0219C131.899 75.7324 132.218 75.3637 132.449 74.9181C132.679 74.4726 132.797 73.9976 132.799 73.4955V73.1788C140.6 73.0816 141.091 73.4186 142.231 72.8531L155.392 66.2533L159.977 72.2538L124.218 97.3503Z" fill="#F7BA40"/>
</g>
<path d="M127.627 50.0388C127.91 50.2921 128.229 50.4866 128.584 50.6223C128.939 50.7558 129.308 50.8236 129.688 50.8236C130.068 50.8236 130.436 50.7558 130.791 50.6223C131.147 50.4866 131.465 50.2921 131.748 50.0388C132.528 49.3376 150.951 32.8109 155.273 27.2357C156.01 26.2654 156.632 25.225 157.134 24.1144C157.636 23.0016 158.007 21.8481 158.249 20.6539C158.489 19.4575 158.593 18.2519 158.559 17.0328C158.525 15.8138 158.356 14.6128 158.05 13.4344C157.706 12.0864 157.218 10.7949 156.582 9.55771C155.945 8.32278 155.178 7.17155 154.282 6.11078C153.384 5.04775 152.38 4.10007 151.267 3.26548C150.154 2.43088 148.965 1.732 147.694 1.16656C146.936 0.868004 146.16 0.625995 145.369 0.44053C144.575 0.255066 143.774 0.128407 142.962 0.0605534C142.15 -0.00729927 141.338 -0.0163468 140.526 0.035674C139.712 0.0876948 138.909 0.198522 138.113 0.368154C137.314 0.537786 136.536 0.766224 135.772 1.04895C135.01 1.33393 134.272 1.67319 133.558 2.06674C132.845 2.45803 132.164 2.90133 131.517 3.3944C130.868 3.88746 130.26 4.42576 129.69 5.00704C129.122 4.42576 128.514 3.88746 127.865 3.3944C127.218 2.89907 126.537 2.45576 125.825 2.06448C125.11 1.67093 124.373 1.33167 123.61 1.04668C122.846 0.7617 122.066 0.535524 121.269 0.36363C120.473 0.193997 119.668 0.0831708 118.856 0.0334122C118.044 -0.0186085 117.232 -0.00956103 116.42 0.0582916C115.608 0.126145 114.805 0.252804 114.014 0.438268C113.22 0.623733 112.444 0.868004 111.689 1.16656C110.417 1.732 109.228 2.43088 108.115 3.26548C107.004 4.09781 106 5.04549 105.105 6.10852C104.207 7.16928 103.442 8.31826 102.804 9.55318C102.169 10.7904 101.68 12.0818 101.336 13.4276C101.031 14.6082 100.864 15.807 100.83 17.0261C100.798 18.2451 100.9 19.4529 101.142 20.6471C101.382 21.8414 101.753 22.9949 102.255 24.1076C102.757 25.2182 103.377 26.2586 104.114 27.2289C108.4 32.8154 126.84 49.3376 127.627 50.0388ZM107.326 14.909C107.559 14.0156 107.889 13.1584 108.314 12.3374C108.741 11.5187 109.255 10.7564 109.854 10.0553C110.454 9.35189 111.125 8.72312 111.867 8.17351C112.609 7.62164 113.403 7.16024 114.251 6.78931C115.31 6.29398 116.422 6.04519 117.592 6.04519C118.533 6.15601 119.455 6.35505 120.358 6.64229C121.26 6.92954 122.127 7.30047 122.959 7.75508C123.789 8.20743 124.569 8.73669 125.3 9.34058C126.03 9.94447 126.695 10.614 127.297 11.3445C127.593 11.6996 127.951 11.9755 128.371 12.1723C128.792 12.3691 129.233 12.4663 129.697 12.4663C130.16 12.4709 130.604 12.3736 131.024 12.1768C131.443 11.9801 131.802 11.7041 132.096 11.3445C132.354 11.0392 138.536 3.74723 145.149 6.78931C145.995 7.16024 146.789 7.62164 147.533 8.17125C148.275 8.72312 148.944 9.34962 149.546 10.053C150.145 10.7564 150.659 11.5187 151.084 12.3374C151.511 13.1584 151.842 14.0156 152.075 14.909C152.267 15.6373 152.375 16.3792 152.4 17.1324C152.425 17.8878 152.364 18.6342 152.219 19.3738C152.075 20.1134 151.851 20.8281 151.543 21.5179C151.238 22.2055 150.858 22.8524 150.405 23.454C143.842 30.513 136.937 37.2168 129.69 43.5701C122.452 37.2168 115.554 30.5107 108.999 23.454C108.545 22.8524 108.165 22.2078 107.857 21.5179C107.552 20.8281 107.326 20.1156 107.181 19.3738C107.034 18.6342 106.975 17.8878 107 17.1346C107.025 16.3792 107.133 15.6396 107.326 14.909Z" fill="#F7BA40"/>
</svg>
