<svg width="166" height="180" viewBox="0 0 166 180" fill="none" xmlns="http://www.w3.org/2000/svg">
<path fill-rule="evenodd" clip-rule="evenodd" d="M54.6661 87.0434C55.123 87.1012 55.58 86.9759 55.9276 86.6869C56.2753 86.3979 56.4839 85.9836 56.4939 85.5404C56.8514 71.696 56.4244 50.8089 57.5866 34.816C58.4209 23.3416 60.3875 13.9482 63.0098 9.17926L64.8174 6.60699L67.7279 4.00567L74.0549 1.14432C78.9716 -0.194838 87.5337 -0.56093 97.1883 1.15397C115.623 4.44888 137.535 15.297 144.846 34.8256C149.643 47.6585 148.898 64.9327 134.605 87.0722C134.029 87.9682 133.483 89.0184 133.036 89.9529C132.479 91.1187 132.748 92.4963 133.711 93.373C134.724 94.3076 135.946 95.3963 136.979 96.2152C143.872 101.716 152.613 108.624 159.913 120.754C170.462 138.317 164.781 152.624 154.53 163.857C148.888 170.033 141.478 174.898 136.84 178.511C135.32 179.84 133.006 179.783 131.566 178.386C127.881 174.821 121.106 168.279 117.699 164.984C117.163 164.464 116.875 163.751 116.895 163.019C116.915 162.287 117.243 161.584 117.809 161.092C121.325 158.308 126.708 154.724 131.685 150.321C136.433 146.13 141.796 140.831 137.386 133.5C130.374 121.823 121.235 116.784 115.743 111.871C110.071 106.794 106.783 101.533 106.009 95.2325C105.343 89.7891 106.555 82.8717 112.505 73.6517C120.62 61.079 123.004 51.5411 120.55 44.0842C117.928 36.107 110.101 31.5693 102.423 28.7272C97.4962 26.9063 90.9405 26.0971 86.4211 25.7503C85.3682 25.6732 84.4346 26.3861 84.2757 27.3977C83.5606 32.2533 83.3719 38.7757 83.1037 45.7798C82.3389 66.1948 82.9744 90.1166 81.6832 99.616L80.7595 103.036L79.071 105.984L76.6077 108.576L72.9823 110.83C69.9528 112.218 63.5063 113.634 52.4611 112.266C42.1807 110.994 26.06 107.429 2.21149 99.7413C1.397 99.4811 0.721439 98.9127 0.334062 98.1709C-0.0433827 97.429 -0.102902 96.562 0.165283 95.772C1.66513 91.4847 4.41647 83.5653 6.0951 78.7771C6.85993 76.5805 9.3034 75.3858 11.578 76.1084C31.6223 82.5248 45.4982 85.7813 54.6661 87.0434Z" fill="#FFBC4A"/>
</svg>
