<svg width="175" height="182" viewBox="0 0 175 182" fill="none" xmlns="http://www.w3.org/2000/svg">
<path fill-rule="evenodd" clip-rule="evenodd" d="M31.8435 180.525C31.0511 181.518 29.6976 181.886 28.4926 181.438C23.7387 179.676 11.9033 175.306 6.10947 173.16C5.28414 172.856 4.64067 172.215 4.34355 171.415C4.04643 170.614 4.12879 169.718 4.57447 168.981C5.38329 167.637 6.14252 166.34 6.14252 166.34C9.80699 161.088 18.8693 148.328 23.6067 134.847C26.0166 128.026 28.1297 120.966 24.6137 115.602C22.4349 112.304 18.11 110.383 11.6724 109.022C5.74652 107.773 1.20727 103.13 0.20037 97.334C-0.790029 91.5382 1.94998 85.7263 7.11655 82.6683C13.3396 79.0019 51.2057 56.8911 95.3775 60.9578C106.321 61.9665 115.268 65.8411 122.597 70.0199C122.878 70.18 123.175 70.356 123.472 70.5321C124.05 70.8523 124.743 70.8845 125.337 70.6283C125.931 70.3721 126.361 69.8438 126.493 69.2193C130.124 50.8392 129.876 38.3189 132.072 29.417C133.673 22.8847 136.298 17.6332 140.457 13.1342C145.31 7.91476 152.639 3.46382 165.068 0.133617C165.993 -0.122553 166.983 -0.0103459 167.809 0.469972C168.634 0.934279 169.228 1.71874 169.459 2.61534C170.78 7.93085 173.322 18.1776 174.675 23.6212C175.154 25.5745 173.965 27.5597 171.968 28.1041C167.462 29.2248 164.425 30.3296 162.526 32.3629C160.562 34.4924 160.529 37.4543 160.034 41.1527C158.73 51.0313 158.218 64.3361 153.844 82.7803C150.873 95.3806 145.392 100.68 141.051 103.002L137.106 104.603L133.046 105.291L128.671 105.131L123.538 103.818C119.956 102.489 115.582 99.7036 110.399 96.5175C105.793 93.6836 100.065 90.3053 92.5714 89.6168C76.9066 88.1759 62.2652 90.9458 50.4134 94.7243C49.5386 95.0125 48.8455 95.6849 48.5484 96.5335C48.2513 97.3981 48.3833 98.3266 48.9115 99.0791C49.1591 99.4474 49.4066 99.7995 49.6377 100.168C55.3655 108.894 56.9004 119.38 55.2167 130.38C52.097 150.969 37.7033 172.744 31.8435 180.525Z" fill="#FFD196"/>
</svg>
