<svg width="115" height="155" viewBox="0 0 115 155" fill="none" xmlns="http://www.w3.org/2000/svg">
<path fill-rule="evenodd" clip-rule="evenodd" d="M61.9538 35.6031C43.5087 36.6628 26.742 48.1468 23.4841 61.4517C21.7061 68.6774 21.6466 78.1768 20.0772 85.046C18.0509 93.8903 11.6244 97.2719 6.09182 106.058C5.13828 107.561 -11.7772 133.034 15.2896 150.212C36.9429 163.951 95.7748 145.405 112.571 91.7226C115.829 81.2983 119.445 32.2985 61.9538 35.6031Z" fill="#FFD196"/>
<path fill-rule="evenodd" clip-rule="evenodd" d="M50.6948 29.2022C13.7648 26.3986 47.1886 1.32058 60.0019 7.21674C66.2098 10.0781 70.0736 18.1131 67.8884 23.0362C65.1271 29.2792 57.9953 29.7513 50.6948 29.2022Z" fill="#FFD196"/>
<path fill-rule="evenodd" clip-rule="evenodd" d="M77.2954 25.8219C70.9583 28.4328 74.6732 34.117 78.0801 32.6815C80.9706 31.4579 84.4768 22.8545 77.2954 25.8219Z" fill="#FFD196"/>
<path fill-rule="evenodd" clip-rule="evenodd" d="M79.063 14.0381C79.3808 14.7317 80.4236 14.8474 80.9004 14.7799C102.514 11.8704 95.3228 1.6773 93.3362 0.540462C88.5387 -2.22457 75.517 6.12834 79.063 14.0381Z" fill="#FFD196"/>
</svg>
