<svg width="301" height="301" viewBox="0 0 301 301" fill="none" xmlns="http://www.w3.org/2000/svg">
<g clip-path="url(#clip0_916_3429)">
<path d="M76.6694 157.908L114.423 238.946L117.617 245.244L161.587 224.465L210.639 200.499L231.681 163.334L224.431 106.412L188.53 72.853L136.86 64.04L89.7792 93.0959L76.6694 157.908Z" fill="#FFF5DA"/>
<path d="M122.718 234.084L184.658 202.668C196.907 196.454 207.039 186.748 213.772 174.776C220.505 162.804 223.537 149.105 222.485 135.41C221.432 121.715 216.342 108.64 207.858 97.8374C199.375 87.0352 187.878 78.9912 174.823 74.7226C161.768 70.4541 147.74 70.1526 134.514 73.8563C121.287 77.56 109.456 85.1026 100.516 95.5303C91.5758 105.958 85.9288 118.802 84.2886 132.44C82.6485 146.077 85.0889 159.894 91.3014 172.144L122.718 234.084ZM113.998 260.752L73.6077 181.118C65.6194 165.368 62.4809 147.603 64.5891 130.069C66.6973 112.535 73.9575 96.0205 85.4516 82.6129C96.9457 69.2054 112.158 59.5073 129.163 54.7451C146.169 49.9829 164.205 50.3704 180.991 55.8587C197.777 61.347 212.558 71.6895 223.465 85.5784C234.373 99.4673 240.917 116.279 242.27 133.887C243.623 151.495 239.725 169.109 231.067 184.501C222.41 199.894 209.382 212.373 193.632 220.362L113.998 260.752Z" fill="#FFBC4A"/>
</g>
<path fill-rule="evenodd" clip-rule="evenodd" d="M127.112 125.209C129.542 120.317 133.021 117.175 138.214 115.184C145.901 112.235 153.601 113.487 160.614 118.826C162.88 120.55 163.975 121.789 166.611 125.601C170.318 130.96 171.577 134.433 171.624 139.414C171.664 143.672 169.801 149.257 167.341 152.259L165.591 154.394L167.678 157.464C170.024 160.914 170.965 162.511 171.684 164.262C174.066 170.052 173.713 176.738 170.815 180.738C169.619 182.392 169.088 182.756 166.6 183.638C163.273 184.818 160.762 184.815 155.667 183.626C144.997 181.136 134.103 171.196 128.318 158.675C123.412 148.058 122.895 133.695 127.112 125.209ZM148.411 100.723C148.56 100.499 149.056 100.218 149.513 100.095C150.2 99.9133 150.571 99.9608 151.642 100.367C152.357 100.637 153.308 101.132 153.757 101.468C154.913 102.333 156.566 104.528 156.724 105.408C157.027 107.091 155.881 108.749 153.859 109.553C152.271 110.185 150.768 110.29 149.17 109.88C147.752 109.518 147.447 108.98 147.896 107.634C148.126 106.944 148.109 106.203 147.84 105.101C147.462 103.568 147.694 101.797 148.411 100.723ZM165.605 105.651C167.406 104.142 167.761 103.589 169.248 100C171.288 95.0782 172.405 94.1308 174.539 95.5142C177.054 97.1454 178.776 103.134 178.068 107.793C177.487 111.607 175.112 117.808 174.161 117.989C172.224 118.358 168.555 115.798 165.615 112.024C164.316 110.356 163.316 108.097 163.576 107.414C163.595 107.365 164.508 106.572 165.605 105.651Z" fill="#FFBC4A"/>
<defs>
<clipPath id="clip0_916_3429">
<rect width="238.109" height="238.109" fill="white" transform="translate(73.9982) rotate(18.1059)"/>
</clipPath>
</defs>
</svg>
