<svg width="257" height="211" viewBox="0 0 257 211" fill="none" xmlns="http://www.w3.org/2000/svg">
<path fill-rule="evenodd" clip-rule="evenodd" d="M227.96 24.3841C228.252 23.7072 227.916 21.8756 226.806 20.4091C224.833 17.8012 223.608 17.4827 221.485 17.4497C222.148 17.2505 222.246 16.2219 222.033 15.7773C221.622 14.908 215.794 7.41608 212.747 6.97835C211.742 6.83244 211.54 6.71305 209.747 7.60247C209.747 7.60247 209.663 4.88819 208.602 3.33539C204.063 -3.30051 200.22 1.04 192.555 7.01335C177.6 18.6614 168.956 28.6963 141.978 48.5943L141.821 48.5411C118.776 66.8196 97.5797 83.2994 76.3199 97.4897C12.1732 140.339 8.31951 143.047 1.91444 146.253C0.984053 146.718 -0.114581 147.474 0.00965734 148.41C0.24286 150.129 1.91316 152.186 3.321 153.487C3.84406 153.971 4.75155 154.044 5.56099 153.845C5.24368 154.017 4.65059 154.522 4.39271 155.796C4.01829 157.628 5.6959 161.191 7.15595 163.394C8.32391 165.159 9.82629 166.407 11.6458 167.489C12.6175 168.066 13.7792 168.51 14.9697 168.225C14.5898 168.928 13.9559 169.692 14.194 170.375C15.3546 173.693 21.4961 180.017 23.517 181.683C25.3757 183.222 26.5161 183.494 27.3698 183.368C28.1434 183.255 29.1804 183.215 29.1804 183.215C29.1804 183.215 27.9946 184.874 28.337 185.624C29.3952 187.94 35.2753 193.693 40.0069 196.387C41.6319 197.316 43.041 196.613 43.041 196.613C43.0891 196.997 42.6062 197.814 43.0304 198.491C43.6639 199.493 48.3492 201.961 48.3492 201.961C49.3218 202.293 50.3475 202.405 50.7184 202.001C50.7184 202.001 49.5697 203.965 50.0579 204.94C50.9083 206.666 53.4686 210.024 57.1799 210.468C57.9804 210.561 62.8511 206.506 63.9748 205.795C74.2849 199.284 79.1205 198.779 88.6535 190.749C94.9906 185.412 121.106 167.227 129.542 159.906C192.705 105.091 193.626 106.253 199.275 101.686C215.054 88.9233 227.825 77.4613 240.459 66.3643C249.048 58.8181 261.861 51.663 254.87 49.2546C253.667 48.8433 253.111 49.4472 253.111 49.4472C253.223 49.0423 253.542 48.6043 252.993 47.881C252.424 47.1312 249.991 44.4171 248.685 44.5632C247.972 44.6429 247.8 44.6364 246.85 44.8621C247.56 43.3489 246.65 41.8492 244.685 40.0708C243.186 38.7105 240.364 37.1911 238.217 37.7222C238.299 37.4036 240.029 37.3105 239.782 35.3661C239.521 33.2757 234.31 26.0227 230.095 24.2445C229.282 23.8995 228.984 24.3177 227.96 24.3841Z" fill="#FFBC4A"/>
</svg>
