<svg width="97" height="188" viewBox="0 0 97 188" fill="none" xmlns="http://www.w3.org/2000/svg">
<path d="M16.7897 186.887C16.2308 186.557 14.2617 183.371 12.4122 179.803C10.5642 176.238 7.22834 170.794 4.99864 167.708C2.77057 164.619 0.709259 161.222 0.419387 160.157C-0.276011 157.603 -0.0703903 141.228 0.768856 132.433C1.44391 125.354 5.74492 104.241 8.99372 92.0552C10.9486 84.7287 15.4046 64.7039 18.0488 51.3689C18.9769 46.6943 20.5354 39.7246 21.5139 35.884C22.4925 32.0418 23.4882 27.9426 23.7283 26.7735C24.1493 24.7154 27.7998 14.9736 28.9245 12.9033C29.2302 12.3421 30.1999 10.3767 31.0801 8.53711C33.0224 4.47954 37.1742 0.0106806 39.0108 2.59439e-05C40.8458 -0.0106194 43.8715 3.25704 44.2006 5.60355C44.351 6.67443 44.621 9.59537 44.7994 12.0973C45.2522 18.4487 48.2734 31.4385 49.6374 32.9057C49.9036 33.192 51.7131 31.817 53.6603 29.8509C55.6091 27.8847 58.2785 25.6753 59.594 24.9407C72.5006 17.7295 76.364 16.4028 81.6178 17.3709C84.8996 17.9763 91.5639 21.3123 94.5415 23.8419C96.4726 25.483 96.6004 25.8205 96.5471 29.1581C96.4846 33.0502 93.2807 43.4367 91.381 45.9083C90.7878 46.6794 88.7848 50.8674 86.9306 55.214C83.1896 63.9788 81.592 70.713 79.8658 84.9729C78.5279 96.0413 77.1603 104.197 75.9528 108.317C74.6222 112.862 70.6582 120.893 68.2526 123.916C67.1594 125.29 65.0821 127.882 63.6384 129.672C60.2376 133.891 57.8306 138.695 56.3108 144.298C52.1417 159.672 49.7237 165.049 43.743 172.254C38.0903 179.066 31.5329 183.414 22.686 186.215C17.9941 187.701 18.1433 187.684 16.7897 186.887Z" fill="#FFBC4A"/>
</svg>
