<svg width="83" height="207" viewBox="0 0 83 207" fill="none" xmlns="http://www.w3.org/2000/svg">
<path d="M11.5984 205.639C10.3568 205.002 7.76614 202.041 5.83999 199.058C2.71217 194.214 2.39482 193.182 2.857 189.36C3.21425 186.414 2.9519 184.449 2.01255 183.036C-0.233379 179.656 -0.480662 177.206 0.683525 169.89C1.48796 164.845 1.57544 157.287 1.00084 142.583C0.0789827 118.962 1.13073 103.439 4.50837 90.8024C5.73002 86.2323 6.99657 79.8497 7.32135 76.6196C8.1108 68.7563 9.04519 64.6297 14.4564 45.0577C16.9896 35.9005 20.3598 25.3815 21.9461 21.6837C25.0914 14.3536 34.5349 2.11645 38.3397 0.432344C40.4657 -0.505427 40.9979 -0.207362 45.1825 4.27794C47.6782 6.95313 49.7219 9.43449 49.7219 9.79554C49.7219 10.1542 51.0833 11.0798 52.7497 11.8504C56.7619 13.709 61.9233 19.0206 65.5133 24.9889C69.6804 31.9143 71.3292 39.7242 70.6547 49.3249C70.0676 57.6776 71.2393 63.0425 77.1452 79.0549C78.9339 83.9061 79.6709 88.0424 80.0457 95.3216C80.3205 100.689 80.98 108.945 81.5121 113.668C82.3415 121.027 82.2591 122.832 80.9301 126.319C80.0757 128.553 79.0463 134.1 78.6416 138.638C77.8097 147.914 74.9792 154.273 69.6629 158.802C65.2885 162.529 64.0393 164.855 62.318 172.507C60.7142 179.634 57.0267 186.14 50.2589 193.778C47.3809 197.025 46.2693 197.616 42.0372 198.142C34.3576 199.099 30.3428 200.32 25.6211 203.139C20.3823 206.264 14.7637 207.268 11.5984 205.639Z" fill="#FFBC4A"/>
</svg>
