<svg width="84" height="189" viewBox="0 0 84 189" fill="none" xmlns="http://www.w3.org/2000/svg">
<path d="M3.03712 43.9866L25.818 8.69695C30.4395 1.53777 39.2623 -1.66886 47.4021 0.8522L70.3491 7.95932C78.934 10.6182 84.4817 18.9285 83.6454 27.8767L71.6644 156.076C71.4913 157.928 71.0472 159.744 70.3464 161.467L65.3302 173.799C62.9055 179.759 57.6288 184.088 51.3092 185.3L37.7734 187.896C33.4854 188.718 29.045 188.038 25.1991 185.971L17.899 182.047C12.297 179.036 8.57312 173.422 7.97796 167.09L0.846526 91.2173L0.00505242 54.7293C-0.0826677 50.9256 0.973612 47.1832 3.03712 43.9866Z" fill="#FFD196"/>
</svg>
