<svg width="206" height="209" viewBox="0 0 206 209" fill="none" xmlns="http://www.w3.org/2000/svg">
<path d="M44.6759 208.081C30.6115 205.856 15.258 202.354 11.3263 200.473C8.65871 199.198 4.9937 196.583 3.1856 194.662C-1.50181 189.684 -1.13649 185.659 5.08194 173.754C15.0246 154.724 18.7266 148.899 30.7692 133.335C66.4762 87.1872 63.435 90.7613 92.0969 61.2386C100.941 52.1268 110.258 42.4793 112.803 39.801C118.591 33.7049 138.669 10.8042 142.395 6.04696C143.924 4.09288 146.377 2.00963 147.846 1.41263C149.476 0.752768 159.454 0.224997 173.405 0.059694C198.51 -0.238364 202.36 0.432234 204.521 5.48928C206.102 9.19274 204.421 16.3506 201.113 20.0138C198.259 23.1753 173.278 59.6918 165.991 71.3537C163.817 74.8353 155.592 85.7965 147.717 95.7081C125.44 123.742 121.066 129.581 98.0858 161.951C79.6384 187.934 66.148 203.73 59.8149 206.76C55.9678 208.603 50.809 209.051 44.6759 208.081Z" fill="#FFD196"/>
</svg>
