<svg width="124" height="161" viewBox="0 0 124 161" fill="none" xmlns="http://www.w3.org/2000/svg">
<path fill-rule="evenodd" clip-rule="evenodd" d="M1.83621 145.413C15.8263 110.378 21.4043 112.269 25.8978 102.396C28.4522 96.7994 18.9136 89.759 34.7508 63.3137C36.8072 59.8807 49.4635 38.7594 67.3659 25.2506C71.3091 22.2782 74.2653 24.7483 79.2825 18.4684C95.3783 -1.66211 103.131 -8.18618 119.623 13.4375C124.619 19.9826 124.875 20.6454 121.447 27.8603C118.814 33.4075 122.417 34.7054 115.726 46.044C102.393 68.6167 83.5239 103.121 64.718 123.712C56.0201 133.237 50.1952 126.636 36.0949 144.875C22.0224 163.08 18.8909 162.145 5.46885 156.821C3.31704 155.97 1.51704 153.486 1.2526 153.123C-1.28944 149.613 0.627704 149.467 1.83621 145.413Z" fill="#FFD58C"/>
</svg>
