<svg width="275" height="100" viewBox="0 0 275 100" fill="none" xmlns="http://www.w3.org/2000/svg">
<path d="M15.3288 98.1049C9.59574 96.3817 4.93053 90.898 3.67947 84.409C2.06951 76.0499 1.22894 67.865 1.29043 61.1277C1.32338 57.573 0.960905 51.5341 0.484353 47.7056C-0.266218 41.6663 -0.191891 40.4651 1.0425 38.6282C2.04881 37.1325 3.24573 36.5081 5.12131 36.499C6.58344 36.4918 21.2316 34.3409 37.6732 31.7178C54.1147 29.0947 75.7231 25.6954 85.6891 24.1653C95.6551 22.6352 111.191 19.8773 120.213 18.0345C136.233 14.7673 144.355 13.5042 168.103 10.5876C174.508 9.80083 185.26 8.01355 191.994 6.61563C213.286 2.19282 233.78 0.0180668 254.36 0.000244943C266.84 -0.0124578 269.354 0.461542 271.11 3.14917C272.913 5.90962 274.56 29.6032 274.537 52.4259L274.518 70.9385L272.11 73.4043C270.192 75.3678 268.665 75.9917 264.615 76.4634C261.817 76.7897 259.317 77.3863 259.061 77.7916C258.804 78.1947 254.813 78.8008 250.19 79.1384C245.568 79.4736 237.637 79.2404 237.637 79.2404C237.637 79.2404 225.524 80.1668 217.224 80.9788C208.925 81.793 195.812 83.2402 188.086 84.1932C176.181 85.6642 145.517 88.4066 124.96 89.8375C118.702 90.272 104.765 91.6798 61.3485 96.2535C29.2636 99.633 21.4645 99.9471 15.3288 98.1049Z" fill="#FFD196"/>
</svg>
