<svg width="102" height="157" viewBox="0 0 102 157" fill="none" xmlns="http://www.w3.org/2000/svg">
<path fill-rule="evenodd" clip-rule="evenodd" d="M6.61014 4.52845C3.63032 6.54201 1.15708 9.80796 0.173741 13.6231C-0.342762 15.6463 0.432012 18.3247 0.690263 20.502C1.93186 30.9552 -1.42551 45.792 4.81226 53.6632C30.2103 85.7549 33.647 94.8881 64.1505 122.615C85.5456 142.067 75.3348 155.43 96.9683 156.914C101.369 157.212 104.448 154.804 97.0777 103.405C96.0248 96.1117 91.4258 98.3468 48.0495 24.6158C45.6061 20.4635 37.3819 10.5595 32.783 5.23173C28.8298 0.665094 26.2173 -0.288684 22.4031 0.0677838C18.3406 0.462788 11.4275 1.58037 6.61014 4.52845Z" fill="#FFBC4A"/>
</svg>
