<svg width="159" height="159" viewBox="0 0 159 159" fill="none" xmlns="http://www.w3.org/2000/svg">
<g clip-path="url(#clip0_1011_3460)">
<path d="M128.941 15.4482C134.132 19.5186 137.71 26.0932 139.173 32.9779L139.689 33.1846L155.947 40.7053C156.855 41.1234 157.625 41.7922 158.166 42.633C158.707 43.4739 158.996 44.4517 159 45.4515V143.769C158.994 144.586 158.799 145.39 158.43 146.119C158.062 146.847 157.529 147.481 156.874 147.969C156.22 148.457 155.461 148.787 154.657 148.933C153.853 149.079 153.027 149.037 152.242 148.809L107.174 136.089L53.591 150.861C52.6244 151.128 51.6021 151.117 50.6415 150.829L3.7683 136.876C2.68488 136.558 1.73302 135.899 1.05413 134.997C0.375248 134.094 0.00556229 132.997 0 131.868L0 31.7854C0 28.2874 3.4026 25.7752 6.79725 26.761L52.1282 39.966L75.1672 32.9143C75.4852 32.8189 75.8085 32.7527 76.1371 32.7156C77.0275 27.5004 79.5159 22.4919 83.6897 17.6106C88.6425 11.8071 97.3318 8.40446 105.799 7.99901C114.583 7.57766 121.293 9.45386 128.933 15.4402M10.5973 38.8053V127.965L49.3138 139.484V50.0704L10.5973 38.8053ZM75.8589 43.6866L59.9112 48.5599V138.228L100.178 127.146V100.95C100.178 98.0566 102.555 95.7114 105.481 95.7114C108.406 95.7114 110.775 98.0566 110.775 100.958V126.216L148.403 136.829V48.7825L139.499 44.6485C139.35 45.523 139.157 46.379 138.918 47.2164C137.196 53.3146 134.295 59.0162 130.38 63.9988L110.688 88.5882C110.169 89.2347 109.507 89.7513 108.754 90.0969C108.001 90.4426 107.177 90.6077 106.349 90.5791C105.521 90.5505 104.711 90.3291 103.983 89.9324C103.255 89.5357 102.63 88.9747 102.158 88.294L83.7532 61.6377C80.711 57.403 78.5884 53.5976 77.3853 50.2215C76.6289 48.1085 76.1167 45.916 75.8589 43.6866ZM106.307 18.4771C100.536 18.7554 94.605 21.0768 91.7827 24.376C88.3881 28.351 86.7186 32.0716 86.3847 35.8399C85.9872 40.3794 86.2575 43.5832 87.3864 46.7553C88.2211 49.1005 89.8827 52.0738 92.4505 55.6593L106.848 76.5042L122.033 57.5434C125.098 53.6298 127.369 49.1549 128.718 44.3703C130.626 37.6923 127.749 27.882 122.358 23.6685C116.833 19.3357 112.659 18.1671 106.315 18.4771M107.412 24.0183C116.189 24.0183 123.312 31.054 123.312 39.7354C123.285 43.9271 121.595 47.9367 118.614 50.8836C115.633 53.8304 111.604 55.4737 107.412 55.4526C98.6356 55.4526 91.5124 48.4168 91.5124 39.7354C91.5124 31.054 98.6356 24.0183 107.412 24.0183ZM107.412 34.4964C106.72 34.4922 106.034 34.6244 105.393 34.8854C104.752 35.1464 104.168 35.5311 103.676 36.0176C103.184 36.5041 102.792 37.0829 102.523 37.7207C102.254 38.3586 102.114 39.0432 102.11 39.7354C102.11 42.6292 104.487 44.9745 107.412 44.9745C108.105 44.9776 108.791 44.8444 109.431 44.5824C110.072 44.3204 110.655 43.9348 111.147 43.4475C111.638 42.9603 112.029 42.381 112.297 41.7427C112.565 41.1044 112.704 40.4196 112.707 39.7275C112.697 38.3323 112.133 36.9982 111.141 36.0177C110.148 35.0371 108.808 34.49 107.412 34.4964Z" fill="#5A3900"/>
</g>
<defs>
<clipPath id="clip0_1011_3460">
<rect width="159" height="159" fill="white"/>
</clipPath>
</defs>
</svg>
