<svg width="159" height="159" viewBox="0 0 159 159" fill="none" xmlns="http://www.w3.org/2000/svg">
<path d="M66.25 109.312L86.125 115.938C86.125 115.938 135.812 106 142.438 106C149.062 106 149.062 112.625 142.438 119.25C135.812 125.875 112.625 145.75 92.75 145.75C72.875 145.75 59.625 135.812 46.375 135.812H13.25" stroke="#5A3900" stroke-width="13.25" stroke-linecap="round" stroke-linejoin="round"/>
<path d="M13.25 96.0625C19.875 89.4375 33.125 79.5 46.375 79.5C59.625 79.5 91.0938 92.75 96.0625 99.375C101.031 106 86.125 115.938 86.125 115.938M53 59.625V33.125C53 31.3679 53.698 29.6828 54.9404 28.4404C56.1828 27.198 57.8679 26.5 59.625 26.5H139.125C140.882 26.5 142.567 27.198 143.81 28.4404C145.052 29.6828 145.75 31.3679 145.75 33.125V86.125" stroke="#5A3900" stroke-width="13.25" stroke-linecap="round" stroke-linejoin="round"/>
<path d="M82.8125 26.5H115.938V56.3125H82.8125V26.5Z" stroke="#5A3900" stroke-width="13.25" stroke-linecap="round" stroke-linejoin="round"/>
</svg>
