<svg width="248" height="175" viewBox="0 0 248 175" fill="none" xmlns="http://www.w3.org/2000/svg">
<path fill-rule="evenodd" clip-rule="evenodd" d="M0 0L0 162.876L17.7304 174.895L248 117.535V0.000467686L0 0Z" fill="#FFBC4A"/>
<path fill-rule="evenodd" clip-rule="evenodd" d="M43.6275 108.656C40.6999 108.71 37.7698 108.763 34.8346 108.814L34.5527 93.9712C34.6873 88.0192 26.2448 87.6677 26.3311 94.8193C26.3311 94.8193 26.8008 130.524 26.8186 140.35C26.8186 144.883 26.6739 153.013 30.7745 152.213C35.0352 151.383 35.2535 148.202 35.416 141.862L35.1342 126.057L31.4703 126.721L31.3839 121.803C35.3119 121.164 39.5472 120.833 43.6275 120.354C43.8027 132.123 45.2932 148.359 38.7118 154.91C34.1262 160.118 22.5504 160.933 19.1708 160.177C15.7887 159.415 13.0769 156.772 12.4828 152.086C11.2132 142.081 12.5666 133.46 12.3635 121.933C12.2746 116.936 12.3914 111.998 12.3 106.749C12.2162 101.642 11.8252 95.8941 12.6605 92.3845C14.0393 86.5497 20.1255 82.5027 26.5977 82.2862C33.7047 82.0494 40.0017 83.0808 42.4494 87.9606C45.0113 93.0645 43.4472 100.407 43.6275 108.656Z" fill="white"/>
<path fill-rule="evenodd" clip-rule="evenodd" d="M77.3404 129.403C77.0027 136.208 78.0971 143.571 74.7835 147.297C71.3304 151.186 57.6395 154.994 51.3374 151.408C45.1674 147.896 46.9955 137.512 46.8254 127.893C46.5689 113.187 47.0133 96.7853 46.866 82.9558C47.0311 82.7852 46.9752 82.3955 47.2621 82.3369L57.0809 82.3649C57.2637 98.2828 56.6289 114.993 56.9234 131.614C56.9971 135.966 56.215 143.986 59.0106 145.937C61.8468 147.919 66.4857 145.856 67.5522 143.118C68.7963 139.927 67.9762 132.166 67.8975 128.135C67.6537 113.704 68.0574 95.8047 68.126 82.3777L77.3303 82.421C76.9139 96.7318 78.0996 113.941 77.3404 129.403Z" fill="white"/>
<path fill-rule="evenodd" clip-rule="evenodd" d="M169.53 126.133L169.37 82.0287L176.315 81.9014L176.312 116.368L184.265 114.794L184.394 122.379L169.53 126.133Z" fill="white"/>
<path fill-rule="evenodd" clip-rule="evenodd" d="M196.826 119.698C194.724 120.503 191.105 121.386 188.853 120.052C185.237 117.879 185.938 109.467 185.601 102.277L185.245 82.1519L190.994 82.0194L191.496 107.277C191.55 110.407 191.639 114.222 193.896 113.835C197.369 113.257 197.006 109.294 196.958 105.996L196.575 81.9532L202.092 81.8564L202.539 106.879C202.328 113.303 201.567 117.879 196.826 119.698Z" fill="white"/>
<path fill-rule="evenodd" clip-rule="evenodd" d="M222.506 112.695L222.374 81.9132L236.174 81.6279C236.187 82.9192 236.24 85.7768 236.24 85.7768L228.016 86.2785L228.051 90.053L236.23 89.4188L236.293 94.2858L228.128 94.9455L228.305 104.998L236.461 103.826L236.568 109.982L222.506 112.695Z" fill="white"/>
<path fill-rule="evenodd" clip-rule="evenodd" d="M91.8649 129.972L96.4149 97.8842L101.453 128.161L91.8649 129.972ZM103.71 82.3662L92.8754 82.5547C92.8754 82.5547 84.8518 125.464 81.127 147.179L89.4781 145.605L91.0803 136.148L102.364 133.68L104.147 141.858L114.933 138.998L103.71 82.3662Z" fill="white"/>
<path fill-rule="evenodd" clip-rule="evenodd" d="M131.772 119.004C131.633 125.071 132.232 130.942 126.448 130.588L126.331 89.6518C126.323 89.2978 126.367 88.3376 127.679 88.1823C129.022 88.0218 130.871 88.628 131.407 90.4031C131.869 91.9007 131.988 109.123 131.772 119.004ZM140.36 106.958C140.235 100.636 141.099 91.8905 139.814 87.8817C137.432 80.45 124.805 81.9934 117.833 82.3219C117.442 100.636 117.561 119.853 117.792 138.098C120.941 137.5 129.693 136.354 134.87 133.593C140.167 130.773 140.456 125.249 140.532 117.214C140.56 113.949 140.413 110.541 140.36 106.958Z" fill="white"/>
<path fill-rule="evenodd" clip-rule="evenodd" d="M151.574 117.016L154.093 97.6852L157.277 116.096L151.574 117.016ZM159.031 81.7979L150.969 82.1493L142.436 132.564L150.038 130.759L151.018 123.118L158 121.829L159.143 128.579L167.291 126.791L159.031 81.7979Z" fill="white"/>
<path fill-rule="evenodd" clip-rule="evenodd" d="M214.899 97.7749C213.549 98.8624 212.068 98.9847 210.471 98.9159L210.225 88.596C211.728 88.7004 214.034 88.2929 214.922 89.3295C216.144 90.7634 216.436 96.5397 214.899 97.7749ZM219.122 84.4293C216.326 80.7848 210.585 81.8188 204.405 81.8162L204.558 117.1L210.839 115.799L210.667 103.87C214.166 103.796 218.32 102.92 219.861 100.037C221.755 96.5244 221.298 87.2589 219.122 84.4293Z" fill="white"/>
</svg>
