<svg width="184" height="94" viewBox="0 0 184 94" fill="none" xmlns="http://www.w3.org/2000/svg">
<g clip-path="url(#clip0_241_542)">
<path fill-rule="evenodd" clip-rule="evenodd" d="M0.0957031 0L0.128115 84.721L13.2757 93.6276L184.303 51.1671V51.1199H184.441L184.441 0H0.0957031Z" fill="#FFBC4A"/>
<path fill-rule="evenodd" clip-rule="evenodd" d="M32.5245 44.5418C30.3483 44.5814 28.1703 44.6211 25.9885 44.6588L25.779 33.6591C25.879 29.2483 19.6034 28.9878 19.6676 34.2876C19.6676 34.2876 20.0168 60.7469 20.03 68.0284C20.03 71.388 19.9224 77.4125 22.9705 76.8199C26.1376 76.2046 26.2999 73.8473 26.4207 69.1495L26.2112 57.4364L23.4877 57.929L23.4235 54.2845C26.3433 53.8108 29.4915 53.5654 32.5245 53.2106C32.6547 61.9322 33.7626 73.9643 28.8705 78.8186C25.4619 82.6783 16.8573 83.2823 14.3452 82.7218C11.8312 82.1574 9.81545 80.1983 9.3738 76.7255C8.43011 69.3119 9.43609 62.9231 9.2851 54.3807C9.21904 50.6777 9.30586 47.018 9.23791 43.1281C9.17563 39.3439 8.88497 35.0841 9.50592 32.4833C10.5308 28.1593 15.0548 25.1602 19.8658 24.9998C25.1486 24.8243 29.8293 25.5886 31.6488 29.2049C33.5531 32.9872 32.3905 38.4285 32.5245 44.5418Z" fill="white"/>
<path fill-rule="evenodd" clip-rule="evenodd" d="M57.5838 59.9131C57.3328 64.9562 58.1462 70.4126 55.6832 73.1739C53.1163 76.0559 42.9395 78.8776 38.255 76.2201C33.6687 73.6174 35.0276 65.9225 34.9012 58.7939C34.7105 47.8961 35.0408 35.7413 34.9314 25.4928C35.054 25.3664 35.0125 25.0776 35.2258 25.0342L42.5243 25.0549C42.6602 36.8511 42.1884 49.2343 42.4073 61.5514C42.462 64.7769 41.8807 70.7203 43.9587 72.166C46.0669 73.6344 49.5152 72.1056 50.3079 70.0767C51.2327 67.7118 50.6231 61.9609 50.5646 58.9732C50.3834 48.2792 50.6835 35.0147 50.7344 25.0644L57.5762 25.0965C57.2667 35.7017 58.1481 48.4548 57.5838 59.9131Z" fill="white"/>
<path fill-rule="evenodd" clip-rule="evenodd" d="M126.111 57.4921L125.992 24.8082L131.154 24.7139L131.152 50.2559L137.064 49.0895L137.16 54.7101L126.111 57.4921Z" fill="white"/>
<path fill-rule="evenodd" clip-rule="evenodd" d="M146.401 52.7235C144.839 53.3199 142.149 53.9748 140.475 52.9858C137.787 51.3759 138.308 45.1418 138.057 39.8137L137.793 24.8996L142.066 24.8015L142.44 43.5187C142.479 45.8383 142.545 48.6656 144.223 48.3787C146.805 47.9503 146.535 45.0135 146.499 42.5693L146.214 24.7524L150.316 24.6807L150.648 43.2242C150.491 47.9842 149.925 51.3759 146.401 52.7235Z" fill="white"/>
<path fill-rule="evenodd" clip-rule="evenodd" d="M165.49 47.5336L165.392 24.7226L175.65 24.5112C175.659 25.4681 175.699 27.5858 175.699 27.5858L169.585 27.9576L169.612 30.7547L175.691 30.2847L175.738 33.8915L169.668 34.3804L169.801 41.8299L175.863 40.9617L175.942 45.5235L165.49 47.5336Z" fill="white"/>
<path fill-rule="evenodd" clip-rule="evenodd" d="M68.3812 60.3367L71.7634 36.5575L75.508 58.9947L68.3812 60.3367ZM77.1858 25.0576L69.1324 25.1973C69.1324 25.1973 63.1682 56.996 60.3994 73.0879L66.607 71.9215L67.798 64.9136L76.1855 63.0847L77.5105 69.1451L85.5281 67.0256L77.1858 25.0576Z" fill="white"/>
<path fill-rule="evenodd" clip-rule="evenodd" d="M98.0451 52.2077C97.9413 56.7035 98.3867 61.0539 94.0872 60.7915L94.0004 30.4556C93.9948 30.1932 94.0268 29.4817 95.0026 29.3665C96.001 29.2476 97.3751 29.6968 97.7733 31.0123C98.1168 32.1221 98.2055 44.8846 98.0451 52.2077ZM104.428 43.2804C104.336 38.5959 104.977 32.1146 104.022 29.1438C102.252 23.6364 92.8661 24.7802 87.6833 25.0237C87.3927 38.5959 87.4814 52.8362 87.6531 66.3574C89.9935 65.9139 96.4993 65.0646 100.348 63.0187C104.285 60.9293 104.5 56.8356 104.557 50.8809C104.577 48.4612 104.468 45.9359 104.428 43.2804Z" fill="white"/>
<path fill-rule="evenodd" clip-rule="evenodd" d="M112.763 50.734L114.636 36.4088L117.002 50.0527L112.763 50.734ZM118.307 24.6353L112.314 24.8957L105.971 62.2566L111.622 60.9184L112.35 55.2562L117.54 54.3012L118.39 59.3028L124.446 57.9778L118.307 24.6353Z" fill="white"/>
<path fill-rule="evenodd" clip-rule="evenodd" d="M159.835 36.4767C158.831 37.2826 157.73 37.3732 156.543 37.3222L156.36 29.6745C157.477 29.7519 159.191 29.4499 159.852 30.2181C160.76 31.2807 160.977 35.5613 159.835 36.4767ZM162.973 26.5868C160.895 23.8859 156.628 24.6522 152.034 24.6503L152.147 50.7982L156.817 49.8337L156.688 40.9932C159.289 40.9385 162.377 40.2892 163.523 38.1527C164.931 35.55 164.591 28.6836 162.973 26.5868Z" fill="white"/>
</g>
<defs>
<clipPath id="clip0_241_542">
<rect width="184" height="94" fill="white"/>
</clipPath>
</defs>
</svg>
