<svg width="527" height="236" viewBox="0 0 527 236" fill="none" xmlns="http://www.w3.org/2000/svg">
<path fill-rule="evenodd" clip-rule="evenodd" d="M0 0.0484875L0.0908203 210.545L37.609 235.961L525.658 114.794V114.66H526.051L526.051 0L0 0.0484875Z" fill="#FFBC4A"/>
<path fill-rule="evenodd" clip-rule="evenodd" d="M92.54 95.8885C86.3301 96.0016 80.1147 96.1147 73.8886 96.2224L73.2908 64.8334C73.5763 52.2465 55.6682 51.5033 55.8513 66.6269C55.8513 66.6269 56.8477 142.132 56.8854 162.911C56.8854 172.497 56.5784 189.689 65.2766 187.998C74.3141 186.242 74.7773 179.515 75.122 166.11L74.5242 132.685L66.7523 134.091L66.5692 123.69C74.9012 122.339 83.8849 121.638 92.54 120.626C92.9116 145.514 96.0732 179.849 82.1129 193.702C72.386 204.716 47.8317 206.439 40.663 204.84C33.489 203.229 27.7369 197.639 26.4766 187.729C23.7836 166.573 26.6543 148.342 26.2235 123.965C26.0349 113.398 26.2827 102.955 26.0888 91.8544C25.9111 81.0557 25.0816 68.8997 26.8536 61.478C29.7781 49.1389 42.6881 40.5807 56.4168 40.1229C71.4919 39.622 84.8489 41.8033 90.041 52.1227C95.4753 62.916 92.1576 78.4436 92.54 95.8885Z" fill="white"/>
<path fill-rule="evenodd" clip-rule="evenodd" d="M164.049 139.753C163.333 154.144 165.654 169.714 158.626 177.594C151.301 185.818 122.26 193.87 108.892 186.287C95.8045 178.86 99.6823 156.901 99.3215 136.559C98.7775 105.461 99.72 70.7754 99.4076 41.53C99.7577 41.1691 99.6392 40.3451 100.248 40.2212L121.075 40.2804C121.463 73.9423 120.116 109.279 120.741 144.428C120.897 153.632 119.239 170.592 125.168 174.718C131.184 178.908 141.024 174.545 143.287 168.756C145.926 162.007 144.186 145.596 144.019 137.07C143.502 106.554 144.358 68.7018 144.504 40.3074L164.028 40.3989C163.144 70.6623 165.66 107.055 164.049 139.753Z" fill="white"/>
<path fill-rule="evenodd" clip-rule="evenodd" d="M359.601 132.844L359.262 39.5759L373.992 39.3066L373.987 112.194L390.855 108.866L391.13 124.905L359.601 132.844Z" fill="white"/>
<path fill-rule="evenodd" clip-rule="evenodd" d="M417.502 119.236C413.042 120.938 405.367 122.807 400.59 119.985C392.92 115.391 394.407 97.6009 393.691 82.3965L392.937 39.8372L405.13 39.5571L406.197 92.9691C406.31 99.5883 406.498 107.656 411.286 106.838C418.654 105.615 417.884 97.2347 417.782 90.2599L416.968 39.4171L428.672 39.2124L429.62 92.1289C429.173 105.712 427.557 115.391 417.502 119.236Z" fill="white"/>
<path fill-rule="evenodd" clip-rule="evenodd" d="M471.972 104.425L471.692 39.3308L500.965 38.7275C500.992 41.4582 501.105 47.5012 501.105 47.5012L483.66 48.5622L483.735 56.5441L501.083 55.203L501.218 65.4955L483.897 66.8904L484.274 88.1485L501.573 85.671L501.8 98.6888L471.972 104.425Z" fill="white"/>
<path fill-rule="evenodd" clip-rule="evenodd" d="M194.862 140.961L204.513 73.1044L215.199 137.132L194.862 140.961ZM219.987 40.2881L197.006 40.6866C197.006 40.6866 179.986 131.428 172.085 177.348L189.799 174.02L193.198 154.022L217.133 148.803L220.914 166.097L243.793 160.049L219.987 40.2881Z" fill="white"/>
<path fill-rule="evenodd" clip-rule="evenodd" d="M279.511 117.764C279.215 130.593 280.486 143.007 268.217 142.259L267.969 55.6912C267.953 54.9425 268.044 52.912 270.829 52.5835C273.678 52.2442 277.599 53.526 278.735 57.28C279.715 60.4469 279.969 96.8664 279.511 117.764ZM297.726 92.2883C297.462 78.9205 299.293 60.4254 296.568 51.948C291.516 36.2319 264.732 39.4958 249.942 40.1906C249.113 78.9205 249.366 119.557 249.856 158.142C256.535 156.876 275.1 154.452 286.082 148.614C297.317 142.652 297.931 130.97 298.092 113.977C298.151 107.073 297.839 99.8663 297.726 92.2883Z" fill="white"/>
<path fill-rule="evenodd" clip-rule="evenodd" d="M321.511 113.559L326.854 72.6797L333.608 111.614L321.511 113.559ZM337.329 39.0825L320.229 39.8258L302.127 146.44L318.252 142.621L320.331 126.463L335.143 123.738L337.566 138.011L354.85 134.23L337.329 39.0825Z" fill="white"/>
<path fill-rule="evenodd" clip-rule="evenodd" d="M455.835 72.8734C452.97 75.1732 449.83 75.4317 446.442 75.2863L445.92 53.4626C449.108 53.6834 453.999 52.8217 455.884 55.0138C458.474 58.046 459.094 70.2612 455.835 72.8734ZM464.792 44.6513C458.862 36.9441 446.684 39.1307 433.575 39.1254L433.898 113.742L447.223 110.989L446.857 85.7619C454.279 85.6057 463.09 83.7529 466.359 77.6561C470.377 70.2289 469.408 50.635 464.792 44.6513Z" fill="white"/>
</svg>
