<svg width="204" height="187" viewBox="0 0 204 187" fill="none" xmlns="http://www.w3.org/2000/svg">
<path d="M102.197 155.324C89.8388 155.324 77.9865 150.415 69.2477 141.676C60.509 132.937 55.5996 121.085 55.5996 108.727C55.5996 77.6616 102.197 25.2393 102.197 25.2393C102.197 25.2393 148.795 77.6616 148.795 108.727C148.795 121.085 143.886 132.937 135.147 141.676C126.408 150.415 114.556 155.324 102.197 155.324Z" fill="#F7BA40"/>
<path d="M104.379 4.69238C152.525 5.30212 191.367 44.5216 191.367 92.8125L191.359 93.9512C190.75 142.097 151.531 180.939 103.24 180.939L102.101 180.932C54.3339 180.326 15.7252 141.718 15.1201 93.9512L15.1133 92.8125C15.1133 44.1415 54.5693 4.68576 103.24 4.68555L104.379 4.69238ZM46.5098 49.3555C37.2723 61.3964 31.7822 76.4637 31.7822 92.8125C31.7824 132.277 63.7755 164.27 103.24 164.271C121.593 164.27 138.329 157.35 150.983 145.979L46.5098 49.3555ZM103.24 21.3545C85.309 21.3546 68.9201 27.9588 56.374 38.8682L160.675 135.331C169.485 123.449 174.698 108.74 174.698 92.8125C174.698 53.3475 142.705 21.3546 103.24 21.3545Z" fill="#F7BA40"/>
</svg>
