<svg width="204" height="186" viewBox="0 0 204 186" fill="none" xmlns="http://www.w3.org/2000/svg">
<mask id="mask0_1027_3359" style="mask-type:luminance" maskUnits="userSpaceOnUse" x="70" y="0" width="60" height="97">
<path d="M70.0117 0H129.14V96.8157H70.0117V0Z" fill="white"/>
</mask>
<g mask="url(#mask0_1027_3359)">
<path d="M99.5496 5.58406C105.679 11.9443 128.691 37.3681 123.865 57.093C121.674 65.8602 114.227 72.4343 101.74 76.8179V68.2793C106.564 63.4532 111.82 61.2626 109.401 58.6271C107.211 55.9916 104.361 60.6038 101.74 62.5779V52.4955C106.564 47.6694 111.82 45.4764 109.401 42.8409C107.211 40.22 104.361 44.8175 101.74 46.7941V29.9211C101.74 28.6033 100.865 27.7281 99.5496 27.7281C98.2319 27.7281 97.3566 28.6033 97.3566 29.9211V46.7941L92.7591 42.6269C91.8741 41.7517 90.5564 41.9681 89.6835 42.8409C88.8083 43.7283 89.0247 45.0339 89.9096 45.9213L97.3566 52.4955V62.5779C94.5072 60.6038 91.8741 56.2202 89.6835 58.6271C87.2766 61.4766 92.7591 63.4532 97.3566 68.2793V76.8179C60.3259 64.1121 73.6882 32.542 99.5496 5.58406ZM128.246 58.1968C134.173 33.2009 102.399 2.30427 101.081 0.986522C100.206 0.111264 98.8908 0.111264 98.0155 0.986522C96.7002 2.30427 64.9235 33.2009 70.8387 58.1968C73.4718 68.9382 82.2366 76.604 97.3566 81.644C98.0155 91.07 95.8249 96.7714 99.5496 96.7714C103.272 96.7714 101.081 91.07 101.74 81.644C116.646 76.8301 125.625 68.9382 128.261 58.1968H128.246Z" fill="#F7BA40"/>
</g>
<mask id="mask1_1027_3359" style="mask-type:luminance" maskUnits="userSpaceOnUse" x="81" y="58" width="118" height="128">
<path d="M81.4395 147.783L146.27 58.5515L198.871 96.7682L134.04 186L81.4395 147.783Z" fill="white"/>
</mask>
<g mask="url(#mask1_1027_3359)">
<path d="M157.609 67.5745L146.518 67.8348C146.22 67.8415 145.93 67.8983 145.651 68.0071C145.372 68.116 145.119 68.2677 144.893 68.4638C144.667 68.6599 144.482 68.8885 144.335 69.1489C144.189 69.4104 144.092 69.6885 144.042 69.9847L141.784 83.5652L138.208 88.4877L135.934 86.8356C135.796 86.7375 135.651 86.6513 135.497 86.5814C135.344 86.5115 135.186 86.457 135.022 86.417C134.857 86.3785 134.69 86.3551 134.522 86.3493C134.352 86.3425 134.184 86.3529 134.019 86.3792C133.851 86.4058 133.689 86.4489 133.53 86.5078C133.372 86.5651 133.221 86.6389 133.077 86.7276C132.932 86.8153 132.798 86.9174 132.674 87.0326C132.55 87.1466 132.439 87.2732 132.341 87.4087L124.345 98.4135L117.119 100.408C116.544 100.566 116.08 100.888 115.729 101.372L106.507 114.064C106.3 114.349 106.158 114.662 106.079 115.005C106 115.348 105.991 115.692 106.054 116.038L111.292 144.666L105.2 145.631C105.034 145.661 104.873 145.707 104.717 145.768C104.561 145.829 104.412 145.905 104.269 145.994C104.127 146.084 103.995 146.186 103.874 146.3C103.751 146.416 103.64 146.54 103.541 146.675C103.442 146.812 103.358 146.956 103.287 147.109C103.215 147.259 103.159 147.416 103.118 147.579C103.078 147.743 103.051 147.907 103.041 148.074C103.031 148.241 103.038 148.409 103.06 148.576L105.468 163.782C105.522 164.118 105.637 164.433 105.814 164.724C105.994 165.015 106.22 165.26 106.495 165.46L132.196 184.133C132.333 184.233 132.477 184.319 132.632 184.391C132.784 184.463 132.943 184.52 133.108 184.561C133.272 184.601 133.44 184.626 133.61 184.632C133.779 184.639 133.948 184.631 134.116 184.605C134.283 184.58 134.446 184.538 134.605 184.479C134.766 184.421 134.917 184.347 135.062 184.26C135.206 184.171 135.342 184.07 135.466 183.953C135.591 183.839 135.703 183.714 135.804 183.575L154.475 157.876C154.676 157.599 154.816 157.295 154.895 156.965C154.976 156.633 154.988 156.3 154.933 155.962L152.526 140.755C152.498 140.589 152.456 140.425 152.399 140.268C152.34 140.108 152.268 139.958 152.179 139.815C152.091 139.67 151.989 139.535 151.874 139.412C151.76 139.287 151.636 139.176 151.499 139.077C151.362 138.977 151.217 138.892 151.063 138.822C150.91 138.751 150.752 138.697 150.587 138.658C150.423 138.618 150.256 138.595 150.088 138.589C149.919 138.582 149.751 138.592 149.585 138.619L142.929 139.669L142.371 134.493L159.095 111.475C159.42 111.034 159.588 110.54 159.599 109.99L160.251 70.18C160.254 70.0057 160.239 69.8343 160.207 69.6643C160.175 69.4944 160.127 69.3295 160.061 69.1676C159.995 69.0082 159.915 68.8567 159.819 68.7129C159.722 68.5679 159.614 68.4356 159.491 68.3137C159.369 68.1902 159.233 68.0824 159.089 67.9867C158.944 67.8911 158.792 67.8129 158.63 67.7468C158.469 67.6834 158.304 67.6355 158.134 67.6046C157.963 67.5737 157.791 67.5605 157.618 67.5624L157.609 67.5745ZM149.671 155.704L133.138 178.461L110.382 161.929L108.537 150.321L147.832 144.089L149.671 155.704ZM154.46 109.1L137.626 132.269C137.238 132.801 137.078 133.395 137.147 134.049L137.824 140.464L116.377 143.861L111.327 116.204L119.372 105.13L126.61 103.126C127.185 102.965 127.648 102.644 128.001 102.162L135.013 92.5106L138.506 95.0486L138.437 100.41L127.927 114.874C127.828 115.011 127.743 115.157 127.672 115.309C127.602 115.463 127.547 115.621 127.507 115.785C127.467 115.949 127.445 116.117 127.438 116.284C127.431 116.453 127.442 116.621 127.467 116.788C127.495 116.955 127.537 117.118 127.595 117.275C127.654 117.434 127.728 117.585 127.815 117.73C127.903 117.872 128.005 118.007 128.119 118.132C128.234 118.255 128.359 118.367 128.496 118.467C128.632 118.565 128.777 118.65 128.93 118.721C129.084 118.791 129.244 118.847 129.406 118.886C129.571 118.924 129.738 118.948 129.907 118.954C130.074 118.962 130.242 118.951 130.409 118.926C130.576 118.898 130.739 118.856 130.898 118.797C131.054 118.739 131.207 118.666 131.351 118.578C131.494 118.489 131.628 118.388 131.753 118.274C131.876 118.159 131.988 118.034 132.087 117.897L143.069 102.782C143.393 102.339 143.561 101.842 143.568 101.294L143.662 93.7781C143.667 93.3611 143.575 92.9662 143.388 92.5931C143.201 92.22 142.939 91.9086 142.602 91.6616L142.389 91.5067C146.137 86.2095 146.604 86.0439 146.781 85.0003L148.775 72.9163L155.054 72.7649L154.46 109.1Z" fill="#F7BA40"/>
</g>
<mask id="mask2_1027_3359" style="mask-type:luminance" maskUnits="userSpaceOnUse" x="5" y="58" width="118" height="128">
<path d="M122.561 147.783L57.73 58.5515L5.1306 96.7672L69.9612 185.999L122.561 147.783Z" fill="white"/>
</mask>
<g mask="url(#mask2_1027_3359)">
<path d="M46.3913 67.5763L57.4824 67.8366C57.7803 67.8434 58.0704 67.9001 58.3495 68.009C58.6285 68.1179 58.8806 68.2696 59.1068 68.4657C59.333 68.6618 59.5177 68.8904 59.6651 69.1508C59.8109 69.4123 59.9083 69.6904 59.9583 69.9866L62.2161 83.567L65.7925 88.4895L68.0664 86.8374C68.2045 86.7394 68.3488 86.6531 68.5027 86.5832C68.6565 86.5133 68.8146 86.4589 68.9786 86.4188C69.1436 86.3803 69.3103 86.3569 69.4782 86.3512C69.6477 86.3443 69.8157 86.3548 69.9813 86.381C70.1495 86.4077 70.311 86.4508 70.4701 86.5096C70.628 86.567 70.7793 86.6408 70.9228 86.7295C71.0679 86.8171 71.2026 86.9193 71.3258 87.0344C71.4505 87.1485 71.5611 87.2751 71.6595 87.4106L79.6549 98.4154L86.8805 100.41C87.4562 100.568 87.9198 100.89 88.2715 101.374L97.4933 114.066C97.7001 114.351 97.8418 114.664 97.9209 115.007C98 115.349 98.0086 115.694 97.9458 116.04L92.7089 144.668L98.8005 145.633C98.9667 145.663 99.1278 145.709 99.2838 145.77C99.4398 145.831 99.5881 145.907 99.7316 145.996C99.8736 146.086 100.006 146.187 100.126 146.302C100.249 146.417 100.36 146.541 100.459 146.677C100.558 146.814 100.642 146.958 100.713 147.11C100.785 147.26 100.841 147.417 100.883 147.58C100.923 147.744 100.949 147.909 100.959 148.076C100.969 148.243 100.963 148.411 100.94 148.578L98.5322 163.783C98.479 164.12 98.3632 164.434 98.1864 164.725C98.007 165.016 97.7809 165.262 97.5054 165.462L71.8054 184.134C71.6684 184.234 71.5241 184.32 71.3698 184.392C71.2171 184.464 71.0586 184.521 70.8931 184.562C70.7292 184.602 70.561 184.627 70.3915 184.633C70.2221 184.64 70.0536 184.632 69.8854 184.606C69.7183 184.581 69.5553 184.539 69.3962 184.48C69.2357 184.422 69.0844 184.348 68.9393 184.261C68.7958 184.172 68.6596 184.071 68.5353 183.954C68.4106 183.84 68.2984 183.715 68.1978 183.576L49.5263 157.877C49.325 157.6 49.1859 157.296 49.1062 156.966C49.0254 156.634 49.0136 156.301 49.0683 155.963L51.4753 140.756C51.5031 140.59 51.545 140.427 51.6024 140.269C51.6612 140.11 51.7335 139.959 51.8222 139.816C51.9099 139.671 52.012 139.536 52.1272 139.413C52.2412 139.288 52.3652 139.177 52.5022 139.078C52.6392 138.978 52.7846 138.893 52.9384 138.824C53.0912 138.752 53.2493 138.698 53.4143 138.659C53.5783 138.619 53.7449 138.596 53.9129 138.59C54.0823 138.583 54.2504 138.594 54.4159 138.62L61.0718 139.67L61.6301 134.495L44.906 111.476C44.5812 111.035 44.4129 110.541 44.4017 109.991L43.7495 70.1817C43.7461 70.0074 43.7611 69.836 43.7934 69.666C43.8257 69.496 43.8734 69.3312 43.9395 69.1692C44.0051 69.0099 44.0857 68.8584 44.1812 68.7146C44.2782 68.5696 44.3867 68.4373 44.5097 68.3154C44.6317 68.1919 44.7673 68.0841 44.9117 67.9884C45.0562 67.8928 45.2086 67.8146 45.37 67.7485C45.5309 67.6851 45.696 67.6372 45.8666 67.6063C46.0372 67.5754 46.209 67.5622 46.3824 67.5641L46.3913 67.5763ZM54.3298 155.706L70.8637 178.462L93.6185 161.93L95.4636 150.322L56.1694 144.09L54.3298 155.706ZM49.5411 109.101L66.3746 132.271C66.7632 132.802 66.9224 133.396 66.8538 134.051L66.1773 140.465L87.6239 143.862L92.6733 116.206L84.6281 105.132L77.3906 103.128C76.8154 102.967 76.3518 102.645 75.9997 102.164L68.9874 92.5124L65.4942 95.0503L65.5638 100.411L76.0729 114.876C76.1724 115.013 76.2572 115.158 76.3286 115.311C76.3985 115.465 76.4529 115.623 76.493 115.787C76.533 115.951 76.5549 116.119 76.5622 116.286C76.569 116.455 76.5586 116.623 76.5335 116.79C76.5057 116.957 76.4637 117.12 76.4053 117.276C76.3464 117.435 76.2726 117.587 76.185 117.732C76.0978 117.874 75.9956 118.009 75.8816 118.133C75.7665 118.257 75.641 118.369 75.504 118.468C75.3685 118.567 75.2231 118.651 75.0704 118.723C74.9165 118.793 74.7569 118.848 74.5944 118.887C74.4294 118.926 74.2627 118.949 74.0933 118.956C73.9265 118.963 73.7584 118.953 73.5913 118.928C73.4246 118.9 73.2616 118.858 73.1025 118.799C72.9461 118.741 72.7933 118.668 72.6498 118.579C72.5062 118.49 72.3727 118.39 72.248 118.276C72.1248 118.161 72.0126 118.035 71.9131 117.898L60.9318 102.784C60.6074 102.34 60.4395 101.844 60.4321 101.296L60.3387 93.7798C60.3334 93.3627 60.4255 92.9679 60.6126 92.5948C60.7996 92.2217 61.0618 91.9103 61.3986 91.6633L61.6117 91.5084C57.8629 86.2112 57.3962 86.0456 57.2193 85.002L55.2257 72.9181L48.946 72.7666L49.5411 109.101Z" fill="#F7BA40"/>
</g>
</svg>
