<svg width="40" height="40" viewBox="0 0 40 40" fill="none" xmlns="http://www.w3.org/2000/svg">
<path d="M15.6979 2.84454C16.2502 2.11115 16.5755 2.75552 17.8864 3.11408C19.4645 3.54217 21.2136 3.78388 22.7594 3.6629C25.1342 3.47278 30.4089 2.45609 33.3327 4.70587C35.1411 6.09905 35.9014 7.46592 36.1969 8.73908C36.3482 8.95478 36.3671 9.19457 36.3161 9.44513C36.3983 10.1649 36.3624 10.8483 36.317 11.4832C36.2424 12.5287 35.9312 13.4108 35.568 14.0594C36.7081 16.7521 36.6895 19.8516 36.1159 22.3729C35.2868 26.0123 32.8703 29.9961 28.9313 33.0877C24.9924 36.1793 20.0182 38.0233 14.9528 37.3543C5.09437 36.0499 3.20428 29.5248 3.53482 27.8279C3.83509 26.295 5.14071 26.882 7.93912 22.6727C9.88881 19.7436 12.8255 10.9143 20.2633 8.4422C18.6563 6.91062 17.4893 5.61058 17.1725 5.22052C16.5442 4.44706 15.3291 3.33293 15.6979 2.84454Z" fill="#FFBA44"/>
</svg>
