<svg width="204" height="186" viewBox="0 0 204 186" fill="none" xmlns="http://www.w3.org/2000/svg">
<path d="M158.421 18.8018C159.857 18.8018 161.046 19.9877 161.046 21.4248V24.6152C178.249 17.5112 187.089 20.6652 191.511 24.9043L191.638 25.0254V25.0586C197.124 30.4485 198.014 39.9925 194.233 50.127L193.85 51.1172C188.893 63.4809 176.887 75.9917 160.922 76.791C160.39 82.6475 157.993 87.6115 154.073 91.3662C150.147 95.1275 144.714 97.6553 138.152 98.6748V115.923C142.522 116.344 146.935 117.346 150.29 119.8C153.769 122.344 156.059 126.407 156.06 132.819V136.363H157.124C158.561 136.363 159.746 137.552 159.746 138.988V164.571C159.746 166.007 158.561 167.196 157.124 167.196H101.159C99.7227 167.196 98.5342 166.008 98.5342 164.571V138.988C98.5342 137.552 99.7227 136.363 101.159 136.363H102.224V132.819C102.224 126.407 104.514 122.344 107.993 119.8C111.349 117.346 115.761 116.344 120.131 115.923V99.0244C113.112 98.3945 107.418 96.0924 103.455 92.3799C99.415 88.5953 97.207 83.3779 97.207 77.0781V76.7178C81.7614 75.4412 70.1507 63.1805 65.2871 51.0879V51.0869C61.0386 40.5092 61.8458 30.4442 67.626 24.9043L67.627 24.9033C71.984 20.757 80.5851 17.628 97.207 24.2695V21.4248C97.207 19.9877 98.3961 18.8018 99.832 18.8018H158.421ZM103.781 161.919H154.499V141.583H103.781V161.919ZM129.156 120.866C121.667 120.866 116.243 121.338 112.692 123.068C110.934 123.926 109.647 125.087 108.793 126.653C107.936 128.226 107.498 130.237 107.498 132.819V136.363H150.812V132.819C150.812 130.237 150.375 128.226 149.518 126.653C148.664 125.087 147.376 123.926 145.618 123.068C142.068 121.338 136.645 120.866 129.156 120.866ZM132.934 99.1768C132.402 99.2061 131.858 99.208 131.311 99.208H125.407V115.643C126.711 115.62 127.983 115.619 129.156 115.619C130.336 115.619 131.618 115.62 132.934 115.643V99.1768ZM102.454 77.0479C102.454 80.985 103.487 83.9888 105.098 86.2871C106.71 88.589 108.92 90.2078 111.307 91.3438C116.091 93.6207 121.534 93.9307 124.11 93.9307H131.28C137.263 93.9307 143.412 92.6118 148.054 89.4854C152.674 86.3728 155.826 81.4536 155.826 74.1582V40.6611H102.454V77.0479ZM187.904 28.7158C185.567 26.4766 182.031 25.4608 177.437 25.7373C172.9 26.0104 167.378 27.5425 161.073 30.3398V31.3467C173.183 25.7931 179.615 27.3213 182.924 29.8936H182.925C186.485 32.6812 187.754 37.6497 186.466 43.4385C184.251 53.4617 174.91 65.2232 161.257 68.3301L161.256 68.3291C161.194 68.3479 161.132 68.3621 161.073 68.3721V71.5078C174.454 70.6623 184.704 59.8701 189.018 49.1279L189.028 49.1299C190.743 44.8473 191.47 40.6986 191.261 37.1406C191.051 33.5721 189.903 30.6291 187.905 28.7158H187.904ZM81.417 25.6934C76.9698 25.4827 73.5417 26.5036 71.2617 28.6855V28.6865C69.2508 30.5995 68.1029 33.542 67.8965 37.1104C67.6996 40.5143 68.3635 44.459 69.9229 48.5449L69.9473 48.5215L70.1797 49.0977C74.4033 59.6003 84.2689 70.1302 97.2373 71.4053V68.1318C83.9652 64.8011 74.8688 53.2677 72.7012 43.4102L72.5879 42.8701C71.493 37.3144 72.763 32.5646 76.2441 29.8652L76.5625 29.6289C79.8883 27.2639 86.0479 26.0138 97.2373 30.9443V29.9307C91.1415 27.3095 85.8048 25.9012 81.417 25.6934ZM179.734 34.082C178.232 32.9188 175.8 32.556 172.561 33.0879C169.367 33.6122 165.466 34.9953 161.073 37.2158V37.6855H161.104V63.0312C171.969 60.068 179.642 50.2889 181.386 42.3477L181.461 41.9844C182.185 38.266 181.494 35.4566 179.734 34.083V34.082ZM86.3428 33.0225C83.2489 32.5574 80.9231 32.9326 79.4609 34.0566H79.46C77.674 35.4275 76.9823 38.2346 77.7334 41.9541L77.8105 42.3174V42.3193C79.493 50.0492 86.8132 59.5295 97.207 62.7471V37.6279H97.2373V36.7607C93.061 34.7278 89.3694 33.4775 86.3428 33.0225ZM102.484 35.4443H155.826V33.4912H102.484V35.4443ZM102.484 28.2441H155.826V24.0488H102.484V28.2441Z" fill="#F7BA40" stroke="#F7BA40" stroke-width="0.821596"/>
<path d="M60.4951 92.998C62.6154 92.9983 64.332 94.7153 64.332 96.8311C64.3323 111.412 76.1873 123.272 90.7549 123.272C92.8753 123.273 94.5869 124.989 94.5869 127.104C94.5869 129.225 92.8752 130.941 90.7549 130.941C76.1826 130.941 64.3322 142.801 64.332 157.378C64.332 159.498 62.6154 161.215 60.4951 161.215C58.3793 161.215 56.6621 159.498 56.6621 157.378C56.662 142.801 44.8022 130.941 30.2207 130.941C28.105 130.941 26.3887 129.225 26.3887 127.104C26.3887 124.989 28.1049 123.273 30.2207 123.272C44.8021 123.272 56.6619 111.412 56.6621 96.8311C56.6621 94.7152 58.3793 92.998 60.4951 92.998ZM60.4971 112.533C57.2567 118.761 52.1524 123.865 45.9287 127.105C52.1524 130.35 57.2567 135.455 60.4971 141.679C63.7374 135.455 68.8408 130.35 75.0645 127.105C68.8409 123.865 63.7374 118.761 60.4971 112.533Z" fill="#F7BA40"/>
<path d="M34.1865 19.2129C35.8222 19.2129 37.1463 20.5369 37.1465 22.1689C37.1465 33.4175 46.2924 42.5664 57.5303 42.5664C59.166 42.5664 60.4863 43.8912 60.4863 45.5234C60.4862 47.1591 59.1659 48.4834 57.5303 48.4834C46.2889 48.4834 37.1465 57.632 37.1465 68.877C37.1465 70.5127 35.8223 71.8369 34.1865 71.8369C32.5545 71.8367 31.2305 70.5126 31.2305 68.877C31.2304 57.632 22.0815 48.4834 10.833 48.4834C9.20095 48.4833 7.87711 47.159 7.87695 45.5234C7.87695 43.8913 9.20085 42.5665 10.833 42.5664C22.0815 42.5664 31.2305 33.4175 31.2305 22.1689C31.2307 20.537 32.5546 19.2131 34.1865 19.2129ZM34.1855 34.2832C31.6859 39.0878 27.7483 43.0257 22.9473 45.5254C27.7483 48.0286 31.6859 51.9655 34.1855 56.7666C36.6852 51.9655 40.6228 48.0286 45.4238 45.5254C40.6228 43.0257 36.6852 39.0878 34.1855 34.2832Z" fill="#F7BA40"/>
</svg>
