<svg width="204" height="187" viewBox="0 0 204 187" fill="none" xmlns="http://www.w3.org/2000/svg">
<path d="M188.784 6.22802C180.477 -2.07601 166.968 -2.07601 158.669 6.22802L130.117 34.7753C129.081 34.0982 128.389 33.6586 128.27 33.5794C124.769 31.3539 119.449 31.9479 116.522 34.8704L109.837 41.5587C106.826 44.5643 106.261 49.7281 108.539 53.3079C108.694 53.5455 110.276 56.0284 112.432 59.2043L29.2439 142.391C25.2843 146.355 20.5573 155.202 19.4892 162.333L10.7235 171.093C7.09217 174.728 7.09217 180.64 10.7235 184.283C12.547 186.101 14.9284 187.004 17.3176 187.004C19.7068 187.004 22.0921 186.097 23.9077 184.279L32.6695 175.516C39.7976 174.447 48.6465 169.719 52.614 165.759L135.794 82.572C138.97 84.7262 141.454 86.3102 141.692 86.4646C143.139 87.3833 144.868 87.8704 146.684 87.8704C149.263 87.8704 151.727 86.8844 153.444 85.1697L160.133 78.4814C163.135 75.4797 163.701 70.3199 161.423 66.7322C161.347 66.6134 160.908 65.9204 160.228 64.8868L188.784 36.3356C197.083 28.0355 197.083 14.5281 188.784 6.22802ZM47.1987 160.338C44.0381 163.486 35.9369 167.628 30.6047 168.044C29.6949 168.115 28.8365 168.511 28.1957 169.156L18.4885 178.858C17.8555 179.496 16.7796 179.5 16.1427 178.862C15.5098 178.225 15.5098 177.152 16.1427 176.514L25.85 166.808C26.4908 166.167 26.8863 165.307 26.9615 164.4C27.3729 159.062 31.5145 150.964 34.6632 147.812L116.909 65.5679C118.895 68.2567 120.913 70.7911 122.566 72.4385C124.216 74.0898 126.751 76.1093 129.441 78.0933L47.1987 160.338ZM154.714 73.0602L148.025 79.7485C147.665 80.1049 146.383 80.3584 145.802 79.9901C142.107 77.6458 131.704 70.7396 127.985 67.0173C124.263 63.2949 117.36 52.8921 115.011 49.1935C114.647 48.6233 114.773 47.467 115.256 46.9839L121.945 40.2915C122.17 40.0658 122.673 39.8362 123.286 39.8362C123.63 39.8362 123.947 39.9114 124.164 40.046C127.859 42.3903 138.258 49.2965 141.98 53.0188C145.703 56.7412 152.609 67.148 154.955 70.8386C155.319 71.4168 155.192 72.581 154.714 73.0602ZM183.365 30.9183L155.865 58.4083C153.104 54.4405 149.848 50.0489 147.4 47.6056C144.951 45.1583 140.56 41.8993 136.597 39.1392L164.089 11.6452C169.405 6.33098 178.052 6.33494 183.365 11.6452C188.673 16.9595 188.673 25.6041 183.365 30.9183Z" fill="#F7BA40"/>
<path d="M102.395 15.6133C145.412 15.6133 180.284 50.4857 180.284 93.5029C180.284 136.52 145.412 171.393 102.395 171.393C59.3775 171.392 24.505 136.52 24.5049 93.5029C24.5049 50.4858 59.3775 15.6135 102.395 15.6133ZM53.7217 56.4521C45.8828 66.7344 41.2276 79.5752 41.2275 93.5029C41.2277 127.285 68.613 154.671 102.395 154.671C118.038 154.671 132.309 148.797 143.125 139.137L53.7217 56.4521ZM102.395 32.3359C87.7463 32.336 74.3012 37.4854 63.7695 46.0723L152.695 128.315C159.547 118.434 163.562 106.438 163.562 93.5029C163.562 59.7211 136.176 32.3359 102.395 32.3359Z" fill="#F7BA40"/>
</svg>
