<svg width="52" height="78" viewBox="0 0 52 78" fill="none" xmlns="http://www.w3.org/2000/svg">
<path fill-rule="evenodd" clip-rule="evenodd" d="M25.6903 25.3681C25.803 25.3681 25.7297 25.2104 25.7748 25.1428C25.7917 25.0977 25.8818 25.1428 25.9156 25.0639C25.9494 25.002 25.8931 24.9118 25.9156 24.8386C25.8987 24.7372 25.6903 24.8105 25.6903 24.6978V24.5457C25.6565 24.3824 25.803 24.3993 25.9156 24.3936V23.5769C26.2479 23.6107 26.3212 23.3798 26.2874 23.0531C26.4958 23.115 26.4901 22.9404 26.6648 22.9742C26.6366 22.8503 26.7211 22.839 26.8168 22.8278V22.4504C26.952 22.4786 27.0478 22.4335 27.0252 22.3039H27.5603C27.6392 22.3039 27.5998 22.2082 27.6279 22.1519C27.6786 22.0336 27.842 22.1237 27.7856 21.8533C27.9321 21.8871 28.0109 21.8421 28.0109 21.7069H28.5348C28.6136 21.6956 28.5911 21.5717 28.6024 21.4816C28.7207 21.5097 28.7488 21.4196 28.7657 21.3351H29.1206C29.1938 21.031 28.8953 21.1155 28.9798 20.8113C28.946 20.6649 28.6305 20.8057 28.7657 20.5128C28.6249 20.5409 28.6136 20.4564 28.6024 20.3663H28.9798C28.9967 20.4621 28.946 20.5691 28.9798 20.6592C29.0079 20.7831 29.2051 20.7324 29.1206 20.9634C29.2726 20.9352 29.3571 20.9746 29.3459 21.1155C29.5655 21.0479 29.6669 20.8845 30.0218 20.9634C30.1063 20.9465 30.0837 20.8282 30.095 20.7324H30.7033C30.8329 20.7831 30.7878 20.5466 30.8441 20.5128C30.9117 20.4733 31.1765 20.5691 31.2103 20.5128C31.3229 20.3776 31.7059 20.3325 32.1227 20.3663C32.1847 20.3438 32.1678 20.2255 32.1791 20.1354C32.4832 20.2142 32.6916 20.2086 32.855 19.9946C32.9902 19.9608 33.0014 20.0509 33.0071 20.1354C33.3056 20.0453 33.6154 19.9439 34.0491 19.9946C34.1054 19.865 34.4152 20.0115 34.3476 19.7693C34.6293 19.7186 35.1137 19.8819 35.1756 19.6116C35.2488 19.6341 35.2094 19.7636 35.3221 19.7693C35.6826 19.6341 36.0374 19.5778 36.443 19.6116C36.4711 19.6228 36.5781 19.6003 36.5894 19.6116C36.6119 19.6341 36.5781 19.758 36.5894 19.7693C36.7696 19.8481 37.0231 19.7017 37.1808 19.7693V19.9946C37.3047 20.0227 37.4568 19.9495 37.5638 19.9946C37.5638 19.9946 37.5638 20.1185 37.6314 20.1354C37.7779 20.1748 37.7891 20.1861 37.7891 20.3663C38.0144 20.31 37.8793 20.6198 38.1609 20.5128C38.1778 20.6254 38.1271 20.7775 38.1609 20.8845C38.1891 20.9859 38.2904 21.0028 38.313 21.1155C38.3355 21.2957 38.3355 21.5604 38.313 21.7069C38.2904 21.8252 38.2904 21.8533 38.1609 21.8533V22.4504C38.0877 22.4504 38.0933 22.5405 38.082 22.6025C37.9525 22.5912 37.93 22.6926 37.7891 22.6813C37.8117 22.8052 37.7216 22.8165 37.6314 22.8278C37.5526 22.839 37.5695 22.9573 37.5638 23.0531C37.147 22.9742 37.0794 23.2728 36.6739 23.1995C36.5838 23.2108 36.6007 23.3347 36.5894 23.4248C36.3979 23.4699 36.2965 23.3685 36.1388 23.4248C36.0712 23.4586 36.0937 23.5544 35.998 23.5769C35.8515 23.6051 35.7445 23.5544 35.5474 23.5769C35.4291 23.5487 35.5248 23.7572 35.4685 23.8022C35.4122 23.8416 35.2376 23.7684 35.1756 23.8022C35.1024 23.8304 35.063 23.9543 35.0235 24.0219H34.5786C34.4828 24.1007 34.4321 24.2359 34.2068 24.1683C34.1167 24.1852 34.1392 24.3091 34.128 24.3936C34.0378 24.4387 33.7675 24.2979 33.7618 24.4669C33.7449 24.5739 33.5534 24.5288 33.452 24.5457C33.3676 24.557 33.3901 24.6809 33.3845 24.771C33.0352 24.7203 32.8944 24.8893 32.6353 24.9175C32.5452 24.9344 32.5846 25.0527 32.5565 25.1428C32.3649 25.1428 32.089 25.0696 32.1791 25.3681H31.8918C31.8524 25.4188 31.7623 25.4695 31.7454 25.5089C31.7059 25.5596 31.6327 25.6215 31.6609 25.7398H31.2891C31.261 25.7962 31.1765 25.8468 31.1483 25.8863C31.1201 25.937 31.0413 25.9933 31.0638 26.1172C30.7653 26.0215 30.8892 26.3313 30.7033 26.3369C30.8441 26.6242 30.5062 26.7424 30.4724 26.9339C30.4161 27.1818 30.5062 27.3902 30.4724 27.7563C30.4837 27.8352 30.6019 27.8183 30.7033 27.8295V29.7671H30.4724V30.2966C30.309 30.2572 30.3259 30.4036 30.3259 30.5163C30.1626 30.4543 30.095 30.567 30.0218 30.6627C29.9993 30.7078 29.926 30.7303 29.9542 30.8204C29.7683 30.8148 29.7289 30.95 29.498 30.888C29.3571 31.2316 29.7965 30.9951 29.7233 31.2654C29.5205 31.3161 29.5092 31.2091 29.4304 31.119C29.3909 31.0795 29.3515 31.1246 29.3459 31.0401C29.3402 30.9556 29.3459 30.8993 29.2726 30.888C28.9967 30.781 29.2614 31.2204 28.9798 31.119C28.9798 31.0119 28.9967 30.8993 28.8953 30.888C28.6249 30.781 28.884 31.2204 28.6024 31.119C28.7038 30.736 28.225 30.9387 28.0109 30.888C28.0898 30.6346 27.949 30.7528 27.7856 30.6627C27.7631 30.6571 27.7969 30.5332 27.7856 30.5163C27.7631 30.4994 27.6392 30.5388 27.6279 30.5163C27.5998 30.4543 27.6561 30.3586 27.6279 30.2966C27.5209 30.2684 27.3688 30.336 27.2505 30.2966C27.2224 30.2853 27.2505 30.1671 27.1942 30.1445C27.1379 30.1276 27.0816 30.1502 27.0252 30.1445C27.1266 29.7953 26.6648 30.0206 26.8168 29.6207C26.8225 29.463 26.5465 29.5869 26.4394 29.5475C26.4225 29.4573 26.4563 29.3391 26.4394 29.2489C26.4057 29.1363 26.1803 29.1363 26.2874 28.8716C26.2761 28.7871 26.1522 28.8096 26.0621 28.7983C26.017 28.6406 26.1128 28.3984 26.0621 28.2801C26.0339 28.2013 25.9156 28.2182 25.9156 28.1281V27.3057C25.8987 27.2212 25.7861 27.2437 25.6903 27.2325V25.3681ZM51.3806 52.5454C51.2961 52.5341 51.161 52.5567 51.1553 52.4722C51.2511 51.8976 50.9525 51.723 51.0032 51.1992C50.9188 51.1879 50.7892 51.2161 50.7779 51.126C50.761 51.0302 50.8005 50.8331 50.6991 50.8331C50.5414 50.8218 50.6765 50.5458 50.6315 50.4557C50.5414 50.4388 50.4174 50.467 50.4062 50.3768C50.5132 50.1177 50.2879 50.1234 50.2541 50.0107C50.2259 49.915 50.2823 49.808 50.2541 49.7066C49.9725 49.853 50.0964 49.5376 50.0288 49.4869C49.9725 49.4306 49.7979 49.5263 49.8091 49.408C49.8486 49.256 49.6852 49.2672 49.657 49.1884C49.6345 49.0982 49.6796 48.9743 49.657 48.8898C49.3754 48.9912 49.5162 48.6871 49.2797 48.7378C49.2909 48.5688 49.274 48.5462 49.1332 48.5068C49.0262 48.4843 49.0769 48.3435 48.9079 48.366C49.0375 48.0168 48.5643 48.2646 48.6826 47.9154H48.3221C48.3841 47.645 47.9447 47.876 48.0912 47.5436H47.7138C47.7251 47.3296 47.4885 47.369 47.4885 47.1663C47.4096 47.1156 47.1843 47.2395 47.1167 47.1663C47.1111 47.155 47.1393 47.0198 47.1393 47.0198C46.9647 46.986 46.8407 47.0536 46.5985 47.0198C46.7619 46.5917 46.0634 47.0029 46.2268 46.5748C45.6297 46.6593 45.472 46.3326 44.8806 46.4284V46.1975C44.5877 46.1749 44.2835 46.2312 43.985 46.1975C43.8273 46.1806 43.6865 46.0735 43.5344 46.0454C43.0613 45.9778 42.4586 46.0454 41.8953 46.0454C41.3152 46.0454 40.6899 46.0059 40.183 46.0454C40.0985 46.0623 40.0647 46.1186 39.9521 46.1299C39.6817 46.1524 39.6704 46.1806 39.5071 46.1975C39.0959 46.2369 38.7073 46.1693 38.313 46.1975C38.358 46.3946 38.1609 46.3439 38.082 46.4284H37.485C37.3949 46.434 37.4061 46.541 37.3329 46.5748C37.2259 46.6199 36.9837 46.541 36.8203 46.5748C36.8091 46.6593 36.8316 46.7832 36.7358 46.7945C36.2627 46.6931 36.1895 46.9297 35.998 47.0198C35.8515 47.0761 35.7839 46.9916 35.6938 47.093C35.6713 47.1156 35.5868 47.0761 35.5474 47.093C35.5474 47.093 35.5586 47.155 35.5474 47.1663C35.4685 47.2733 35.1024 47.0874 35.0235 47.1663C34.9616 47.217 34.8884 47.3521 34.7982 47.3916C34.725 47.431 34.5842 47.369 34.4997 47.3916C34.3307 47.431 34.3814 47.5155 34.2068 47.5436C34.0378 47.5662 33.9252 47.5267 33.7618 47.5436C33.7337 47.6338 33.7731 47.7521 33.6773 47.7689C33.5196 47.814 33.3901 47.7014 33.2324 47.7689C33.1535 47.7915 33.1535 47.9041 33.0803 47.9154C32.8944 47.9492 32.6916 47.8929 32.4044 47.9154C32.5283 48.2984 32.0383 48.0844 31.8242 48.1407C31.7961 48.2308 31.8242 48.3547 31.7454 48.366C31.537 48.3885 31.4243 48.3378 31.2891 48.366C31.199 48.3885 31.2103 48.4843 31.1483 48.5068C30.985 48.5688 30.8892 48.473 30.7033 48.5068C30.6752 48.5969 30.7146 48.7265 30.6132 48.7378C30.3259 48.7603 30.2133 48.9687 29.7965 48.8898C29.6557 48.9518 29.605 49.0757 29.4304 49.1095C29.329 49.132 29.1318 49.0813 29.1206 49.1884C29.1037 49.363 28.8502 49.2053 28.7657 49.2616C28.7038 49.2898 28.7319 49.5263 28.6024 49.4869H28.1518C28.1461 49.5714 28.163 49.6953 28.0729 49.7066C27.7856 49.6221 27.7969 49.8417 27.6955 49.8643C27.5716 49.8924 27.4589 49.8417 27.2505 49.8643C27.2505 49.9431 27.2787 50.0671 27.1942 50.0783C27.014 50.1008 26.8957 50.0502 26.7323 50.0783C26.6366 50.1008 26.6648 50.2022 26.5859 50.2304C26.3493 50.3262 26.3043 50.191 26.2141 50.3093C26.1916 50.3318 26.079 50.2867 26.0621 50.3093C26.017 50.3599 26.0733 50.4106 25.9832 50.4557C25.8987 50.5008 25.7016 50.3994 25.6903 50.5233C25.679 50.7035 25.4087 50.5571 25.3186 50.6021C25.3129 50.6923 25.3298 50.8218 25.2453 50.8331C25.1439 50.8331 24.9524 50.8049 24.9412 50.9007C24.9355 51.0697 24.6539 50.9288 24.5694 50.9795C24.6652 51.2724 24.3892 51.1992 24.192 51.1992C24.192 51.2893 24.2089 51.4132 24.1244 51.4245C23.8372 51.3231 23.7189 51.5484 23.6795 51.5766C23.5387 51.6385 23.4598 51.5428 23.3753 51.6442C23.3528 51.6723 23.2458 51.6273 23.2289 51.6442C23.1894 51.6836 23.2401 51.8132 23.15 51.7963C22.8571 51.7118 22.874 51.9258 22.7726 51.9483C22.6712 51.9765 22.5248 51.9258 22.4009 51.9483C22.3896 52.0328 22.4121 52.1624 22.3333 52.1793H21.8883C21.9672 52.4215 21.6574 52.2863 21.5053 52.3201C21.5053 52.4046 21.5222 52.5341 21.4321 52.5454H21.0659C21.0547 52.6355 21.0716 52.7538 20.9871 52.7651C20.8801 52.782 20.6886 52.7369 20.6829 52.8439C20.6717 53.0129 20.4126 52.8777 20.3168 52.9228C20.2999 53.0016 20.3281 53.1312 20.2379 53.1481C20.1422 53.1594 19.9394 53.1199 19.9394 53.2157C19.9338 53.3903 19.6634 53.2495 19.5677 53.2945C19.562 53.3847 19.5789 53.5029 19.4888 53.5142C19.1509 53.4184 19.241 53.762 18.8918 53.6607C18.8523 53.7282 18.8298 53.8691 18.7453 53.886C18.5031 53.9479 18.689 54.038 18.52 54.1169C18.4243 54.1225 18.2327 54.0887 18.2158 54.1901C18.2158 54.3591 17.9398 54.2183 17.8385 54.2633C17.8272 54.3535 17.8554 54.4717 17.7709 54.4886C17.6807 54.4999 17.4836 54.4605 17.4667 54.5619C17.4667 54.7365 17.202 54.5844 17.095 54.6351C17.095 54.7252 17.1119 54.8491 17.0386 54.8604C16.9316 54.9055 16.7457 54.8097 16.6556 54.8604C16.5937 54.8998 16.6781 54.9899 16.5768 55.0125C16.4416 55.0406 16.3346 54.9899 16.1318 55.0125C16.1205 55.097 16.1374 55.2265 16.0586 55.2378C15.1066 55.2378 14.5603 55.2772 13.6703 55.2378C13.6534 55.0463 13.4732 55.0463 13.4394 54.9336C13.4056 54.821 13.4676 54.6745 13.4394 54.5619C13.4394 54.4267 13.1972 54.5112 13.2141 54.3422C13.2929 54.2577 13.4957 54.314 13.4394 54.1169V53.7395C13.4394 53.6494 13.3155 53.6719 13.2929 53.5931C13.5295 53.6325 13.3211 53.2157 13.5915 53.2945V52.7651H14.0477C14.0533 52.6862 14.0308 52.5567 14.1153 52.5454C14.2449 52.5454 14.1604 52.337 14.2674 52.3201C14.4138 52.3595 14.4138 52.2074 14.4927 52.1793C14.7011 52.0948 14.7011 52.0723 14.8644 51.9483C14.8813 51.9371 14.9264 51.9596 14.9377 51.9483C14.9602 51.9314 14.9151 51.8132 14.9377 51.7963C14.9827 51.7681 15.1235 51.8357 15.163 51.7963C15.2249 51.7512 15.1123 51.5597 15.2418 51.5766H15.5347C15.5235 51.447 15.5967 51.402 15.76 51.4245C15.6981 51.1598 15.8727 51.2443 15.9177 51.126C15.9346 51.0697 15.9177 50.9795 15.9853 50.9795H16.2839C16.2726 50.8443 16.3458 50.8049 16.5035 50.8331C16.5204 50.743 16.4923 50.6134 16.5768 50.6021H16.8809C16.8697 50.467 16.9485 50.4275 17.095 50.4557C17.0668 50.3374 17.1456 50.2811 17.1738 50.2304C17.2076 50.191 17.2977 50.1346 17.3259 50.0783H17.5512C17.6132 49.9713 17.6132 49.7911 17.8385 49.8643C17.7821 49.7178 17.9793 49.746 17.9962 49.7066C18.0412 49.6446 17.9624 49.4869 18.0694 49.4869H18.3736C18.4299 49.4306 18.3961 49.3292 18.4468 49.2616C18.4637 49.2334 18.5707 49.2841 18.5989 49.2616C18.6158 49.2391 18.5707 49.1264 18.5989 49.1095C18.6383 49.087 18.7847 49.1489 18.8185 49.1095C18.8692 49.0588 18.7735 48.8729 18.8918 48.8898C19.179 48.9631 19.1114 48.7096 19.3367 48.7378C19.348 48.6476 19.3255 48.5237 19.4212 48.5068C19.562 48.5293 19.5677 48.4167 19.6409 48.366H19.8662C19.9113 48.2984 19.9394 48.1576 20.0183 48.1407C20.2605 48.0787 20.0859 47.9999 20.2379 47.9154C20.3844 47.8534 20.5196 47.7858 20.6829 47.7689C20.6942 47.6845 20.6717 47.5493 20.7561 47.5436C20.9927 47.5493 20.9758 47.3071 21.2912 47.3916C21.2912 47.3071 21.28 47.1775 21.3532 47.1663C21.5053 47.2113 21.5053 47.048 21.5729 47.0198C21.6686 46.9916 21.7925 47.0423 21.8883 47.0198C21.7925 46.7213 22.1249 46.8621 22.0348 46.5748C22.3333 46.6255 22.2882 46.3326 22.6262 46.4284C22.6374 46.3326 22.6149 46.2143 22.7107 46.1975C22.9979 46.2707 22.9303 45.9778 23.2289 46.0454C23.2345 45.9609 23.2176 45.837 23.2965 45.8257C23.4035 45.8257 23.364 45.6961 23.4598 45.668H23.6795C23.7358 45.5666 23.7302 45.392 23.9667 45.4539C23.9836 45.3695 23.9555 45.2343 24.0456 45.223C24.192 45.2624 24.192 45.1047 24.2709 45.0766C24.3666 45.054 24.4793 45.0991 24.5694 45.0766C24.5525 44.9639 24.6089 44.902 24.6426 44.8569C24.6652 44.8062 24.7722 44.7555 24.7947 44.7048C25.0876 44.7499 25.0538 44.5809 25.1665 44.4795C25.1777 44.4739 25.2284 44.4795 25.2284 44.4795C25.3355 44.4795 25.3129 44.35 25.3918 44.3331C25.6509 44.2655 25.4537 44.1866 25.6171 44.1078H25.9156C25.8537 43.8768 26.1634 44.0176 26.0621 43.736C26.355 43.8543 26.2198 43.5445 26.355 43.5107H26.6648C26.6648 43.4206 26.6816 43.3248 26.8168 43.353C26.7211 43.0657 26.952 43.1896 27.0252 43.1333C27.0928 43.0939 27.014 43.0319 27.1041 42.9869C27.1379 42.9756 27.2224 43.0094 27.2505 42.9869C27.3238 42.9305 27.3181 42.8123 27.4026 42.7672C27.4589 42.7334 27.5716 42.7897 27.6279 42.7672C27.5491 42.6207 27.7631 42.6433 27.7856 42.6151C27.8082 42.5644 27.7406 42.4292 27.7856 42.3898C27.8082 42.356 27.9659 42.4236 28.0109 42.3898C28.0616 42.356 27.949 42.142 28.0729 42.1645C28.2419 42.1025 28.332 41.973 28.6024 42.0181C28.6136 41.9674 28.5911 41.9167 28.6024 41.866C28.6249 41.759 28.6869 41.8491 28.7657 41.7928C28.777 41.7759 28.7207 41.6576 28.7657 41.6463C28.7939 41.6238 28.946 41.6801 28.9798 41.6463C29.0192 41.5956 28.9291 41.4041 29.0473 41.421C29.1713 41.3534 29.2389 41.2126 29.498 41.2689C29.3177 41.0267 29.6613 41.1281 29.7233 41.0436C29.7458 41.0211 29.7176 40.9366 29.7233 40.8972C29.7458 40.7507 29.8415 40.8972 29.9542 40.8239C29.9711 40.807 29.9148 40.6944 29.9542 40.6719C29.9711 40.6493 30.0781 40.7 30.095 40.6719C30.1401 40.6043 30.0612 40.4466 30.1739 40.4522C30.3259 40.4916 30.309 40.3283 30.3935 40.2945C30.4273 40.2832 30.5062 40.317 30.54 40.2945C30.6019 40.2607 30.647 40.1311 30.7033 40.0748C30.7202 40.0523 30.8103 40.0973 30.8441 40.0748C30.9005 40.0354 30.8329 39.9622 30.9174 39.9227C30.9624 39.9058 31.0244 39.9396 31.0638 39.9227C31.0019 39.6636 31.1765 39.7481 31.2103 39.6298C31.2328 39.5679 31.2103 39.4778 31.2891 39.4778C31.5144 39.5003 31.5144 39.3088 31.7454 39.3313C31.7116 39.1285 31.8355 39.0835 32.0383 39.1004C31.965 38.9652 32.1565 38.9933 32.1791 38.9596C32.2241 38.8863 32.1453 38.7286 32.2636 38.7286C32.4044 38.7511 32.4044 38.6329 32.4832 38.5878H32.7085C32.7592 38.5202 32.7818 38.385 32.855 38.3625C32.8831 38.3512 32.9902 38.3794 33.0071 38.3625C33.0352 38.3343 32.9902 38.2329 33.0071 38.2048C33.0296 38.1935 33.1422 38.2273 33.1535 38.2048C33.1873 38.1541 33.131 38.0471 33.1535 37.9851C33.3225 37.9907 33.345 37.9795 33.3845 37.8387C33.407 37.726 33.4633 37.8161 33.5309 37.7598C33.5534 37.7373 33.5027 37.6246 33.5309 37.6134C33.576 37.5796 33.7055 37.6415 33.7618 37.6134C33.7731 37.5232 33.7337 37.3993 33.8294 37.3881C33.9364 37.3712 33.9646 37.2585 34.0491 37.236C34.2744 37.1796 34.2406 37.1233 34.3476 37.0163C34.3814 36.9881 34.4659 37.0388 34.4997 37.0163C34.5617 36.9712 34.4884 36.898 34.5786 36.8642C34.618 36.8417 34.6856 36.8811 34.725 36.8642C34.6293 36.5657 34.9672 36.7178 34.8771 36.4192C34.939 36.3911 35.0404 36.4474 35.1024 36.4192C35.1137 36.4024 35.0855 36.2841 35.1024 36.2728C35.1137 36.2503 35.2263 36.2897 35.2488 36.2728C35.2883 36.1996 35.1981 36.0475 35.3221 36.0475C35.5586 36.0531 35.5755 35.8447 35.8459 35.8954C35.7501 35.5856 35.9867 35.7321 36.0712 35.6701C36.0937 35.6532 36.0487 35.5518 36.0712 35.5237C36.0937 35.5068 36.2008 35.5462 36.2176 35.5237C36.2458 35.4617 36.1895 35.3603 36.2176 35.2984C36.3923 35.304 36.3979 35.2927 36.443 35.1463C36.4711 35.0393 36.5218 35.1294 36.5894 35.0674C36.6119 35.0562 36.5781 34.9379 36.5894 34.921C36.6457 34.8872 36.7584 34.9491 36.8203 34.921C36.6964 34.6393 37.0231 34.7802 36.9612 34.5549C37.1358 34.5605 37.1583 34.5436 37.1808 34.4028C37.2259 34.2676 37.3104 34.3915 37.4061 34.3296C37.4456 34.307 37.3949 34.1944 37.4061 34.1718C37.4287 34.1606 37.5526 34.1944 37.5638 34.1718C37.592 34.1211 37.5413 34.0198 37.5638 33.9522C37.8511 34.0648 37.7103 33.7438 37.93 33.8001V33.5804H38.1609C38.0482 33.2988 38.3693 33.4396 38.313 33.2087H38.527C38.4369 32.9101 38.6904 33.0341 38.758 32.989C38.7861 32.9665 38.7354 32.8594 38.758 32.8313C38.7861 32.8088 38.8931 32.8594 38.9213 32.8313C38.9326 32.7975 38.8931 32.7243 38.9213 32.6848C38.9382 32.544 39.034 32.6792 39.1353 32.606C39.1804 32.5722 39.1241 32.3863 39.2762 32.4652V32.2342H39.5071C39.4733 32.1159 39.5353 32.0596 39.5803 32.0089C39.5859 31.9977 39.6423 32.0202 39.6535 32.0089C39.6704 31.992 39.6254 31.8737 39.6535 31.8625C39.7042 31.823 39.8225 31.8906 39.8788 31.8625C39.7718 31.5752 40.0422 31.671 40.0985 31.6372C40.1267 31.6203 40.0985 31.5076 40.0985 31.4907C40.1267 31.4738 40.2393 31.5132 40.2506 31.4907C40.2844 31.4288 40.2224 31.333 40.2506 31.2654C40.3126 31.2373 40.4083 31.2936 40.4703 31.2654C40.5041 31.2541 40.4534 31.1302 40.4703 31.119C40.4872 31.0964 40.6111 31.1359 40.6223 31.119C40.6561 31.057 40.5998 30.9556 40.6223 30.888H40.842C40.7744 30.5951 41.0673 30.6627 40.9941 30.3698C41.2194 30.3642 41.1574 30.0826 41.4391 30.1445C41.4503 30.0938 41.4391 30.0431 41.4391 29.9924C41.4729 29.8911 41.5348 29.9755 41.6024 29.9192C41.6193 29.908 41.5743 29.7784 41.6024 29.7671C41.6531 29.739 41.7545 29.7953 41.8165 29.7671C41.7263 29.4799 42.0643 29.6207 41.9798 29.3222C42.0249 29.2996 42.1319 29.3503 42.1938 29.3222C42.2107 29.3109 42.1769 29.1983 42.1938 29.1757C42.2107 29.1588 42.329 29.1983 42.3403 29.1757C42.4417 29.0011 42.3065 28.8659 42.5656 28.9504V28.573C42.7008 28.6519 42.6895 28.4435 42.7064 28.4266C42.8754 28.3477 42.8923 28.4829 42.9373 28.2801C42.9655 28.1393 43.0613 28.2632 43.1627 28.2013C43.1852 28.19 43.1458 28.0717 43.1627 28.0548C43.1739 28.0379 43.3035 28.0717 43.3204 28.0548C43.3429 27.9985 43.2866 27.8859 43.3204 27.8295C43.4837 27.8352 43.5006 27.8239 43.5344 27.6831C43.5626 27.5761 43.6189 27.6606 43.6809 27.6042C43.7034 27.593 43.6583 27.469 43.6809 27.4521C43.7372 27.4183 43.8498 27.4803 43.9062 27.4521C43.8498 27.1424 44.1484 27.1987 44.0639 26.8607C44.3511 26.9565 44.1991 26.6129 44.5088 26.7086C44.4075 26.4214 44.7567 26.5566 44.6553 26.2637C44.7285 26.2355 44.8186 26.2918 44.8806 26.2637C44.8975 26.2524 44.8581 26.1285 44.8806 26.1172C44.8975 26.0947 45.027 26.1397 45.0327 26.1172C45.0496 26.0496 45.0101 25.9539 45.0327 25.8863C45.089 25.8637 45.1904 25.9201 45.258 25.8863C45.2861 25.875 45.2355 25.7567 45.258 25.7398C45.2861 25.7173 45.3932 25.7624 45.4044 25.7398C45.4439 25.6779 45.365 25.5089 45.4889 25.5089C45.7142 25.5709 45.5678 25.2498 45.8494 25.3681C45.7593 25.0696 46.0916 25.2104 46.0015 24.9175C46.0634 24.8893 46.1648 24.9513 46.2268 24.9175C46.2493 24.9118 46.2099 24.7823 46.2268 24.771C46.2437 24.7485 46.3563 24.7879 46.3789 24.771C46.3958 24.7372 46.3676 24.6584 46.3789 24.6189C46.407 24.4781 46.5028 24.6189 46.5985 24.5457C46.6267 24.5288 46.5647 24.4162 46.5985 24.3936C46.6211 24.3711 46.7337 24.4162 46.7394 24.3936C46.7732 24.3317 46.7168 24.2359 46.7394 24.1683C46.9309 24.1064 47.1505 24.0726 47.1167 23.8022C47.3815 23.8135 47.3589 23.5769 47.4209 23.4981C47.4322 23.4812 47.5617 23.5262 47.573 23.4981C47.6124 23.4474 47.5336 23.3178 47.573 23.2728L47.7138 23.1319C47.8771 22.9968 47.8828 23.0869 47.9391 22.9066C47.956 22.8165 47.9616 22.8728 48.018 22.8278C48.0743 22.7658 48.17 22.6025 48.3221 22.6813C48.2038 22.3997 48.5249 22.5349 48.4629 22.3039H48.6826C48.6432 22.1124 48.722 22.0336 48.9079 22.0786C48.8854 21.966 48.953 21.9097 48.9868 21.8533C48.998 21.8421 49.0544 21.8646 49.0656 21.8533C49.0825 21.8308 49.0375 21.7238 49.0656 21.7069C49.1163 21.6731 49.2346 21.7294 49.2797 21.7069C49.2571 21.5942 49.3191 21.5323 49.3585 21.4816C49.3698 21.4703 49.4261 21.4928 49.4317 21.4816C49.4543 21.4647 49.4092 21.3464 49.4317 21.3351C49.4824 21.2957 49.5951 21.3577 49.657 21.3351C49.6064 21.0253 49.9049 21.0704 49.8091 20.7324C50.1584 20.862 49.9049 20.3889 50.2541 20.5128C50.2203 20.31 50.2823 20.0453 50.3273 19.9946C50.5019 19.8087 50.4062 19.1272 50.4062 18.716C50.4062 18.2935 50.4569 17.7584 50.4062 17.5219C50.3836 17.4317 50.2879 17.4599 50.2541 17.381V16.7051C49.8711 16.8065 50.0908 16.3334 50.0288 16.1024C49.9556 16.0968 49.826 16.1137 49.8091 16.0292C49.8993 15.5561 49.55 15.4885 49.657 14.9816C49.5275 14.9872 49.4599 14.9252 49.4317 14.8407C49.4092 14.5873 49.4993 14.4014 49.3585 14.3901C49.1952 14.3845 49.3304 14.0409 49.2797 13.9452C49.1952 13.9001 49.1163 13.8607 49.0656 13.7931C49.0431 13.5903 49.1163 13.427 48.9868 13.4157C48.8065 13.4101 48.9642 13.1284 48.9079 13.0439C48.6207 13.1397 48.6939 12.8693 48.6826 12.6722C48.57 12.7004 48.5136 12.6271 48.4629 12.5933C48.4348 12.5821 48.3334 12.475 48.3221 12.4469C48.2883 12.3511 48.339 12.2441 48.3221 12.1484C48.2264 12.1427 48.1024 12.1596 48.0912 12.0808C48.0743 11.8667 47.9447 11.7653 47.9391 11.5513C47.8602 11.5344 47.7251 11.5626 47.7138 11.4781C47.7251 11.2415 47.4772 11.2584 47.573 10.9542C47.3139 11.0275 47.3139 10.8472 47.342 10.6613C47.2519 10.6219 47.1731 10.5712 47.1167 10.5036C47.0998 10.4755 47.1393 10.3854 47.1167 10.3572C47.0829 10.3009 47.0097 10.3572 46.9647 10.2783C46.9196 10.1713 46.9309 10.0925 46.9083 9.98544C46.7394 10.0249 46.8013 9.90095 46.7394 9.83336C46.7281 9.81083 46.6098 9.85589 46.5985 9.83336C46.5647 9.79393 46.6323 9.64185 46.5985 9.60805C46.5422 9.55736 46.3563 9.64748 46.3789 9.53483C46.3282 9.37711 46.2043 9.32079 46.2268 9.08985C46.0578 9.03916 45.9902 8.9434 45.9283 8.85892C45.9057 8.83639 45.7931 8.88145 45.7762 8.85892C45.6748 8.79132 45.6297 8.67304 45.5509 8.63924C45.5002 8.61108 45.4044 8.63924 45.4044 8.56602C45.3706 8.44774 45.1679 8.49843 45.258 8.26186C45.1397 8.25623 44.9989 8.27876 45.0327 8.11541H44.6553C44.7567 7.82252 44.4075 7.96333 44.5088 7.6648C44.2159 7.73803 44.323 7.4057 43.985 7.51836C43.9569 7.34375 43.8667 7.32122 43.7597 7.29305C43.6752 7.27052 43.7203 7.15787 43.6809 7.1466C43.6076 7.11281 43.4837 7.1804 43.388 7.1466C43.388 6.94383 43.157 6.98326 43.1627 6.76922H42.7064V6.54955C42.6276 6.49886 42.4023 6.61151 42.3403 6.54955C42.3234 6.53265 42.3516 6.40873 42.3403 6.39747C42.2276 6.36367 42.0925 6.43126 41.9798 6.39747V6.1778C41.7545 6.13837 41.3377 6.30171 41.4391 5.95249H40.6223C40.6899 5.68213 40.3295 5.84547 40.183 5.80041C40.0985 5.73282 40.1548 5.52441 39.9521 5.57511C39.2987 5.55821 38.4876 5.59764 38.0144 5.57511C37.9694 5.56947 37.93 5.50751 37.93 5.50751C37.7891 5.50751 37.654 5.592 37.485 5.57511C37.3949 5.56384 37.3836 5.51878 37.2653 5.50751C36.9161 5.46809 36.6457 5.37233 36.2965 5.42866C36.167 5.45119 36.0374 5.56384 35.9191 5.57511C35.6431 5.59764 35.277 5.51315 34.9559 5.57511C34.8546 5.592 34.8771 5.69903 34.7982 5.72719C34.6856 5.72719 34.7363 5.53568 34.5786 5.57511C34.3476 5.57511 34.3195 5.77225 34.128 5.80041C33.407 5.70466 33.1197 6.03698 32.4044 5.95249C32.5283 6.32988 32.0383 6.12147 31.8242 6.1778C31.92 6.53828 31.5482 6.32424 31.4356 6.39747C31.4074 6.43126 31.4468 6.57208 31.3623 6.54955H30.7653C30.6864 6.63404 30.6019 6.71289 30.4724 6.76922C30.3766 6.81428 30.1851 6.71289 30.095 6.76922C30.033 6.81428 30.1175 6.9044 30.0218 6.92693C29.8641 6.94946 29.6782 6.9044 29.498 6.92693C29.4811 7.00579 29.5205 7.12971 29.4304 7.1466C29.0079 7.05648 29.0079 7.38881 28.6024 7.29305C28.5911 7.38881 28.6136 7.50146 28.5348 7.51836C28.2306 7.41134 28.1349 7.64227 28.0729 7.6648C27.9997 7.70987 27.8645 7.63101 27.7856 7.6648C27.6899 7.7155 27.673 7.85631 27.5603 7.89011C27.4702 7.9239 27.3576 7.86758 27.2505 7.89011C27.2618 8.02529 27.1998 8.08725 27.1041 8.11541H26.6648C26.7323 8.36888 26.4282 8.22806 26.2874 8.26186C26.2761 8.35198 26.2986 8.4759 26.2141 8.4928C26.1128 8.50406 25.9156 8.46463 25.9156 8.56602C25.9043 8.735 25.6284 8.58855 25.5439 8.63924C25.5326 8.72937 25.5551 8.85328 25.4706 8.85892C25.0538 8.78006 25.0538 9.10112 24.6426 9.011C24.6089 9.20814 24.4737 9.28136 24.192 9.2363C24.192 9.32079 24.2089 9.45597 24.1244 9.4616C23.916 9.48413 23.7583 9.41091 23.7358 9.53483C23.7358 9.70381 23.4598 9.56299 23.3753 9.60805C23.3528 9.90658 23.0655 9.74887 22.8515 9.83336C22.8233 9.85025 22.8627 10.0136 22.7726 9.98544H20.5477C20.5477 9.85025 20.4689 9.81083 20.3168 9.83336V9.60805C20.2211 9.60242 20.1422 9.58552 20.1704 9.4616C20.0183 9.4616 19.9451 9.47287 19.9394 9.30952C19.9394 9.21377 19.8099 9.24756 19.793 9.16308C19.7198 8.90961 19.6522 9.10112 19.5677 8.93777C19.5226 8.85328 19.5902 8.72937 19.5677 8.63924C19.4494 8.67304 19.3874 8.59418 19.3367 8.56602C19.3198 8.54912 19.2072 8.43647 19.1959 8.41394C19.1621 8.32382 19.2184 8.20553 19.1959 8.11541C18.8298 8.14921 18.9481 7.7155 18.8185 7.51836C18.734 7.50146 18.6101 7.52962 18.5989 7.4395C18.5763 7.34938 18.6158 7.15787 18.52 7.1466C18.3961 7.1466 18.4749 6.94383 18.3736 6.92693C18.351 6.81428 18.244 6.79738 18.2158 6.696C18.1651 6.45379 18.0694 6.63404 17.9962 6.47632V6.1778C17.8385 6.21159 17.9004 6.10457 17.8385 6.02008C17.8103 5.95813 17.7427 5.92996 17.6976 5.87364C17.6526 5.80605 17.6807 5.73282 17.6244 5.64833C17.585 5.58637 17.5005 5.56384 17.4667 5.50751C17.4498 5.41739 17.5118 5.29911 17.4667 5.20335C17.3935 5.19209 17.2696 5.21462 17.2527 5.1245C17.2358 5.03438 17.2808 4.8316 17.1738 4.8316C17.0555 4.82597 17.1288 4.62883 17.0386 4.6063C17.0048 4.50491 16.9034 4.48238 16.8809 4.38099C16.8077 4.12753 16.7345 4.31904 16.6556 4.15569V3.8628C16.5092 3.93039 16.543 3.73325 16.5035 3.70508C16.4303 3.66002 16.2726 3.74451 16.2839 3.63749V3.33896C16.1881 3.30516 16.1318 3.23757 16.1318 3.11366C15.822 3.20378 15.9684 2.96721 15.9177 2.88835C15.8896 2.86582 15.7826 2.91652 15.76 2.88835C15.7375 2.87145 15.7826 2.74754 15.76 2.7419C15.6981 2.71374 15.5967 2.76443 15.5347 2.7419C15.5347 2.56729 15.5235 2.5504 15.3883 2.51097C15.2756 2.48844 15.3714 2.43774 15.3207 2.37015C15.2869 2.34762 15.1742 2.39268 15.163 2.37015C15.1235 2.30256 15.1855 2.20681 15.163 2.14485C15.0391 2.13358 14.9039 2.15612 14.9377 1.99277H14.5603C14.6504 1.69988 14.3237 1.84069 14.4138 1.54779C14.335 1.50273 14.104 1.60975 14.0477 1.54779C14.0308 1.53653 14.0533 1.39572 14.0533 1.39572C13.8844 1.35629 13.8168 1.42388 13.5915 1.39572V1.17041C13.5183 1.12535 13.2873 1.238 13.2141 1.17041L13.2366 1.02396C13.0733 0.984536 12.9268 1.04649 12.6903 1.02396V0.804289C12.5551 0.731065 12.3523 0.883146 12.2453 0.804289C12.234 0.793024 12.2678 0.646577 12.2678 0.646577C12.1101 0.612781 11.958 0.67474 11.7271 0.646577V0.421273C11.5074 0.376212 11.023 0.578989 11.13 0.201604C10.8597 0.111482 10.471 0.314256 10.1612 0.201604C10.1274 0.195971 10.1669 0.072054 10.1612 0.0551562C10.1274 0.0382584 10.0317 0.0551562 10.0317 0.0551562C9.58106 0.0157279 8.61788 -0.0462307 8.29683 0.0551562C8.2574 0.0664214 8.30809 0.2354 8.21234 0.201604H7.31112C7.42377 0.578989 6.95063 0.376212 6.7197 0.421273C6.70843 0.517027 6.73659 0.629679 6.65211 0.646577C6.55072 0.663475 6.35358 0.618417 6.34795 0.719804C6.33668 0.894414 6.07758 0.753596 5.97619 0.804289C5.96493 0.883146 5.98746 1.0127 5.90297 1.02396H5.60444C5.61571 1.15351 5.53122 1.19857 5.38477 1.17041C5.3735 1.26053 5.3904 1.38445 5.30591 1.39572C5.06934 1.37882 5.05808 1.59285 4.77082 1.54779C4.8722 1.84069 4.53425 1.69988 4.63563 1.99277C4.56804 2.0153 4.46102 1.96461 4.41033 1.99277C4.3878 2.00967 4.42159 2.12795 4.41033 2.14485C4.3878 2.16175 4.26951 2.11669 4.25825 2.14485C4.23009 2.17301 4.26951 2.25187 4.25825 2.2913C4.21882 2.43211 4.13433 2.29693 4.03294 2.37015C4.00478 2.38705 4.06111 2.49407 4.03294 2.51097C4.01605 2.5335 3.89776 2.48844 3.89213 2.51097C3.79638 2.64615 3.95972 2.73064 3.74005 2.7419C3.61613 2.74754 3.66119 3.00664 3.43589 2.88835C3.46968 3.00664 3.40209 3.06296 3.3683 3.11366C3.35703 3.13055 3.29507 3.10802 3.28381 3.11366C3.27254 3.13619 3.31197 3.24321 3.28381 3.2601C3.24438 3.2939 3.12046 3.23194 3.0585 3.2601C3.12609 3.57553 2.92332 3.61496 2.91206 3.8628C2.5741 3.72198 2.81067 4.15569 2.55157 4.08246C2.55157 4.20638 2.54031 4.33593 2.55157 4.45422C2.25304 4.36409 2.38822 4.70205 2.09533 4.6063V4.98369C1.88692 4.98932 2.0221 5.29911 1.71794 5.20335C1.76864 5.50188 1.51517 5.50751 1.57713 5.80041H1.35182C1.43631 6.144 1.14342 6.09331 1.18848 6.39747H0.968808C0.968808 6.59461 1.04203 6.8706 0.754768 6.76922C0.698442 6.85371 0.816727 7.07901 0.754768 7.1466C0.732238 7.15787 0.602688 7.12971 0.602688 7.1466C0.568892 7.25926 0.625218 7.4057 0.602688 7.51836H0.383016C0.343588 7.78309 0.411179 7.93517 0.383016 8.11541C0.383016 8.12668 0.236569 8.10415 0.225304 8.11541C0.140815 8.24496 0.30416 8.4759 0.225304 8.63924C-0.0337958 8.52096 0.185876 8.89271 0 8.85892L0 10.2164C0.197141 10.1544 0.146448 10.3628 0.225304 10.4304C0.253467 10.6332 0.197141 10.7515 0.225304 10.881C0.2591 10.9937 0.399914 10.943 0.383016 11.1063C0.371751 11.219 0.197141 11.1627 0.225304 11.3316C0.354854 11.3316 0.354853 11.3654 0.383016 11.4781C0.439342 11.8386 0.332323 12.4976 0.383016 12.8919C0.580157 12.8412 0.523832 13.0439 0.602688 13.1172C0.495669 13.8945 0.84489 14.2212 0.754768 14.9816C0.84489 14.9985 0.957542 14.9703 0.968808 15.0604V15.9616C1.05893 15.9673 1.17721 15.9447 1.18848 16.0292V16.6319C1.18848 16.7277 1.32929 16.6995 1.35182 16.7784V17.6739C1.43068 17.6852 1.56586 17.6627 1.57713 17.7472C1.60529 17.9781 1.51517 18.0795 1.57713 18.271C1.60529 18.3837 1.71231 18.44 1.71794 18.5695C1.74047 18.7385 1.71231 18.9187 1.71794 19.1609C1.80807 19.1778 1.93198 19.1497 1.94325 19.2454C1.95451 19.4538 1.90382 19.5327 1.94325 19.6904C1.95451 19.7862 2.06716 19.7636 2.09533 19.8425C2.15165 19.9833 2.0559 20.1523 2.09533 20.3663C2.19108 20.3663 2.32063 20.3438 2.32627 20.4395V20.8845C2.37696 20.9915 2.47271 20.9634 2.55157 21.1155C2.58537 21.2056 2.48398 21.3915 2.55157 21.4816C2.57973 21.5435 2.67549 21.4534 2.69802 21.5604C2.72618 21.7069 2.66422 21.8928 2.69802 22.0786C2.78251 22.0899 2.90079 22.0674 2.91206 22.1519V22.6813C3.17116 22.6025 3.03034 22.9066 3.0585 23.0531C3.14862 23.0643 3.27818 23.0418 3.28381 23.1319C3.31197 23.3798 3.22748 23.5656 3.3683 23.5769C3.53164 23.5825 3.3852 23.9205 3.43589 24.0219C3.79638 23.9149 3.6274 24.3317 3.66119 24.5457C4.02168 24.4331 3.81327 24.7992 3.89213 24.9175C3.90903 24.9625 4.06111 24.9006 4.03294 24.9963V25.5089C4.13433 25.5202 4.24698 25.5033 4.25825 25.5878C4.19066 25.8806 4.3709 25.8694 4.41033 25.9595C4.44412 26.0496 4.38217 26.1792 4.41033 26.2637C4.42159 26.2749 4.54551 26.32 4.55678 26.3369C4.6638 26.4608 4.56804 26.8551 4.70322 26.8607C4.8722 26.872 4.73702 27.1367 4.77082 27.2325C4.86657 27.2437 4.99612 27.2212 4.99612 27.3057C5.02992 27.3902 4.96232 27.5254 4.99612 27.6042C5.01865 27.6268 5.13694 27.593 5.15383 27.6042C5.18763 27.638 5.12567 27.7901 5.15383 27.8295C5.19889 27.8859 5.25522 27.8239 5.30591 27.8971C5.35661 27.9985 5.3904 28.0605 5.38477 28.2013C5.46926 28.2125 5.59881 28.19 5.60444 28.2801C5.61571 28.3759 5.57628 28.5674 5.67767 28.573C5.85228 28.5787 5.7002 28.8603 5.75652 28.9504C6.08885 28.8547 5.8917 29.1701 6.06068 29.1757C6.13954 29.1814 6.08885 29.2151 6.12827 29.2489C6.17333 29.2827 6.2184 29.3616 6.26909 29.401C6.36484 29.4911 6.34795 29.7164 6.34795 29.9192C6.4775 29.9136 6.53382 29.9924 6.48876 30.1445C6.59015 30.1558 6.70843 30.1276 6.7197 30.2178V30.5163C7.07455 30.4825 7.02949 30.8542 7.10271 31.119C7.38998 31.0176 7.31112 31.2879 7.31112 31.4907C7.45757 31.4175 7.43504 31.609 7.46883 31.6372C7.53643 31.6766 7.6885 31.5977 7.6885 31.716L7.6885 32.0089C7.82369 32.0033 7.87438 32.0878 7.84622 32.2342C7.94197 32.2455 8.05462 32.2286 8.06026 32.3074C8.03773 32.5834 8.37568 32.5102 8.29683 32.8313C8.43764 32.7637 8.39821 32.9496 8.43764 32.989C8.47144 33.0003 8.55593 32.9665 8.59535 32.989C8.70801 33.0397 8.61789 33.265 8.66295 33.3551C8.67421 33.3776 8.7925 33.3382 8.82066 33.3551C8.85446 33.3889 8.76997 33.5466 8.82066 33.5804C8.87699 33.6311 9.06286 33.5354 9.0516 33.6593V33.9522C9.17551 33.9353 9.21494 34.0254 9.18115 34.1718C9.23747 34.1831 9.2938 34.1662 9.35012 34.1718C9.44588 34.2 9.36139 34.2507 9.40645 34.3296C9.45714 34.3915 9.65428 34.3408 9.63175 34.476C9.54163 34.7745 9.87959 34.6281 9.7951 34.921C9.90212 34.8928 9.95281 34.9604 10.0148 34.9998C10.0148 34.9998 10.0035 35.0618 10.0148 35.0674C10.026 35.1012 10.1387 35.0505 10.1612 35.0674C10.1894 35.1181 10.1218 35.2646 10.1612 35.2984C10.2006 35.3434 10.3978 35.2533 10.3809 35.366C10.3077 35.6701 10.6118 35.5969 10.5273 35.8954C10.8146 35.7884 10.6738 36.0982 10.8991 36.0475V36.2728C11.1751 36.2052 11.085 36.3686 11.2089 36.4192C11.2539 36.4418 11.3497 36.4136 11.3497 36.4925C11.299 36.729 11.6088 36.577 11.4961 36.8642C11.6201 36.8361 11.6764 36.9037 11.7271 36.9374C11.7271 36.9487 11.7214 37.005 11.7271 37.0163C11.7327 37.0388 11.8679 36.9881 11.8792 37.0163C11.913 37.067 11.851 37.1796 11.8792 37.236C11.9242 37.2472 11.9749 37.2247 12.02 37.236C12.1383 37.2585 12.0481 37.3148 12.1101 37.3881C12.1101 37.4106 12.2396 37.3712 12.2453 37.3881C12.2734 37.45 12.2228 37.5458 12.2453 37.6134C12.51 37.5514 12.4312 37.7091 12.5438 37.7598C12.6001 37.7823 12.6903 37.7598 12.6903 37.8387C12.6396 38.064 12.9437 37.9232 12.848 38.2048C13.124 38.0978 12.9832 38.4076 13.2141 38.3625V38.5878C13.4957 38.5089 13.3887 38.723 13.5183 38.7286C13.6084 38.7343 13.552 38.768 13.5915 38.8075C13.8055 39.0046 13.8787 39.0609 14.1153 39.1004C14.0815 39.32 14.3237 39.3538 14.4138 39.4778C14.4364 39.5059 14.3913 39.596 14.4138 39.6298C14.549 39.7875 14.7011 39.8889 14.7856 40.0072C14.8363 40.0635 14.8926 40.0917 14.9377 40.1537C14.9602 40.1818 14.9264 40.2663 14.9377 40.2945C14.9827 40.3677 15.1123 40.3677 15.163 40.4522C15.1911 40.5085 15.1404 40.6099 15.163 40.6719C15.3601 40.6155 15.2475 40.807 15.3207 40.8972C15.377 40.9873 15.484 41.0155 15.5347 41.1281C15.5967 41.2577 15.4953 41.3365 15.5967 41.421C15.6305 41.4379 15.5854 41.5449 15.5967 41.5731C15.653 41.635 15.7319 41.6238 15.76 41.7195C15.7713 41.7984 15.715 41.9392 15.76 42.0181C15.7713 42.0519 15.9403 42.0068 15.9177 42.0913V43.9613C15.6305 43.8993 15.8107 44.3105 15.76 44.4795H15.5347V44.8569C15.3657 44.8456 15.3432 44.8625 15.3207 45.0033C15.2813 45.1104 15.2306 45.0202 15.163 45.0766C15.1404 45.0935 15.1855 45.2174 15.163 45.223C15.1066 45.2512 15.0053 45.2005 14.9377 45.223C15.0222 45.5215 14.6955 45.3864 14.7856 45.668C14.4814 45.6229 14.5378 45.9102 14.1885 45.8257C14.1773 45.9102 14.1998 46.0341 14.1153 46.0454C14.0196 46.0454 14.0477 46.1806 13.9632 46.1975H13.5915C13.6422 46.5467 13.276 46.4791 13.0733 46.5748C13.2085 46.9353 12.8142 46.7156 12.6903 46.7945C12.6508 46.8396 12.7353 47.048 12.6283 47.0198H12.2453C12.1946 47.2733 11.9355 47.3071 11.8003 47.3916C11.7327 47.431 11.7102 47.5211 11.6482 47.5436C11.5694 47.5774 11.4455 47.5155 11.3497 47.5436C11.3441 47.6338 11.361 47.7521 11.2708 47.7689H10.9892C10.9498 47.8534 10.8766 47.9154 10.7583 47.9154C10.7583 48.0112 10.7752 48.1294 10.6907 48.1407H10.3809C10.3696 48.2308 10.3922 48.3547 10.302 48.366C10.0542 48.2871 10.0429 48.473 9.90212 48.5181C9.85143 48.5294 9.7951 48.5406 9.71061 48.5068C9.68808 48.5575 9.65428 48.58 9.63739 48.6195C9.45714 48.6983 9.30506 48.7828 9.15298 48.8842C9.14172 48.8898 9.11919 48.8898 9.11919 48.8898C9.08539 48.9011 9.08539 48.9236 9.07976 48.9405C8.99527 48.9912 8.91641 49.0419 8.84319 49.1095H8.82066V49.1377C8.7587 49.1771 8.70801 49.2222 8.67421 49.2616H8.66295C7.36181 50.4163 6.48876 52.3201 6.48876 52.3201V52.7651C6.24656 52.6918 6.38737 53.0016 6.34795 53.1481C6.24656 53.1368 6.1846 53.1762 6.12827 53.2157C6.23529 53.5198 6.00436 53.6719 5.97619 53.886C5.95366 54.0662 5.99309 54.2408 5.97619 54.4886H5.75652C5.79032 55.097 5.50869 55.3842 5.60444 56.0545C5.48052 56.0601 5.54248 56.246 5.38477 56.2066V57.5528H5.15383V59.8622C5.24396 59.8734 5.3735 59.8509 5.38477 59.9354V60.7634C5.50869 60.7352 5.40167 60.9211 5.46363 60.983C5.48052 61.0225 5.62134 60.9661 5.60444 61.0563V62.0307C5.60444 62.1265 5.72836 62.0983 5.75652 62.1771V62.8474C5.77342 63.0333 6.01562 62.9882 5.97619 63.2248C5.91423 63.7261 6.23529 63.8726 6.12827 64.4189C6.21276 64.4302 6.33668 64.4077 6.34795 64.4922C6.30288 64.8752 6.56198 64.9822 6.48876 65.3877C6.65211 65.3934 6.7197 65.3821 6.7197 65.5398C6.73096 65.6919 6.99006 65.5961 6.95063 65.7651V66.1312C7.13651 66.0749 7.02949 66.2833 7.10271 66.3565C7.13088 66.396 7.26606 66.3396 7.2379 66.4298C7.29422 66.672 7.46883 66.8128 7.46883 67.1057C7.56459 67.1169 7.68287 67.0888 7.6885 67.1789C7.71104 67.2803 7.67161 67.4774 7.76736 67.4831C7.94197 67.4887 7.79552 67.7591 7.84622 67.8548C8.13911 67.7591 8.05462 68.0294 8.06026 68.2209C8.37568 68.1421 8.2236 68.3561 8.29683 68.4519C8.34752 68.5082 8.42074 68.4293 8.43764 68.5251C8.4658 68.6152 8.42074 68.7335 8.43764 68.8236C8.52776 68.8405 8.64605 68.8124 8.66295 68.9025C8.59535 69.1954 8.89388 69.1278 8.82066 69.415C8.89952 69.4319 9.0178 69.4038 9.0516 69.4995C9.10229 69.6572 9.20368 69.7868 9.18115 70.0177C9.45151 69.9614 9.36702 70.1191 9.47967 70.1642C9.54163 70.1867 9.63175 70.1586 9.63175 70.243C9.55853 70.5416 9.85143 70.4683 9.7951 70.7725C10.0711 70.6599 9.92465 70.9753 10.1612 70.9133C10.0542 71.2062 10.3358 71.071 10.3809 71.2175C10.3077 71.5104 10.6118 71.4428 10.5273 71.7357C10.8146 71.623 10.6738 71.9441 10.8991 71.8878V72.1131C11.1976 72.0117 11.0512 72.3553 11.3497 72.2595C11.3722 72.3215 11.3272 72.4229 11.3497 72.4848C11.361 72.5073 11.4792 72.4567 11.4961 72.4848C11.5243 72.5073 11.4792 72.6144 11.4961 72.6369C11.5863 72.6932 11.7214 72.6425 11.7271 72.7833C11.7271 72.8735 11.7721 72.8171 11.8003 72.8566C11.8228 72.9073 11.8228 73.0368 11.8792 73.0819C11.9017 73.11 12.0707 73.1326 12.1101 73.1495C12.1214 73.1664 12.2396 73.2846 12.2453 73.3015C12.2678 73.3522 12.234 73.4086 12.2453 73.4536C12.5438 73.3635 12.4086 73.7015 12.6903 73.6001C12.7241 73.662 12.6621 73.7691 12.6903 73.831C12.7072 73.8423 12.8311 73.8085 12.848 73.831C12.8705 73.8423 12.8198 73.9606 12.848 73.9775C12.9156 74.0225 13.0733 73.938 13.0733 74.0563C13.0169 74.2816 13.3211 74.1408 13.2141 74.4224H13.5915C13.5915 74.5576 13.6703 74.597 13.8168 74.5689C13.8168 74.7491 13.828 74.766 13.9632 74.7998C14.0702 74.828 13.9914 74.8787 14.0477 74.9463C14.0646 74.9744 14.166 74.9294 14.1885 74.9463C14.2449 74.997 14.1885 75.1547 14.2674 75.1772H14.5603C14.549 75.3068 14.6335 75.3462 14.7856 75.318C14.6955 75.6165 15.0222 75.4757 14.9377 75.7686H15.3207C15.2418 76.039 15.6755 75.8024 15.5347 76.1404C15.8333 76.0953 15.8333 76.3432 16.1318 76.2925V76.5121C16.205 76.5628 16.4416 76.4502 16.5035 76.5121C16.5204 76.5234 16.4866 76.6586 16.4866 76.6586C16.6556 76.7036 16.7964 76.6417 17.0386 76.6642C17.0781 76.6867 17.0668 76.867 17.095 76.8839C17.2696 76.9909 17.3935 76.867 17.4667 76.9571C17.5005 76.9796 17.5963 76.9458 17.6244 76.9571C17.6301 76.9684 17.6132 77.0303 17.6244 77.0416C17.7427 77.1824 18.3003 76.9233 18.4468 77.0416V77.2613H19.793V77.4866H21.5053C21.5222 77.3964 21.5053 77.2725 21.5729 77.2613H22.3333C22.4685 77.1937 22.5361 77.0754 22.7107 77.0416C22.8515 77.0022 23.0092 77.0754 23.15 77.0416C23.2458 77.0191 23.2232 76.9177 23.2965 76.8839C23.4598 76.8219 23.595 76.9402 23.7358 76.8839C23.7696 76.7994 23.7302 76.6755 23.8203 76.6642H24.192C24.1357 76.5121 24.3216 76.5572 24.3498 76.5121C24.4004 76.4333 24.3497 76.2868 24.4849 76.2925C24.7271 76.3826 24.6764 76.1742 24.7947 76.1404C24.8792 76.1178 24.9975 76.1629 25.0989 76.1404C25.0989 75.9883 25.0876 75.932 25.2453 75.9263C25.3355 75.9151 25.3129 75.7855 25.3918 75.7686C25.6509 75.7123 25.4537 75.6222 25.6171 75.5433H25.9156C25.803 75.2617 26.1184 75.4025 26.0621 75.1772C26.2367 75.1828 26.2479 75.1659 26.2874 75.0195C26.3099 74.9181 26.4057 75.0082 26.4394 74.9463C26.4958 74.8618 26.4958 74.7153 26.5859 74.5689C26.6535 74.4675 26.7887 74.4224 26.8168 74.3492C26.845 74.2253 26.845 74.169 27.0252 74.2028V73.831C27.3745 73.9662 27.1379 73.5268 27.4026 73.6001V73.2283C27.8307 73.3973 27.4477 72.7721 27.7856 72.8566V72.2595H28.0109V71.5104C28.1405 71.5104 28.1349 71.4822 28.1518 71.3639C28.1912 71.1724 28.1799 70.8345 28.1518 70.6204C28.1461 70.519 28.0335 70.5472 28.0109 70.4683C27.9321 70.2599 28.0729 70.0177 28.0109 69.7924C27.9208 69.7812 27.7969 69.8093 27.7856 69.7192V69.201C27.5265 69.2799 27.6674 68.9644 27.6279 68.8236C27.5378 68.8124 27.4252 68.8405 27.4026 68.7504V68.4519C27.2787 68.4575 27.2224 68.3786 27.2505 68.2209C27.183 68.2097 27.0478 68.2378 27.0252 68.1533C27.1041 67.8492 26.9126 67.9393 26.8168 67.8548C26.7774 67.8379 26.8281 67.7309 26.8168 67.7027C26.7887 67.6858 26.676 67.7309 26.6648 67.7027C26.6253 67.6464 26.6873 67.5338 26.6648 67.4831C26.5465 67.5056 26.4901 67.438 26.4394 67.4042C26.3888 67.376 26.3437 67.2803 26.2874 67.2578C26.3437 66.8297 25.8537 66.9367 25.9156 66.5143C25.803 66.5424 25.7297 66.4692 25.6903 66.4298C25.679 66.4185 25.7016 66.3678 25.6903 66.3565C25.6678 66.334 25.5551 66.3791 25.5439 66.3565C25.5101 66.3115 25.5664 66.1932 25.5439 66.1312C25.2453 66.2326 25.3805 65.889 25.0989 65.9848C25.1496 65.6863 24.8511 65.7313 24.9412 65.3877C24.5694 65.5004 24.7947 65.1286 24.7215 65.016C24.6764 64.954 24.5863 65.0441 24.5694 64.9428C24.5244 64.7512 24.5244 64.2499 24.5694 64.0472C24.5694 64.0303 24.7046 64.0528 24.7215 64.0472C24.7835 63.9796 24.6652 63.743 24.7215 63.6698H25.02C25.082 63.5064 25.1158 63.4557 25.2453 63.4501C25.3693 63.4445 25.3186 63.1798 25.5439 63.2924C25.5101 63.1798 25.5777 63.1234 25.6171 63.0727C25.6227 63.0615 25.679 63.084 25.6903 63.0727C25.7185 63.0558 25.6678 62.9376 25.6903 62.9263C25.7466 62.8869 25.8537 62.9545 25.9156 62.9263C25.8537 62.6672 26.017 62.746 26.0621 62.6221C26.079 62.5658 26.0621 62.4813 26.1409 62.4813H26.4394C26.4507 62.363 26.4563 62.3349 26.5859 62.3292C26.7436 62.3236 26.7999 61.9969 27.0252 62.0983C27.0252 61.9687 27.1041 61.9349 27.2505 61.9575C27.2224 61.8392 27.2956 61.7772 27.3238 61.7265C27.3688 61.6815 27.4477 61.6308 27.4758 61.5857H27.7856C27.6786 61.2872 27.949 61.3604 28.1518 61.3604C28.0729 61.045 28.2869 61.2027 28.3771 61.1295C28.439 61.0844 28.3602 61.0056 28.4559 60.983C28.546 60.9605 28.6531 60.9999 28.7657 60.983C28.6531 60.6901 28.9291 60.7634 29.1206 60.7634C29.1037 60.6282 29.1938 60.5831 29.3459 60.6113C29.3571 60.5212 29.3346 60.4029 29.4304 60.3804C29.5374 60.3691 29.7176 60.4198 29.7233 60.3128C29.7289 60.1438 30.0105 60.2846 30.095 60.2339C30.1063 60.155 30.0781 60.0255 30.1739 60.0142H30.4724C30.4555 59.879 30.54 59.8396 30.7033 59.8622C30.7146 59.772 30.6752 59.6594 30.7653 59.6425H31.0638C30.9681 59.3439 31.2384 59.4228 31.4356 59.4172C31.4356 59.282 31.5144 59.2482 31.6609 59.2707C31.6721 59.175 31.6496 59.0511 31.7454 59.0454C31.8355 59.0342 32.0326 59.068 32.0383 58.9666C32.0552 58.7976 32.3199 58.944 32.4044 58.899C32.3762 58.7807 32.4551 58.7187 32.4832 58.668C32.5283 58.623 32.6015 58.5779 32.6353 58.5216H33.0071C32.9113 58.2287 33.1873 58.3019 33.3845 58.2963C33.3563 58.178 33.4182 58.1217 33.452 58.071C33.4858 58.0259 33.576 57.9752 33.6154 57.9189H33.9027C33.9139 57.8344 33.8914 57.7049 33.9759 57.6936C34.0716 57.6485 34.2575 57.7499 34.3476 57.6936C34.4152 57.6542 34.3307 57.5697 34.4265 57.5528C34.5617 57.519 34.6743 57.5697 34.8771 57.5528C34.8884 57.4627 34.8715 57.3331 34.9559 57.3275C35.3333 57.4007 35.4009 57.2036 35.6319 57.1754C36.2796 57.0853 37.0738 57.2374 37.7891 57.1754C37.7553 57.3275 37.9187 57.3162 37.93 57.4007C37.9638 57.4908 37.9187 57.6035 37.93 57.6936C38.0145 57.7049 38.144 57.6823 38.1609 57.7781V58.2963H37.93C37.9863 58.7582 37.9018 59.1074 37.7891 59.4172H37.5638C37.6202 59.6819 37.4568 59.5918 37.4061 59.7157C37.378 59.8227 37.4174 59.8509 37.2653 59.8622C37.147 59.8678 37.1808 60.1325 36.9612 60.0142C36.9949 60.1325 36.9274 60.1888 36.8879 60.2339C36.8823 60.2452 36.8316 60.2283 36.8316 60.2283C36.7978 60.2564 36.8372 60.3691 36.8203 60.3804C36.7584 60.4254 36.6457 60.3578 36.5894 60.3804C36.5838 60.4367 36.6007 60.493 36.5894 60.5324C36.5612 60.6451 36.5218 60.555 36.443 60.6113C36.4204 60.6282 36.4599 60.7408 36.443 60.7634C36.3923 60.7859 36.2458 60.7239 36.2176 60.7634C36.167 60.8141 36.2627 60.9999 36.1388 60.983C35.9191 60.9605 35.9079 61.152 35.6938 61.1295C35.8065 61.4336 35.5248 61.3097 35.4685 61.3604C35.4235 61.3999 35.5136 61.6026 35.4009 61.5857H35.1024C35.1137 61.7153 35.0235 61.7547 34.8771 61.7265C34.8715 61.8167 34.8884 61.9462 34.7982 61.9575C34.5842 61.9349 34.5786 62.1208 34.3476 62.0983C34.4321 62.4137 34.2237 62.2616 34.128 62.3292C34.0547 62.3687 34.1505 62.4475 34.0491 62.4813C33.9928 62.4982 33.8914 62.4588 33.8294 62.4813C33.8576 62.6784 33.7224 62.7235 33.5309 62.701C33.5534 62.8193 33.4915 62.8756 33.452 62.9263C33.4464 62.9376 33.3901 62.915 33.3845 62.9263C33.3563 62.9432 33.407 63.0615 33.3845 63.0727C33.3225 63.1122 33.2211 63.0446 33.1535 63.0727C33.2718 63.3544 32.9507 63.2192 33.0071 63.4501H32.7818C32.8662 63.8162 32.4494 63.6473 32.5565 64.0472C32.2861 63.9739 32.5283 64.4077 32.1791 64.2668V64.6442C31.9538 64.5879 32.0889 64.8977 31.8242 64.7907C31.8805 65.2244 31.582 65.3089 31.6609 65.7651C31.2272 65.6018 31.6496 66.3002 31.2103 66.1312C31.3004 66.7227 31.0638 66.9874 31.0638 67.4831C30.9174 67.4605 30.9174 67.5844 30.8441 67.6351V69.1278C30.9286 69.1616 31.0131 69.201 31.0638 69.2686C31.0863 69.4883 31.0413 69.5615 31.0638 69.7192C31.0863 69.8206 31.1877 69.7868 31.2103 69.8657C31.2835 70.0177 31.1765 70.1811 31.2103 70.3895C31.582 70.2599 31.3623 70.6655 31.4356 70.7725C31.475 70.8176 31.6947 70.7274 31.6609 70.8345V71.1386C31.8636 71.071 31.751 71.2907 31.8242 71.3639C31.8974 71.4541 31.9819 71.3752 32.0383 71.5104C32.0608 71.578 32.0101 71.6681 32.0383 71.7357C32.1678 71.6625 32.1453 71.8596 32.1791 71.8878C32.2523 71.9272 32.41 71.8483 32.4044 71.9554V72.2595C32.5452 72.2482 32.5846 72.3327 32.5565 72.4848C32.8494 72.3834 32.7142 72.727 33.0071 72.6369C32.9113 72.9298 33.2605 72.7833 33.1535 73.0819C33.2887 73.0537 33.3281 73.1213 33.3845 73.1495C33.3901 73.1607 33.3676 73.2171 33.3845 73.2283C33.4013 73.2565 33.5196 73.2002 33.5309 73.2283C33.5647 73.2846 33.5027 73.3917 33.5309 73.4536C33.576 73.4649 33.6323 73.4424 33.6773 73.4536C33.79 73.4762 33.7055 73.5325 33.7618 73.6001C33.7731 73.6226 33.8914 73.5832 33.9027 73.6001C33.9364 73.662 33.8801 73.7634 33.9027 73.831C34.2068 73.7296 34.0491 74.0732 34.3476 73.9775V74.2028H34.725C34.7532 74.2647 34.6968 74.3605 34.725 74.4224C34.7363 74.4506 34.8546 74.4055 34.8771 74.4224C34.8884 74.445 34.8546 74.5632 34.8771 74.5689C35.0517 74.659 35.1756 74.5351 35.1024 74.7998C35.4347 74.7041 35.4009 75.0082 35.6938 74.9463V75.1772H36.0712C36.0092 75.4025 36.3359 75.2617 36.2176 75.5433C36.4148 75.549 36.6795 75.4757 36.5894 75.7686C36.6739 75.8137 36.9048 75.7123 36.9612 75.7686C36.9837 75.7799 36.9499 75.9151 36.9612 75.9263C37.1189 75.9601 37.1977 75.8982 37.4061 75.9263C37.4061 76.0165 37.4568 76.084 37.485 76.1404H37.93C37.8567 76.3995 38.1665 76.2587 38.313 76.2925V76.5121C38.527 76.5741 38.7354 76.4333 38.9213 76.5121C38.9326 76.5234 38.8931 76.6473 38.9213 76.6642C39.0396 76.805 39.4339 76.5628 39.6535 76.6642V76.8839C40.0985 76.974 40.5998 76.7712 40.9941 76.8839C41.011 76.8895 40.9828 77.0247 40.9941 77.0416C41.011 77.0585 41.1293 77.036 41.1462 77.0416C41.5348 77.081 42.0023 77.081 42.4135 77.0416C42.6726 77.0134 42.6276 77.0022 42.7853 77.0416C42.8698 77.0585 43.2866 77.0641 43.3204 77.0416C43.3936 76.9515 43.3936 77.0022 43.5344 76.9571C44.2216 76.7994 45.1059 76.9289 46.0015 76.8839C46.0015 76.7994 45.9902 76.6755 46.0691 76.6642H46.6774C46.7732 76.6642 46.7337 76.5347 46.8238 76.5121C46.9478 76.4783 47.1167 76.5516 47.2632 76.5121C47.3139 76.5009 47.4772 76.3263 47.6462 76.2925C47.7307 76.2756 47.8602 76.3263 47.9391 76.2925C47.9842 76.2756 47.9391 76.1629 48.018 76.1404C48.1193 76.1178 48.3052 76.1854 48.401 76.1404C48.446 76.1122 48.446 75.9376 48.5474 75.9263H48.9079C48.8741 75.763 49.0093 75.8193 49.0656 75.7686C49.1051 75.7405 49.1163 75.6503 49.1332 75.6222C49.1557 75.594 49.2628 75.6447 49.2797 75.6222C49.3473 75.5602 49.2909 75.38 49.3585 75.318C49.4261 75.2561 49.5895 75.2955 49.657 75.2448C49.6401 75.0195 49.826 75.0139 49.8091 74.7998C50.057 74.8899 50.0006 74.659 50.1077 74.5689C50.1302 74.5463 50.2203 74.5914 50.2541 74.5689C50.2992 74.5351 50.2428 74.3492 50.4062 74.4224C50.4569 73.9155 50.4174 73.7803 50.4062 73.2283C50.2654 73.3015 50.2879 73.1044 50.2541 73.0819C50.1978 73.0368 50.0232 73.1157 50.0288 73.003V72.6369C49.9781 72.6256 49.933 72.6482 49.888 72.6369C49.7641 72.6087 49.8711 72.5524 49.8091 72.4848C49.7866 72.4567 49.6683 72.5073 49.657 72.4848C49.6401 72.4285 49.6965 72.2933 49.657 72.2595C49.6064 72.2088 49.4261 72.2989 49.4317 72.1863C49.381 72.0229 49.2571 71.9723 49.2797 71.7357C48.9755 71.8258 49.122 71.5949 49.0656 71.5104C49.0431 71.4878 48.9417 71.5329 48.9079 71.5104C48.8966 71.4935 48.9304 71.3752 48.9079 71.3639C48.846 71.3358 48.7502 71.3865 48.6826 71.3639C48.8065 71.1781 48.5305 71.1386 48.4629 71.0654C48.4348 71.0372 48.4911 70.9527 48.4629 70.9133C48.446 70.8908 48.339 70.9302 48.3221 70.9133C48.3052 70.8964 48.339 70.7781 48.339 70.7781C48.2602 70.7387 48.1531 70.7838 48.0912 70.7725C48.0743 70.7049 48.1193 70.6035 48.0912 70.5416C48.0743 70.519 47.956 70.5528 47.9391 70.5416C47.9222 70.5247 47.9616 70.4064 47.9391 70.3895C47.8771 70.3613 47.787 70.4177 47.7138 70.3895V70.1642C47.4491 70.1079 47.2407 69.9727 47.1167 69.8657C47.0323 69.7924 46.9083 69.7023 46.9647 69.5728C46.852 69.6009 46.8013 69.5333 46.7394 69.4995C46.7337 69.4883 46.7619 69.4319 46.7394 69.415C46.7281 69.3925 46.6098 69.4432 46.5985 69.415C46.5591 69.37 46.638 69.2348 46.5985 69.201C46.5647 69.1785 46.4746 69.2066 46.4465 69.201C46.3394 69.1672 46.4352 69.1222 46.3789 69.0489C46.3507 69.0208 46.2381 69.0715 46.2268 69.0489C46.2043 68.9926 46.255 68.8799 46.2268 68.8236C45.8832 68.9137 45.9339 68.6152 45.6185 68.6715C45.7593 68.3223 45.2861 68.5758 45.4044 68.2209H45.0327C45.0834 68.0013 44.7736 68.1364 44.8806 67.8548C44.813 67.8492 44.7341 67.8548 44.6553 67.8548C44.5764 67.8492 44.6102 67.7872 44.5764 67.776C44.4976 67.7478 44.3455 67.7196 44.2835 67.6351C44.3849 67.3253 44.1484 67.3648 44.0639 67.2578V66.3565C44.2835 66.4523 44.2723 66.2214 44.3511 66.1312C44.3849 66.1143 44.475 66.1594 44.5088 66.1312C44.5708 66.0918 44.4976 66.0186 44.5764 65.9848C44.6666 65.9566 44.7961 66.013 44.8806 65.9848C44.8468 65.8665 44.92 65.8102 44.9595 65.7651C44.9876 65.7144 45.0665 65.6581 45.1059 65.6187H45.3199C45.3706 65.5511 45.3932 65.4103 45.4889 65.3877C45.7311 65.3314 45.5396 65.2413 45.6973 65.1624C45.9395 65.1681 45.917 64.9315 46.2268 65.016C46.1198 64.7344 46.4352 64.8695 46.3789 64.6442C46.7056 64.7062 46.5647 64.2894 46.9647 64.4189C46.914 64.1936 47.235 64.3288 47.1167 64.0472C47.3026 64.1655 47.342 63.8951 47.4209 63.8219C47.4434 63.7993 47.5336 63.8444 47.573 63.8219C47.6011 63.8106 47.5505 63.6923 47.573 63.6698C47.6011 63.6585 47.7082 63.6923 47.7138 63.6698C47.7476 63.6135 47.6969 63.5121 47.7138 63.4501C47.787 63.4276 47.8828 63.4839 47.9391 63.4501C47.9616 63.4389 47.9222 63.3149 47.9391 63.2924C47.956 63.2755 48.0743 63.3206 48.0912 63.2924C48.1081 63.2699 48.0743 63.191 48.0912 63.1516C48.125 63.0108 48.2207 63.146 48.3221 63.0727C48.339 63.0558 48.3052 62.9488 48.3221 62.9263C48.339 62.9038 48.446 62.9488 48.4629 62.9263C48.4967 62.8643 48.4348 62.7629 48.4629 62.701H48.6826C48.57 62.4025 48.8741 62.47 48.9079 62.4025C48.9304 62.3687 48.9079 62.2954 48.9079 62.2504C48.953 62.0927 49.1051 62.149 49.0656 61.9575C49.2346 61.9631 49.2571 61.9462 49.2797 61.8054C49.3078 61.6984 49.3585 61.7885 49.4317 61.7265C49.4599 61.7096 49.4092 61.6083 49.4317 61.5857C49.4824 61.535 49.6401 61.5857 49.657 61.5012V61.1295C49.8317 61.1914 49.826 60.9943 49.888 60.9154C49.933 60.8253 49.9556 60.8197 50.0288 60.7634C50.057 60.7352 50.0119 60.6338 50.0288 60.6113C50.0739 60.5719 50.209 60.6394 50.2541 60.6113V60.2339C50.5019 60.3128 50.378 60.003 50.4062 59.8622H50.6315V59.4172C50.8906 59.4904 50.7554 59.1862 50.7779 59.0454H51.0032C51.0483 58.8314 50.9356 58.6624 51.0032 58.5216C51.0145 58.4991 51.1384 58.5385 51.1553 58.5216C51.2849 58.3864 51.0652 58.0485 51.1553 57.8513C51.2736 57.8457 51.206 57.6542 51.3806 57.6936V56.5783H51.6059V53.1481C51.2173 53.2495 51.4257 52.7651 51.3806 52.5454Z" fill="#FFBC4A"/>
</svg>
