<svg width="419" height="608" viewBox="0 0 419 608" fill="none" xmlns="http://www.w3.org/2000/svg">
<path fill-rule="evenodd" clip-rule="evenodd" d="M196.206 134.759C187.353 129.761 173.675 130.766 165.205 132.672C127.19 141.225 127.172 143.222 108.073 151.265C72.1363 166.398 60.3113 152.479 41.4683 162.153C18.6233 173.881 10.0243 188.228 5.72528 194.99C1.13428 202.211 -0.501717 200.684 0.130283 197.032C0.827283 192.998 0.793254 189.948 3.61325 181.366C15.0193 148.344 16.4593 122.493 87.1313 122.507C105.93 122.511 103.274 121.699 145.3 117.542C162.805 115.81 176.385 117.55 186.458 122.641C179.777 115.335 177.187 113.473 165.305 106.319C153.019 98.9212 123.628 73.5992 118.778 68.5092C102.951 51.8972 75.4003 33.3922 79.5373 19.9532C82.0593 11.7632 94.4143 14.8022 96.1453 14.9792L97.7033 15.3112C112.49 19.3142 110.646 17.2122 125.666 14.0882C135.274 12.0902 136.874 18.2502 157.446 18.9382C169.527 19.3422 190.842 26.2162 202.533 40.2542C218.248 59.1222 225.636 65.0312 222.769 88.1512C222.782 88.1072 222.795 88.0632 222.808 88.0182C247.799 34.3652 307.627 12.7832 316.849 9.45722C322.98 7.24522 367.524 -8.82278 398.278 6.65722C373.529 9.00722 370.248 2.53422 353.18 27.3022C340.825 45.2322 341.282 47.9122 308.799 78.1932C305.447 81.3172 281.351 103.78 263.295 115.59C265.02 115.397 266.65 115.31 268.157 115.331C298.439 115.748 301.209 123.684 321.544 141.955C327.863 147.633 337.444 150.8 370.613 178.428C328.842 176.682 340.921 182.485 291.543 189.027C278.629 190.738 269.094 190.726 261.688 189.726C255.214 208.652 253.565 208.66 251.017 231.508C251.617 233.378 252.218 235.286 252.819 237.234C254.949 234.708 257.511 232.265 260.562 229.934C286.994 209.735 306.792 216.379 307.449 216.888L303.719 219.627C297.28 222.123 293.328 225.891 292.539 226.643C289.546 229.495 270.848 242.541 265.995 249.64C264.13 252.369 261.69 255.946 259.173 259.674C264.186 279.182 268.641 301.798 271.216 327.82C276.165 343.111 280.512 359.654 283.662 378.108C327.998 373.919 338.515 404.639 343.014 410.42L212.311 434.412C212.341 434.367 236.06 388.211 275.751 379.347C272.008 365.022 267.156 348.176 261.662 330.298L254.488 328.932C244.892 328.912 244.839 328.714 236.307 331.253C229.496 333.279 210.726 335.658 207.332 335.755C196.256 336.073 180.361 339.996 177.476 334.155C175.718 330.595 181.136 327.132 181.815 326.566L182.481 326.113C189.085 322.087 187.74 322.07 192.11 315.652C194.906 311.546 197.482 312.966 205.083 305.783C209.546 301.566 219.424 296.12 228.18 296.458C241.515 296.972 245.607 295.946 253.721 308.605C256.289 312.611 256.327 316.872 258.725 320.837C247.633 285.454 234.426 247.154 222.554 216.894C216.288 212.436 209.722 210.813 202.309 204.728C191.225 195.631 191.722 188.295 182.164 181.881C162.665 194.582 126.937 217.168 115.835 230.848C97.5833 253.337 60.6473 299.032 58.7533 304.612C43.7773 263.87 44.4013 217.678 99.8423 181.998C141.973 154.884 178.379 147.283 203.212 146.212L196.206 134.759ZM221.492 96.2162C221.36 96.9212 221.221 97.6392 221.075 98.3722C218.804 109.761 211.638 116.706 210.335 128.74C209.584 135.671 213.537 141.492 213.863 146.033C214.77 144.964 215.702 143.76 216.656 142.395C219.952 137.681 224.07 133.574 228.608 130.08C223.973 120.319 220.61 113.789 221.492 96.2162ZM257.56 189.027C247.91 187.044 242.268 183.265 236.76 179.971C236.64 182.598 236.323 185.134 235.885 187.625C238.743 196.385 242.794 207.099 247.188 219.959C247.213 219.712 247.24 219.463 247.268 219.211C249.401 211.355 250.134 207.531 257.56 189.027ZM233.119 177.901C229.798 176.15 226.23 174.74 221.62 174.139C222.321 183.804 223.684 192.975 225.557 201.822C234.09 195.66 233.469 184.572 233.119 177.901ZM203.87 174.402C200.88 174.105 198.082 173.445 196.128 172.157C195.11 172.921 194.385 173.503 193.965 173.84C193.669 174.078 193.321 174.343 192.925 174.636C192.079 179.082 191.516 186.007 197.635 192.958C204.126 200.334 212.854 204.41 218.376 206.444C213.053 193.401 208.104 182.358 203.87 174.402ZM231.326 206.777C230.538 210.299 229.884 213.954 229.563 217.858C233.505 231.611 238.525 244.795 243.971 258.133C244.401 253.691 245.559 249.283 247.677 245.019C243.131 227.284 237.703 211.954 231.34 207.721C231.333 207.409 231.329 207.095 231.326 206.777ZM253.103 268.759C252.061 270.343 251.086 271.841 250.223 273.191C252.644 278.974 255.098 284.835 257.535 290.828C256.215 284.191 254.739 276.602 253.103 268.759Z" fill="#FFBC4A"/>
<path d="M106.799 543.141C104.264 541.76 102.363 537.92 103.11 535.69C104.029 532.953 112.143 519.089 114.558 516.136C115.96 514.419 119.332 510.948 122.053 508.423C127.612 503.258 131.231 498.799 136.108 491.107C140.974 483.432 146.305 476.819 153.879 469.06C164.675 457.997 170.64 453.401 189.957 441.255C206.779 430.678 208.723 429.655 214.831 428.154C223.242 426.088 224.873 425.982 224.36 427.538C224.145 428.189 224.266 428.798 224.631 428.897C224.994 428.995 225.356 428.633 225.435 428.089C225.516 427.547 227.114 426.778 228.983 426.383C254.097 421.072 271.029 413.89 284.784 402.715C303.075 387.856 310.563 381.672 313.348 379.117C317.654 375.166 329.166 367.533 334.173 365.311C336.493 364.28 340.582 362.841 343.261 362.112C350.723 360.086 351.724 359.751 357.531 357.365C360.909 355.977 365.881 354.822 370.771 354.289C375.078 353.821 380.576 353.193 382.99 352.897C385.403 352.597 389.36 352.649 391.783 353.008L396.188 353.661L397.996 358.167C400.361 364.061 400.673 369.562 399.097 377.543C397.23 386.986 394.635 392.954 391.138 395.837C389.596 397.11 379.462 403.874 368.617 410.868C357.775 417.863 347.081 425.294 344.857 427.382C340.4 431.563 329.532 439.377 313.308 450.063C307.48 453.901 300.098 459.289 296.903 462.036C286.19 471.243 273.135 482.647 269.285 486.159C263.344 491.576 248.128 502.958 237.965 509.587C229.144 515.341 220.983 519.083 208.675 523.02C203.278 524.745 203.208 524.77 192.418 528.886C187.629 530.713 178.993 533.761 173.224 535.658C167.457 537.558 160.902 539.769 158.659 540.576C156.415 541.381 151.578 542.312 147.909 542.644C144.239 542.977 138.259 543.943 134.615 544.794C130.974 545.643 126.204 546.371 124.016 546.41C118.834 546.507 109.846 544.799 106.799 543.141Z" fill="#FFDA95"/>
</svg>
